<svg xmlns="http://www.w3.org/2000/svg" viewBox="0 0 1200 800" preserveAspectRatio="xMidYMid slice" role="img" aria-label="Abstract teal halftone field"><style>svg{--bg:#f8f3ee;--dot:#457468}@media (prefers-color-scheme:dark){svg{--bg:#1a2520;--dot:#a4c6b9}}.dot{fill:var(--dot)}</style><rect x="0" y="0" width="1200" height="800" fill="var(--bg)"/><circle class="dot" cx="51" cy="51" r="7.5"/><circle class="dot" cx="153" cy="51" r="6.3"/><circle class="dot" cx="255" cy="51" r="8.1"/><circle class="dot" cx="357" cy="51" r="8.1"/><circle class="dot" cx="459" cy="51" r="7.1"/><circle class="dot" cx="561" cy="51" r="4.7"/><circle class="dot" cx="663" cy="51" r="2.5"/><circle class="dot" cx="765" cy="51" r="2.2"/><circle class="dot" cx="867" cy="51" r="1.8"/><circle class="dot" cx="969" cy="51" r="2"/><circle class="dot" cx="1071" cy="51" r="0.8"/><circle class="dot" cx="1173" cy="51" r="1.3"/><circle class="dot" cx="51" cy="153" r="11.3"/><circle class="dot" cx="153" cy="153" r="11.9"/><circle class="dot" cx="255" cy="153" r="13.1"/><circle class="dot" cx="357" cy="153" r="14"/><circle class="dot" cx="459" cy="153" r="12.5"/><circle class="dot" cx="561" cy="153" r="11.9"/><circle class="dot" cx="663" cy="153" r="9.4"/><circle class="dot" cx="765" cy="153" r="5.8"/><circle class="dot" cx="867" cy="153" r="2.8"/><circle class="dot" cx="969" cy="153" r="1.5"/><circle class="dot" cx="51" cy="255" r="12.2"/><circle class="dot" cx="153" cy="255" r="15.4"/><circle class="dot" cx="255" cy="255" r="19.9"/><circle class="dot" cx="357" cy="255" r="23.2"/><circle class="dot" cx="459" cy="255" r="26"/><circle class="dot" cx="561" cy="255" r="27.4"/><circle class="dot" cx="663" cy="255" r="28.3"/><circle class="dot" cx="765" cy="255" r="25.3"/><circle class="dot" cx="867" cy="255" r="19.6"/><circle class="dot" cx="969" cy="255" r="11"/><circle class="dot" cx="1071" cy="255" r="3.1"/><circle class="dot" cx="51" cy="357" r="16.6"/><circle class="dot" cx="153" cy="357" r="19.6"/><circle class="dot" cx="255" cy="357" r="23.5"/><circle class="dot" cx="357" cy="357" r="29.8"/><circle class="dot" cx="459" cy="357" r="37.4"/><circle class="dot" cx="561" cy="357" r="43.8"/><circle class="dot" cx="663" cy="357" r="48.8"/><circle class="dot" cx="765" cy="357" r="52.5"/><circle class="dot" cx="867" cy="357" r="54.3"/><circle class="dot" cx="969" cy="357" r="52.4"/><circle class="dot" cx="1071" cy="357" r="45.6"/><circle class="dot" cx="1173" cy="357" r="30.6"/><circle class="dot" cx="51" cy="459" r="15.1"/><circle class="dot" cx="153" cy="459" r="19.8"/><circle class="dot" cx="255" cy="459" r="24.7"/><circle class="dot" cx="357" cy="459" r="30.7"/><circle class="dot" cx="459" cy="459" r="35.8"/><circle class="dot" cx="561" cy="459" r="42.1"/><circle class="dot" cx="663" cy="459" r="47.1"/><circle class="dot" cx="765" cy="459" r="49.5"/><circle class="dot" cx="867" cy="459" r="49.7"/><circle class="dot" cx="969" cy="459" r="45.7"/><circle class="dot" cx="1071" cy="459" r="36"/><circle class="dot" cx="1173" cy="459" r="17.9"/><circle class="dot" cx="51" cy="561" r="12.9"/><circle class="dot" cx="153" cy="561" r="14.5"/><circle class="dot" cx="255" cy="561" r="18.6"/><circle class="dot" cx="357" cy="561" r="22.1"/><circle class="dot" cx="459" cy="561" r="23.8"/><circle class="dot" cx="561" cy="561" r="25.1"/><circle class="dot" cx="663" cy="561" r="24.2"/><circle class="dot" cx="765" cy="561" r="21.1"/><circle class="dot" cx="867" cy="561" r="14.7"/><circle class="dot" cx="969" cy="561" r="7.4"/><circle class="dot" cx="1071" cy="561" r="1.7"/><circle class="dot" cx="1173" cy="561" r="0.8"/><circle class="dot" cx="51" cy="663" r="9.4"/><circle class="dot" cx="153" cy="663" r="8.4"/><circle class="dot" cx="255" cy="663" r="9.6"/><circle class="dot" cx="357" cy="663" r="12.1"/><circle class="dot" cx="459" cy="663" r="11.4"/><circle class="dot" cx="561" cy="663" r="9.7"/><circle class="dot" cx="663" cy="663" r="7.2"/><circle class="dot" cx="765" cy="663" r="5.3"/><circle class="dot" cx="867" cy="663" r="2.9"/><circle class="dot" cx="969" cy="663" r="1.8"/><circle class="dot" cx="1173" cy="663" r="1.8"/><circle class="dot" cx="51" cy="765" r="7.5"/><circle class="dot" cx="153" cy="765" r="7.8"/><circle class="dot" cx="255" cy="765" r="6.4"/><circle class="dot" cx="357" cy="765" r="4.9"/><circle class="dot" cx="459" cy="765" r="4.2"/><circle class="dot" cx="561" cy="765" r="4.1"/><circle class="dot" cx="663" cy="765" r="2.4"/><circle class="dot" cx="765" cy="765" r="2.5"/><circle class="dot" cx="867" cy="765" r="2.1"/><circle class="dot" cx="969" cy="765" r="1.9"/><circle class="dot" cx="1071" cy="765" r="2.2"/><circle class="dot" cx="1173" cy="765" r="2.2"/></svg>