<svg xmlns="http://www.w3.org/2000/svg" viewBox="0 0 660 400" preserveAspectRatio="xMidYMid slice" role="img" aria-label="Abstract teal halftone field"><style>svg{--bg:#f8f3ee;--dot:#457468}@media (prefers-color-scheme:dark){svg{--bg:#1a2520;--dot:#a4c6b9}}.dot{fill:var(--dot)}</style><rect x="0" y="0" width="660" height="400" fill="var(--bg)"/><circle class="dot" cx="20" cy="20" r="1.7"/><circle class="dot" cx="100" cy="20" r="3.3"/><circle class="dot" cx="140" cy="20" r="0.7"/><circle class="dot" cx="180" cy="20" r="5.9"/><circle class="dot" cx="260" cy="20" r="6.3"/><circle class="dot" cx="340" cy="20" r="4.6"/><circle class="dot" cx="420" cy="20" r="2.3"/><circle class="dot" cx="460" cy="20" r="2.2"/><circle class="dot" cx="540" cy="20" r="3.3"/><circle class="dot" cx="620" cy="20" r="4.5"/><circle class="dot" cx="20" cy="60" r="1.2"/><circle class="dot" cx="220" cy="60" r="0.8"/><circle class="dot" cx="540" cy="60" r="0.9"/><circle class="dot" cx="580" cy="60" r="1.1"/><circle class="dot" cx="620" cy="60" r="1.1"/><circle class="dot" cx="20" cy="100" r="4.2"/><circle class="dot" cx="60" cy="100" r="1.1"/><circle class="dot" cx="100" cy="100" r="9.5"/><circle class="dot" cx="180" cy="100" r="15.9"/><circle class="dot" cx="260" cy="100" r="17.9"/><circle class="dot" cx="340" cy="100" r="12.7"/><circle class="dot" cx="380" cy="100" r="1.7"/><circle class="dot" cx="420" cy="100" r="6.8"/><circle class="dot" cx="460" cy="100" r="6.5"/><circle class="dot" cx="500" cy="100" r="1.8"/><circle class="dot" cx="540" cy="100" r="9.5"/><circle class="dot" cx="620" cy="100" r="11.5"/><circle class="dot" cx="60" cy="140" r="0.8"/><circle class="dot" cx="620" cy="140" r="0.8"/><circle class="dot" cx="20" cy="180" r="1.6"/><circle class="dot" cx="100" cy="180" r="5.1"/><circle class="dot" cx="180" cy="180" r="8.3"/><circle class="dot" cx="260" cy="180" r="9.2"/><circle class="dot" cx="340" cy="180" r="6.9"/><circle class="dot" cx="420" cy="180" r="2.6"/><circle class="dot" cx="460" cy="180" r="2.5"/><circle class="dot" cx="540" cy="180" r="5.4"/><circle class="dot" cx="620" cy="180" r="6.1"/><circle class="dot" cx="20" cy="220" r="1.8"/><circle class="dot" cx="100" cy="220" r="5"/><circle class="dot" cx="180" cy="220" r="8.1"/><circle class="dot" cx="260" cy="220" r="9"/><circle class="dot" cx="340" cy="220" r="6.8"/><circle class="dot" cx="420" cy="220" r="2.6"/><circle class="dot" cx="460" cy="220" r="2.5"/><circle class="dot" cx="540" cy="220" r="5.2"/><circle class="dot" cx="620" cy="220" r="5.6"/><circle class="dot" cx="20" cy="260" r="1.3"/><circle class="dot" cx="60" cy="260" r="1.1"/><circle class="dot" cx="620" cy="260" r="1"/><circle class="dot" cx="20" cy="300" r="3.8"/><circle class="dot" cx="60" cy="300" r="0.9"/><circle class="dot" cx="100" cy="300" r="8"/><circle class="dot" cx="180" cy="300" r="14.2"/><circle class="dot" cx="260" cy="300" r="15.9"/><circle class="dot" cx="340" cy="300" r="11.4"/><circle class="dot" cx="380" cy="300" r="1.3"/><circle class="dot" cx="420" cy="300" r="6.2"/><circle class="dot" cx="460" cy="300" r="6.1"/><circle class="dot" cx="500" cy="300" r="2"/><circle class="dot" cx="540" cy="300" r="8.5"/><circle class="dot" cx="620" cy="300" r="10.1"/><circle class="dot" cx="20" cy="340" r="1"/><circle class="dot" cx="60" cy="340" r="1"/><circle class="dot" cx="100" cy="340" r="1"/><circle class="dot" cx="140" cy="340" r="0.9"/><circle class="dot" cx="180" cy="340" r="0.8"/><circle class="dot" cx="460" cy="340" r="0.8"/><circle class="dot" cx="500" cy="340" r="1.2"/><circle class="dot" cx="540" cy="340" r="0.9"/><circle class="dot" cx="580" cy="340" r="1.2"/><circle class="dot" cx="620" cy="340" r="1.4"/><circle class="dot" cx="20" cy="380" r="1.2"/><circle class="dot" cx="60" cy="380" r="0.8"/><circle class="dot" cx="100" cy="380" r="3.5"/><circle class="dot" cx="180" cy="380" r="4.4"/><circle class="dot" cx="220" cy="380" r="1.4"/><circle class="dot" cx="260" cy="380" r="5.5"/><circle class="dot" cx="300" cy="380" r="0.9"/><circle class="dot" cx="340" cy="380" r="4.3"/><circle class="dot" cx="380" cy="380" r="0.8"/><circle class="dot" cx="420" cy="380" r="2"/><circle class="dot" cx="460" cy="380" r="1.8"/><circle class="dot" cx="540" cy="380" r="3.6"/><circle class="dot" cx="620" cy="380" r="3.1"/></svg>