<svg xmlns="http://www.w3.org/2000/svg" viewBox="0 0 1200 800" preserveAspectRatio="xMidYMid slice" role="img" aria-label="Abstract teal halftone field"><style>svg{--bg:#f8f3ee;--dot:#4f8375}@media (prefers-color-scheme:dark){svg{--bg:#1a2520;--dot:#a4c6b9}}.dot{fill:var(--dot)}</style><rect x="0" y="0" width="1200" height="800" fill="var(--bg)"/><circle class="dot" cx="17" cy="17" r="2.9"/><circle class="dot" cx="51" cy="17" r="3"/><circle class="dot" cx="85" cy="17" r="4.8"/><circle class="dot" cx="119" cy="17" r="4.9"/><circle class="dot" cx="153" cy="17" r="5"/><circle class="dot" cx="187" cy="17" r="5.1"/><circle class="dot" cx="221" cy="17" r="5.3"/><circle class="dot" cx="255" cy="17" r="5.5"/><circle class="dot" cx="289" cy="17" r="5.7"/><circle class="dot" cx="323" cy="17" r="5.8"/><circle class="dot" cx="357" cy="17" r="8"/><circle class="dot" cx="391" cy="17" r="8.1"/><circle class="dot" cx="425" cy="17" r="8.2"/><circle class="dot" cx="459" cy="17" r="8.3"/><circle class="dot" cx="493" cy="17" r="8.3"/><circle class="dot" cx="527" cy="17" r="8.4"/><circle class="dot" cx="561" cy="17" r="8.5"/><circle class="dot" cx="595" cy="17" r="8.5"/><circle class="dot" cx="629" cy="17" r="8.3"/><circle class="dot" cx="663" cy="17" r="10"/><circle class="dot" cx="697" cy="17" r="9.7"/><circle class="dot" cx="731" cy="17" r="9.5"/><circle class="dot" cx="765" cy="17" r="9.4"/><circle class="dot" cx="799" cy="17" r="9.2"/><circle class="dot" cx="833" cy="17" r="8.9"/><circle class="dot" cx="867" cy="17" r="8.5"/><circle class="dot" cx="901" cy="17" r="8.2"/><circle class="dot" cx="935" cy="17" r="9.1"/><circle class="dot" cx="969" cy="17" r="8.3"/><circle class="dot" cx="1003" cy="17" r="7.6"/><circle class="dot" cx="1037" cy="17" r="7.2"/><circle class="dot" cx="1071" cy="17" r="7"/><circle class="dot" cx="1105" cy="17" r="6.7"/><circle class="dot" cx="1139" cy="17" r="6.1"/><circle class="dot" cx="1173" cy="17" r="5.5"/><circle class="dot" cx="17" cy="51" r="2.7"/><circle class="dot" cx="51" cy="51" r="2.7"/><circle class="dot" cx="85" cy="51" r="2.8"/><circle class="dot" cx="119" cy="51" r="4.8"/><circle class="dot" cx="153" cy="51" r="5.3"/><circle class="dot" cx="187" cy="51" r="5.8"/><circle class="dot" cx="221" cy="51" r="5.9"/><circle class="dot" cx="255" cy="51" r="6"/><circle class="dot" cx="289" cy="51" r="6.1"/><circle class="dot" cx="323" cy="51" r="6.2"/><circle class="dot" cx="357" cy="51" r="6.2"/><circle class="dot" cx="391" cy="51" r="8.7"/><circle class="dot" cx="425" cy="51" r="8.8"/><circle class="dot" cx="459" cy="51" r="8.9"/><circle class="dot" cx="493" cy="51" r="9"/><circle class="dot" cx="527" cy="51" r="9"/><circle class="dot" cx="561" cy="51" r="9"/><circle class="dot" cx="595" cy="51" r="8.9"/><circle class="dot" cx="629" cy="51" r="8.8"/><circle class="dot" cx="663" cy="51" r="11"/><circle class="dot" cx="697" cy="51" r="10.8"/><circle class="dot" cx="731" cy="51" r="10.5"/><circle class="dot" cx="765" cy="51" r="10.2"/><circle class="dot" cx="799" cy="51" r="9.9"/><circle class="dot" cx="833" cy="51" r="9.4"/><circle class="dot" cx="867" cy="51" r="8.7"/><circle class="dot" cx="901" cy="51" r="8.2"/><circle class="dot" cx="935" cy="51" r="7.7"/><circle class="dot" cx="969" cy="51" r="8.8"/><circle class="dot" cx="1003" cy="51" r="8.2"/><circle class="dot" cx="1037" cy="51" r="7.7"/><circle class="dot" cx="1071" cy="51" r="7.3"/><circle class="dot" cx="1105" cy="51" r="6.9"/><circle class="dot" cx="1139" cy="51" r="6.5"/><circle class="dot" cx="1173" cy="51" r="6.2"/><circle class="dot" cx="17" cy="85" r="2.8"/><circle class="dot" cx="51" cy="85" r="2.8"/><circle class="dot" cx="85" cy="85" r="2.9"/><circle class="dot" cx="119" cy="85" r="5.1"/><circle class="dot" cx="153" cy="85" r="5.6"/><circle class="dot" cx="187" cy="85" r="6"/><circle class="dot" cx="221" cy="85" r="6.2"/><circle class="dot" cx="255" cy="85" r="6.3"/><circle class="dot" cx="289" cy="85" r="6.4"/><circle class="dot" cx="323" cy="85" r="6.5"/><circle class="dot" cx="357" cy="85" r="6.6"/><circle class="dot" cx="391" cy="85" r="6.7"/><circle class="dot" cx="425" cy="85" r="9.4"/><circle class="dot" cx="459" cy="85" r="9.5"/><circle class="dot" cx="493" cy="85" r="9.5"/><circle class="dot" cx="527" cy="85" r="9.5"/><circle class="dot" cx="561" cy="85" r="9.5"/><circle class="dot" cx="595" cy="85" r="9.4"/><circle class="dot" cx="629" cy="85" r="9.3"/><circle class="dot" cx="663" cy="85" r="9.2"/><circle class="dot" cx="697" cy="85" r="11.5"/><circle class="dot" cx="731" cy="85" r="11.2"/><circle class="dot" cx="765" cy="85" r="10.9"/><circle class="dot" cx="799" cy="85" r="10.6"/><circle class="dot" cx="833" cy="85" r="10"/><circle class="dot" cx="867" cy="85" r="9.3"/><circle class="dot" cx="901" cy="85" r="8.7"/><circle class="dot" cx="935" cy="85" r="8.2"/><circle class="dot" cx="969" cy="85" r="9.5"/><circle class="dot" cx="1003" cy="85" r="8.9"/><circle class="dot" cx="1037" cy="85" r="8.4"/><circle class="dot" cx="1071" cy="85" r="7.8"/><circle class="dot" cx="1105" cy="85" r="7.3"/><circle class="dot" cx="1139" cy="85" r="6.9"/><circle class="dot" cx="1173" cy="85" r="6.7"/><circle class="dot" cx="17" cy="119" r="2.7"/><circle class="dot" cx="51" cy="119" r="3"/><circle class="dot" cx="85" cy="119" r="3.3"/><circle class="dot" cx="119" cy="119" r="3.5"/><circle class="dot" cx="153" cy="119" r="5.7"/><circle class="dot" cx="187" cy="119" r="5.8"/><circle class="dot" cx="221" cy="119" r="6.1"/><circle class="dot" cx="255" cy="119" r="6.3"/><circle class="dot" cx="289" cy="119" r="6.6"/><circle class="dot" cx="323" cy="119" r="6.8"/><circle class="dot" cx="357" cy="119" r="6.9"/><circle class="dot" cx="391" cy="119" r="7.1"/><circle class="dot" cx="425" cy="119" r="9.9"/><circle class="dot" cx="459" cy="119" r="10"/><circle class="dot" cx="493" cy="119" r="10"/><circle class="dot" cx="527" cy="119" r="10"/><circle class="dot" cx="561" cy="119" r="9.9"/><circle class="dot" cx="595" cy="119" r="9.8"/><circle class="dot" cx="629" cy="119" r="9.7"/><circle class="dot" cx="663" cy="119" r="9.5"/><circle class="dot" cx="697" cy="119" r="9.3"/><circle class="dot" cx="731" cy="119" r="11.7"/><circle class="dot" cx="765" cy="119" r="11.6"/><circle class="dot" cx="799" cy="119" r="11.4"/><circle class="dot" cx="833" cy="119" r="10.8"/><circle class="dot" cx="867" cy="119" r="10"/><circle class="dot" cx="901" cy="119" r="9.3"/><circle class="dot" cx="935" cy="119" r="8.9"/><circle class="dot" cx="969" cy="119" r="8.6"/><circle class="dot" cx="1003" cy="119" r="9.9"/><circle class="dot" cx="1037" cy="119" r="9.1"/><circle class="dot" cx="1071" cy="119" r="8.3"/><circle class="dot" cx="1105" cy="119" r="7.6"/><circle class="dot" cx="1139" cy="119" r="7.3"/><circle class="dot" cx="1173" cy="119" r="7.1"/><circle class="dot" cx="17" cy="153" r="2.9"/><circle class="dot" cx="51" cy="153" r="3.3"/><circle class="dot" cx="85" cy="153" r="3.6"/><circle class="dot" cx="119" cy="153" r="3.7"/><circle class="dot" cx="153" cy="153" r="3.7"/><circle class="dot" cx="187" cy="153" r="6.1"/><circle class="dot" cx="221" cy="153" r="6.4"/><circle class="dot" cx="255" cy="153" r="6.7"/><circle class="dot" cx="289" cy="153" r="6.9"/><circle class="dot" cx="323" cy="153" r="7.1"/><circle class="dot" cx="357" cy="153" r="7.3"/><circle class="dot" cx="391" cy="153" r="7.4"/><circle class="dot" cx="425" cy="153" r="7.5"/><circle class="dot" cx="459" cy="153" r="10.5"/><circle class="dot" cx="493" cy="153" r="10.5"/><circle class="dot" cx="527" cy="153" r="10.5"/><circle class="dot" cx="561" cy="153" r="10.5"/><circle class="dot" cx="595" cy="153" r="10.4"/><circle class="dot" cx="629" cy="153" r="10.2"/><circle class="dot" cx="663" cy="153" r="10"/><circle class="dot" cx="697" cy="153" r="9.8"/><circle class="dot" cx="731" cy="153" r="12.3"/><circle class="dot" cx="765" cy="153" r="12.2"/><circle class="dot" cx="799" cy="153" r="11.9"/><circle class="dot" cx="833" cy="153" r="11.3"/><circle class="dot" cx="867" cy="153" r="10.5"/><circle class="dot" cx="901" cy="153" r="9.8"/><circle class="dot" cx="935" cy="153" r="9.4"/><circle class="dot" cx="969" cy="153" r="9"/><circle class="dot" cx="1003" cy="153" r="8.5"/><circle class="dot" cx="1037" cy="153" r="9.6"/><circle class="dot" cx="1071" cy="153" r="8.8"/><circle class="dot" cx="1105" cy="153" r="8.1"/><circle class="dot" cx="1139" cy="153" r="7.7"/><circle class="dot" cx="1173" cy="153" r="7.4"/><circle class="dot" cx="17" cy="187" r="3.2"/><circle class="dot" cx="51" cy="187" r="3.7"/><circle class="dot" cx="85" cy="187" r="4"/><circle class="dot" cx="119" cy="187" r="4.1"/><circle class="dot" cx="153" cy="187" r="4"/><circle class="dot" cx="187" cy="187" r="6.5"/><circle class="dot" cx="221" cy="187" r="6.7"/><circle class="dot" cx="255" cy="187" r="7"/><circle class="dot" cx="289" cy="187" r="7.3"/><circle class="dot" cx="323" cy="187" r="7.5"/><circle class="dot" cx="357" cy="187" r="7.6"/><circle class="dot" cx="391" cy="187" r="7.7"/><circle class="dot" cx="425" cy="187" r="7.8"/><circle class="dot" cx="459" cy="187" r="7.8"/><circle class="dot" cx="493" cy="187" r="11"/><circle class="dot" cx="527" cy="187" r="11"/><circle class="dot" cx="561" cy="187" r="11"/><circle class="dot" cx="595" cy="187" r="10.9"/><circle class="dot" cx="629" cy="187" r="10.8"/><circle class="dot" cx="663" cy="187" r="10.6"/><circle class="dot" cx="697" cy="187" r="10.3"/><circle class="dot" cx="731" cy="187" r="10.1"/><circle class="dot" cx="765" cy="187" r="12.6"/><circle class="dot" cx="799" cy="187" r="12.3"/><circle class="dot" cx="833" cy="187" r="11.8"/><circle class="dot" cx="867" cy="187" r="11"/><circle class="dot" cx="901" cy="187" r="10.4"/><circle class="dot" cx="935" cy="187" r="9.8"/><circle class="dot" cx="969" cy="187" r="9.2"/><circle class="dot" cx="1003" cy="187" r="8.6"/><circle class="dot" cx="1037" cy="187" r="9.8"/><circle class="dot" cx="1071" cy="187" r="9.3"/><circle class="dot" cx="1105" cy="187" r="8.7"/><circle class="dot" cx="1139" cy="187" r="8"/><circle class="dot" cx="1173" cy="187" r="7.4"/><circle class="dot" cx="17" cy="221" r="3.4"/><circle class="dot" cx="51" cy="221" r="3.8"/><circle class="dot" cx="85" cy="221" r="4.1"/><circle class="dot" cx="119" cy="221" r="4.2"/><circle class="dot" cx="153" cy="221" r="4.1"/><circle class="dot" cx="187" cy="221" r="4.1"/><circle class="dot" cx="221" cy="221" r="7"/><circle class="dot" cx="255" cy="221" r="7.3"/><circle class="dot" cx="289" cy="221" r="7.6"/><circle class="dot" cx="323" cy="221" r="7.7"/><circle class="dot" cx="357" cy="221" r="7.9"/><circle class="dot" cx="391" cy="221" r="8"/><circle class="dot" cx="425" cy="221" r="8.1"/><circle class="dot" cx="459" cy="221" r="8.1"/><circle class="dot" cx="493" cy="221" r="11.4"/><circle class="dot" cx="527" cy="221" r="11.4"/><circle class="dot" cx="561" cy="221" r="11.3"/><circle class="dot" cx="595" cy="221" r="11.3"/><circle class="dot" cx="629" cy="221" r="11.1"/><circle class="dot" cx="663" cy="221" r="10.9"/><circle class="dot" cx="697" cy="221" r="10.6"/><circle class="dot" cx="731" cy="221" r="10.4"/><circle class="dot" cx="765" cy="221" r="10.2"/><circle class="dot" cx="799" cy="221" r="12.6"/><circle class="dot" cx="833" cy="221" r="12.1"/><circle class="dot" cx="867" cy="221" r="11.4"/><circle class="dot" cx="901" cy="221" r="10.8"/><circle class="dot" cx="935" cy="221" r="10.2"/><circle class="dot" cx="969" cy="221" r="9.6"/><circle class="dot" cx="1003" cy="221" r="9"/><circle class="dot" cx="1037" cy="221" r="8.5"/><circle class="dot" cx="1071" cy="221" r="9.7"/><circle class="dot" cx="1105" cy="221" r="9.1"/><circle class="dot" cx="1139" cy="221" r="8.4"/><circle class="dot" cx="1173" cy="221" r="7.6"/><circle class="dot" cx="17" cy="255" r="3.5"/><circle class="dot" cx="51" cy="255" r="3.8"/><circle class="dot" cx="85" cy="255" r="4.1"/><circle class="dot" cx="119" cy="255" r="4.2"/><circle class="dot" cx="153" cy="255" r="4.2"/><circle class="dot" cx="187" cy="255" r="4.2"/><circle class="dot" cx="221" cy="255" r="4.4"/><circle class="dot" cx="255" cy="255" r="7.5"/><circle class="dot" cx="289" cy="255" r="7.8"/><circle class="dot" cx="323" cy="255" r="7.9"/><circle class="dot" cx="357" cy="255" r="8"/><circle class="dot" cx="391" cy="255" r="8.1"/><circle class="dot" cx="425" cy="255" r="8.2"/><circle class="dot" cx="459" cy="255" r="8.3"/><circle class="dot" cx="493" cy="255" r="8.3"/><circle class="dot" cx="527" cy="255" r="11.7"/><circle class="dot" cx="561" cy="255" r="11.6"/><circle class="dot" cx="595" cy="255" r="11.5"/><circle class="dot" cx="629" cy="255" r="11.3"/><circle class="dot" cx="663" cy="255" r="11.1"/><circle class="dot" cx="697" cy="255" r="10.8"/><circle class="dot" cx="731" cy="255" r="10.6"/><circle class="dot" cx="765" cy="255" r="10.3"/><circle class="dot" cx="799" cy="255" r="12.8"/><circle class="dot" cx="833" cy="255" r="12.3"/><circle class="dot" cx="867" cy="255" r="11.8"/><circle class="dot" cx="901" cy="255" r="11.2"/><circle class="dot" cx="935" cy="255" r="10.7"/><circle class="dot" cx="969" cy="255" r="10.3"/><circle class="dot" cx="1003" cy="255" r="9.8"/><circle class="dot" cx="1037" cy="255" r="9.2"/><circle class="dot" cx="1071" cy="255" r="8.5"/><circle class="dot" cx="1105" cy="255" r="9.5"/><circle class="dot" cx="1139" cy="255" r="8.7"/><circle class="dot" cx="1173" cy="255" r="7.9"/><circle class="dot" cx="17" cy="289" r="3.6"/><circle class="dot" cx="51" cy="289" r="3.8"/><circle class="dot" cx="85" cy="289" r="4.1"/><circle class="dot" cx="119" cy="289" r="4.2"/><circle class="dot" cx="153" cy="289" r="4.3"/><circle class="dot" cx="187" cy="289" r="4.3"/><circle class="dot" cx="221" cy="289" r="4.5"/><circle class="dot" cx="255" cy="289" r="7.6"/><circle class="dot" cx="289" cy="289" r="7.9"/><circle class="dot" cx="323" cy="289" r="8"/><circle class="dot" cx="357" cy="289" r="8.1"/><circle class="dot" cx="391" cy="289" r="8.2"/><circle class="dot" cx="425" cy="289" r="8.4"/><circle class="dot" cx="459" cy="289" r="8.4"/><circle class="dot" cx="493" cy="289" r="8.5"/><circle class="dot" cx="527" cy="289" r="8.5"/><circle class="dot" cx="561" cy="289" r="11.8"/><circle class="dot" cx="595" cy="289" r="11.6"/><circle class="dot" cx="629" cy="289" r="11.5"/><circle class="dot" cx="663" cy="289" r="11.2"/><circle class="dot" cx="697" cy="289" r="11"/><circle class="dot" cx="731" cy="289" r="10.7"/><circle class="dot" cx="765" cy="289" r="10.4"/><circle class="dot" cx="799" cy="289" r="10.1"/><circle class="dot" cx="833" cy="289" r="12.4"/><circle class="dot" cx="867" cy="289" r="11.9"/><circle class="dot" cx="901" cy="289" r="11.4"/><circle class="dot" cx="935" cy="289" r="10.9"/><circle class="dot" cx="969" cy="289" r="10.3"/><circle class="dot" cx="1003" cy="289" r="9.8"/><circle class="dot" cx="1037" cy="289" r="9.2"/><circle class="dot" cx="1071" cy="289" r="8.6"/><circle class="dot" cx="1105" cy="289" r="9.7"/><circle class="dot" cx="1139" cy="289" r="8.9"/><circle class="dot" cx="1173" cy="289" r="8.1"/><circle class="dot" cx="17" cy="323" r="3.8"/><circle class="dot" cx="51" cy="323" r="3.8"/><circle class="dot" cx="85" cy="323" r="3.8"/><circle class="dot" cx="119" cy="323" r="4"/><circle class="dot" cx="153" cy="323" r="4.3"/><circle class="dot" cx="187" cy="323" r="4.5"/><circle class="dot" cx="221" cy="323" r="4.6"/><circle class="dot" cx="255" cy="323" r="4.7"/><circle class="dot" cx="289" cy="323" r="7.8"/><circle class="dot" cx="323" cy="323" r="8"/><circle class="dot" cx="357" cy="323" r="8.2"/><circle class="dot" cx="391" cy="323" r="8.3"/><circle class="dot" cx="425" cy="323" r="8.4"/><circle class="dot" cx="459" cy="323" r="8.5"/><circle class="dot" cx="493" cy="323" r="8.5"/><circle class="dot" cx="527" cy="323" r="8.5"/><circle class="dot" cx="561" cy="323" r="11.8"/><circle class="dot" cx="595" cy="323" r="11.7"/><circle class="dot" cx="629" cy="323" r="11.5"/><circle class="dot" cx="663" cy="323" r="11.3"/><circle class="dot" cx="697" cy="323" r="11"/><circle class="dot" cx="731" cy="323" r="10.7"/><circle class="dot" cx="765" cy="323" r="10.3"/><circle class="dot" cx="799" cy="323" r="9.9"/><circle class="dot" cx="833" cy="323" r="9.6"/><circle class="dot" cx="867" cy="323" r="11.9"/><circle class="dot" cx="901" cy="323" r="11.5"/><circle class="dot" cx="935" cy="323" r="10.8"/><circle class="dot" cx="969" cy="323" r="10"/><circle class="dot" cx="1003" cy="323" r="9.3"/><circle class="dot" cx="1037" cy="323" r="8.9"/><circle class="dot" cx="1071" cy="323" r="8.6"/><circle class="dot" cx="1105" cy="323" r="8.1"/><circle class="dot" cx="1139" cy="323" r="9.1"/><circle class="dot" cx="1173" cy="323" r="8.4"/><circle class="dot" cx="17" cy="357" r="3.8"/><circle class="dot" cx="51" cy="357" r="3.8"/><circle class="dot" cx="85" cy="357" r="3.8"/><circle class="dot" cx="119" cy="357" r="4"/><circle class="dot" cx="153" cy="357" r="4.3"/><circle class="dot" cx="187" cy="357" r="4.5"/><circle class="dot" cx="221" cy="357" r="4.6"/><circle class="dot" cx="255" cy="357" r="4.7"/><circle class="dot" cx="289" cy="357" r="7.8"/><circle class="dot" cx="323" cy="357" r="8"/><circle class="dot" cx="357" cy="357" r="8.1"/><circle class="dot" cx="391" cy="357" r="8.2"/><circle class="dot" cx="425" cy="357" r="8.4"/><circle class="dot" cx="459" cy="357" r="8.4"/><circle class="dot" cx="493" cy="357" r="8.5"/><circle class="dot" cx="527" cy="357" r="8.4"/><circle class="dot" cx="561" cy="357" r="8.4"/><circle class="dot" cx="595" cy="357" r="11.6"/><circle class="dot" cx="629" cy="357" r="11.5"/><circle class="dot" cx="663" cy="357" r="11.2"/><circle class="dot" cx="697" cy="357" r="11"/><circle class="dot" cx="731" cy="357" r="10.7"/><circle class="dot" cx="765" cy="357" r="10.3"/><circle class="dot" cx="799" cy="357" r="10"/><circle class="dot" cx="833" cy="357" r="9.6"/><circle class="dot" cx="867" cy="357" r="11.8"/><circle class="dot" cx="901" cy="357" r="11.3"/><circle class="dot" cx="935" cy="357" r="10.7"/><circle class="dot" cx="969" cy="357" r="10"/><circle class="dot" cx="1003" cy="357" r="9.4"/><circle class="dot" cx="1037" cy="357" r="8.8"/><circle class="dot" cx="1071" cy="357" r="8.4"/><circle class="dot" cx="1105" cy="357" r="7.9"/><circle class="dot" cx="1139" cy="357" r="7.5"/><circle class="dot" cx="1173" cy="357" r="8.5"/><circle class="dot" cx="17" cy="391" r="1.8"/><circle class="dot" cx="51" cy="391" r="3.8"/><circle class="dot" cx="85" cy="391" r="3.8"/><circle class="dot" cx="119" cy="391" r="4"/><circle class="dot" cx="153" cy="391" r="4.2"/><circle class="dot" cx="187" cy="391" r="4.4"/><circle class="dot" cx="221" cy="391" r="4.5"/><circle class="dot" cx="255" cy="391" r="4.6"/><circle class="dot" cx="289" cy="391" r="4.7"/><circle class="dot" cx="323" cy="391" r="7.9"/><circle class="dot" cx="357" cy="391" r="8"/><circle class="dot" cx="391" cy="391" r="8.1"/><circle class="dot" cx="425" cy="391" r="8.2"/><circle class="dot" cx="459" cy="391" r="8.3"/><circle class="dot" cx="493" cy="391" r="8.3"/><circle class="dot" cx="527" cy="391" r="8.3"/><circle class="dot" cx="561" cy="391" r="8.3"/><circle class="dot" cx="595" cy="391" r="11.5"/><circle class="dot" cx="629" cy="391" r="11.3"/><circle class="dot" cx="663" cy="391" r="11.1"/><circle class="dot" cx="697" cy="391" r="10.8"/><circle class="dot" cx="731" cy="391" r="10.5"/><circle class="dot" cx="765" cy="391" r="10.4"/><circle class="dot" cx="799" cy="391" r="10.1"/><circle class="dot" cx="833" cy="391" r="9.7"/><circle class="dot" cx="867" cy="391" r="9.1"/><circle class="dot" cx="901" cy="391" r="11"/><circle class="dot" cx="935" cy="391" r="10.5"/><circle class="dot" cx="969" cy="391" r="10.1"/><circle class="dot" cx="1003" cy="391" r="9.6"/><circle class="dot" cx="1037" cy="391" r="8.9"/><circle class="dot" cx="1071" cy="391" r="8.1"/><circle class="dot" cx="1105" cy="391" r="7.4"/><circle class="dot" cx="1139" cy="391" r="7.2"/><circle class="dot" cx="1173" cy="391" r="8.5"/><circle class="dot" cx="17" cy="425" r="1.7"/><circle class="dot" cx="51" cy="425" r="3.7"/><circle class="dot" cx="85" cy="425" r="3.7"/><circle class="dot" cx="119" cy="425" r="3.9"/><circle class="dot" cx="153" cy="425" r="4.1"/><circle class="dot" cx="187" cy="425" r="4.3"/><circle class="dot" cx="221" cy="425" r="4.4"/><circle class="dot" cx="255" cy="425" r="4.6"/><circle class="dot" cx="289" cy="425" r="4.7"/><circle class="dot" cx="323" cy="425" r="4.7"/><circle class="dot" cx="357" cy="425" r="7.8"/><circle class="dot" cx="391" cy="425" r="7.9"/><circle class="dot" cx="425" cy="425" r="8"/><circle class="dot" cx="459" cy="425" r="8.1"/><circle class="dot" cx="493" cy="425" r="8.1"/><circle class="dot" cx="527" cy="425" r="8.1"/><circle class="dot" cx="561" cy="425" r="8.1"/><circle class="dot" cx="595" cy="425" r="8.1"/><circle class="dot" cx="629" cy="425" r="11.1"/><circle class="dot" cx="663" cy="425" r="10.8"/><circle class="dot" cx="697" cy="425" r="10.5"/><circle class="dot" cx="731" cy="425" r="10.3"/><circle class="dot" cx="765" cy="425" r="10.1"/><circle class="dot" cx="799" cy="425" r="9.9"/><circle class="dot" cx="833" cy="425" r="9.5"/><circle class="dot" cx="867" cy="425" r="9"/><circle class="dot" cx="901" cy="425" r="8.5"/><circle class="dot" cx="935" cy="425" r="10.4"/><circle class="dot" cx="969" cy="425" r="10"/><circle class="dot" cx="1003" cy="425" r="9.5"/><circle class="dot" cx="1037" cy="425" r="8.8"/><circle class="dot" cx="1071" cy="425" r="7.9"/><circle class="dot" cx="1105" cy="425" r="7.1"/><circle class="dot" cx="1139" cy="425" r="6.9"/><circle class="dot" cx="1173" cy="425" r="7"/><circle class="dot" cx="17" cy="459" r="1.3"/><circle class="dot" cx="51" cy="459" r="1.4"/><circle class="dot" cx="85" cy="459" r="3.6"/><circle class="dot" cx="119" cy="459" r="3.8"/><circle class="dot" cx="153" cy="459" r="4"/><circle class="dot" cx="187" cy="459" r="4.2"/><circle class="dot" cx="221" cy="459" r="4.4"/><circle class="dot" cx="255" cy="459" r="4.5"/><circle class="dot" cx="289" cy="459" r="4.6"/><circle class="dot" cx="323" cy="459" r="4.7"/><circle class="dot" cx="357" cy="459" r="7.7"/><circle class="dot" cx="391" cy="459" r="7.8"/><circle class="dot" cx="425" cy="459" r="7.9"/><circle class="dot" cx="459" cy="459" r="7.9"/><circle class="dot" cx="493" cy="459" r="7.9"/><circle class="dot" cx="527" cy="459" r="7.9"/><circle class="dot" cx="561" cy="459" r="7.9"/><circle class="dot" cx="595" cy="459" r="7.8"/><circle class="dot" cx="629" cy="459" r="7.7"/><circle class="dot" cx="663" cy="459" r="10.5"/><circle class="dot" cx="697" cy="459" r="10.2"/><circle class="dot" cx="731" cy="459" r="10"/><circle class="dot" cx="765" cy="459" r="9.8"/><circle class="dot" cx="799" cy="459" r="9.5"/><circle class="dot" cx="833" cy="459" r="9.3"/><circle class="dot" cx="867" cy="459" r="9"/><circle class="dot" cx="901" cy="459" r="8.7"/><circle class="dot" cx="935" cy="459" r="10.5"/><circle class="dot" cx="969" cy="459" r="10"/><circle class="dot" cx="1003" cy="459" r="9.5"/><circle class="dot" cx="1037" cy="459" r="8.6"/><circle class="dot" cx="1071" cy="459" r="7.6"/><circle class="dot" cx="1105" cy="459" r="6.8"/><circle class="dot" cx="1139" cy="459" r="6.6"/><circle class="dot" cx="1173" cy="459" r="6.6"/><circle class="dot" cx="17" cy="493" r="1.4"/><circle class="dot" cx="51" cy="493" r="1.4"/><circle class="dot" cx="85" cy="493" r="1.4"/><circle class="dot" cx="119" cy="493" r="3.6"/><circle class="dot" cx="153" cy="493" r="3.8"/><circle class="dot" cx="187" cy="493" r="4"/><circle class="dot" cx="221" cy="493" r="4.1"/><circle class="dot" cx="255" cy="493" r="4.3"/><circle class="dot" cx="289" cy="493" r="4.5"/><circle class="dot" cx="323" cy="493" r="4.5"/><circle class="dot" cx="357" cy="493" r="4.6"/><circle class="dot" cx="391" cy="493" r="7.5"/><circle class="dot" cx="425" cy="493" r="7.6"/><circle class="dot" cx="459" cy="493" r="7.6"/><circle class="dot" cx="493" cy="493" r="7.6"/><circle class="dot" cx="527" cy="493" r="7.6"/><circle class="dot" cx="561" cy="493" r="7.6"/><circle class="dot" cx="595" cy="493" r="7.5"/><circle class="dot" cx="629" cy="493" r="7.4"/><circle class="dot" cx="663" cy="493" r="10"/><circle class="dot" cx="697" cy="493" r="9.7"/><circle class="dot" cx="731" cy="493" r="9.5"/><circle class="dot" cx="765" cy="493" r="9.4"/><circle class="dot" cx="799" cy="493" r="9.2"/><circle class="dot" cx="833" cy="493" r="8.9"/><circle class="dot" cx="867" cy="493" r="8.6"/><circle class="dot" cx="901" cy="493" r="8.2"/><circle class="dot" cx="935" cy="493" r="7.8"/><circle class="dot" cx="969" cy="493" r="9.3"/><circle class="dot" cx="1003" cy="493" r="8.8"/><circle class="dot" cx="1037" cy="493" r="8.1"/><circle class="dot" cx="1071" cy="493" r="7.2"/><circle class="dot" cx="1105" cy="493" r="6.5"/><circle class="dot" cx="1139" cy="493" r="6.3"/><circle class="dot" cx="1173" cy="493" r="6.5"/><circle class="dot" cx="17" cy="527" r="1.8"/><circle class="dot" cx="51" cy="527" r="1.6"/><circle class="dot" cx="85" cy="527" r="1.4"/><circle class="dot" cx="119" cy="527" r="3.4"/><circle class="dot" cx="153" cy="527" r="3.5"/><circle class="dot" cx="187" cy="527" r="3.5"/><circle class="dot" cx="221" cy="527" r="3.7"/><circle class="dot" cx="255" cy="527" r="4"/><circle class="dot" cx="289" cy="527" r="4.3"/><circle class="dot" cx="323" cy="527" r="4.4"/><circle class="dot" cx="357" cy="527" r="4.4"/><circle class="dot" cx="391" cy="527" r="4.4"/><circle class="dot" cx="425" cy="527" r="7.2"/><circle class="dot" cx="459" cy="527" r="7.3"/><circle class="dot" cx="493" cy="527" r="7.3"/><circle class="dot" cx="527" cy="527" r="7.3"/><circle class="dot" cx="561" cy="527" r="7.1"/><circle class="dot" cx="595" cy="527" r="7"/><circle class="dot" cx="629" cy="527" r="6.9"/><circle class="dot" cx="663" cy="527" r="6.7"/><circle class="dot" cx="697" cy="527" r="9.1"/><circle class="dot" cx="731" cy="527" r="9"/><circle class="dot" cx="765" cy="527" r="9"/><circle class="dot" cx="799" cy="527" r="8.9"/><circle class="dot" cx="833" cy="527" r="8.5"/><circle class="dot" cx="867" cy="527" r="8"/><circle class="dot" cx="901" cy="527" r="7.5"/><circle class="dot" cx="935" cy="527" r="7"/><circle class="dot" cx="969" cy="527" r="8.3"/><circle class="dot" cx="1003" cy="527" r="7.8"/><circle class="dot" cx="1037" cy="527" r="7.2"/><circle class="dot" cx="1071" cy="527" r="6.6"/><circle class="dot" cx="1105" cy="527" r="6.1"/><circle class="dot" cx="1139" cy="527" r="6.1"/><circle class="dot" cx="1173" cy="527" r="6.3"/><circle class="dot" cx="17" cy="561" r="1.8"/><circle class="dot" cx="51" cy="561" r="1.6"/><circle class="dot" cx="85" cy="561" r="1.5"/><circle class="dot" cx="119" cy="561" r="1.5"/><circle class="dot" cx="153" cy="561" r="3.3"/><circle class="dot" cx="187" cy="561" r="3.3"/><circle class="dot" cx="221" cy="561" r="3.5"/><circle class="dot" cx="255" cy="561" r="3.8"/><circle class="dot" cx="289" cy="561" r="4"/><circle class="dot" cx="323" cy="561" r="4.1"/><circle class="dot" cx="357" cy="561" r="4.1"/><circle class="dot" cx="391" cy="561" r="4.2"/><circle class="dot" cx="425" cy="561" r="6.8"/><circle class="dot" cx="459" cy="561" r="6.8"/><circle class="dot" cx="493" cy="561" r="6.8"/><circle class="dot" cx="527" cy="561" r="6.8"/><circle class="dot" cx="561" cy="561" r="6.7"/><circle class="dot" cx="595" cy="561" r="6.6"/><circle class="dot" cx="629" cy="561" r="6.5"/><circle class="dot" cx="663" cy="561" r="6.3"/><circle class="dot" cx="697" cy="561" r="6.1"/><circle class="dot" cx="731" cy="561" r="8.4"/><circle class="dot" cx="765" cy="561" r="8.5"/><circle class="dot" cx="799" cy="561" r="8.4"/><circle class="dot" cx="833" cy="561" r="8"/><circle class="dot" cx="867" cy="561" r="7.5"/><circle class="dot" cx="901" cy="561" r="7"/><circle class="dot" cx="935" cy="561" r="6.6"/><circle class="dot" cx="969" cy="561" r="6.2"/><circle class="dot" cx="1003" cy="561" r="7.4"/><circle class="dot" cx="1037" cy="561" r="6.9"/><circle class="dot" cx="1071" cy="561" r="6.4"/><circle class="dot" cx="1105" cy="561" r="6"/><circle class="dot" cx="1139" cy="561" r="5.9"/><circle class="dot" cx="1173" cy="561" r="6"/><circle class="dot" cx="17" cy="595" r="1.6"/><circle class="dot" cx="51" cy="595" r="1.7"/><circle class="dot" cx="85" cy="595" r="1.8"/><circle class="dot" cx="119" cy="595" r="1.8"/><circle class="dot" cx="153" cy="595" r="1.4"/><circle class="dot" cx="187" cy="595" r="3.1"/><circle class="dot" cx="221" cy="595" r="3.2"/><circle class="dot" cx="255" cy="595" r="3.4"/><circle class="dot" cx="289" cy="595" r="3.5"/><circle class="dot" cx="323" cy="595" r="3.6"/><circle class="dot" cx="357" cy="595" r="3.7"/><circle class="dot" cx="391" cy="595" r="3.8"/><circle class="dot" cx="425" cy="595" r="3.8"/><circle class="dot" cx="459" cy="595" r="6.1"/><circle class="dot" cx="493" cy="595" r="6.1"/><circle class="dot" cx="527" cy="595" r="6.1"/><circle class="dot" cx="561" cy="595" r="6.1"/><circle class="dot" cx="595" cy="595" r="6.1"/><circle class="dot" cx="629" cy="595" r="6"/><circle class="dot" cx="663" cy="595" r="5.8"/><circle class="dot" cx="697" cy="595" r="5.7"/><circle class="dot" cx="731" cy="595" r="7.8"/><circle class="dot" cx="765" cy="595" r="7.9"/><circle class="dot" cx="799" cy="595" r="7.8"/><circle class="dot" cx="833" cy="595" r="7.5"/><circle class="dot" cx="867" cy="595" r="6.9"/><circle class="dot" cx="901" cy="595" r="6.4"/><circle class="dot" cx="935" cy="595" r="6.2"/><circle class="dot" cx="969" cy="595" r="6"/><circle class="dot" cx="1003" cy="595" r="5.7"/><circle class="dot" cx="1037" cy="595" r="6.8"/><circle class="dot" cx="1071" cy="595" r="6.4"/><circle class="dot" cx="1105" cy="595" r="6"/><circle class="dot" cx="1139" cy="595" r="5.8"/><circle class="dot" cx="1173" cy="595" r="5.8"/><circle class="dot" cx="17" cy="629" r="1.3"/><circle class="dot" cx="51" cy="629" r="1.6"/><circle class="dot" cx="85" cy="629" r="1.9"/><circle class="dot" cx="119" cy="629" r="1.9"/><circle class="dot" cx="153" cy="629" r="1.5"/><circle class="dot" cx="187" cy="629" r="3.1"/><circle class="dot" cx="221" cy="629" r="3.2"/><circle class="dot" cx="255" cy="629" r="3.3"/><circle class="dot" cx="289" cy="629" r="3.5"/><circle class="dot" cx="323" cy="629" r="3.5"/><circle class="dot" cx="357" cy="629" r="3.6"/><circle class="dot" cx="391" cy="629" r="3.7"/><circle class="dot" cx="425" cy="629" r="3.7"/><circle class="dot" cx="459" cy="629" r="3.6"/><circle class="dot" cx="493" cy="629" r="5.7"/><circle class="dot" cx="527" cy="629" r="5.7"/><circle class="dot" cx="561" cy="629" r="5.8"/><circle class="dot" cx="595" cy="629" r="5.8"/><circle class="dot" cx="629" cy="629" r="5.6"/><circle class="dot" cx="663" cy="629" r="5.4"/><circle class="dot" cx="697" cy="629" r="5.2"/><circle class="dot" cx="731" cy="629" r="5.2"/><circle class="dot" cx="765" cy="629" r="7.3"/><circle class="dot" cx="799" cy="629" r="7.3"/><circle class="dot" cx="833" cy="629" r="6.9"/><circle class="dot" cx="867" cy="629" r="6.4"/><circle class="dot" cx="901" cy="629" r="6"/><circle class="dot" cx="935" cy="629" r="5.8"/><circle class="dot" cx="969" cy="629" r="5.8"/><circle class="dot" cx="1003" cy="629" r="5.6"/><circle class="dot" cx="1037" cy="629" r="6.5"/><circle class="dot" cx="1071" cy="629" r="6"/><circle class="dot" cx="1105" cy="629" r="5.6"/><circle class="dot" cx="1139" cy="629" r="5.4"/><circle class="dot" cx="1173" cy="629" r="5.5"/><circle class="dot" cx="17" cy="663" r="0.8"/><circle class="dot" cx="51" cy="663" r="1.5"/><circle class="dot" cx="85" cy="663" r="2"/><circle class="dot" cx="119" cy="663" r="2"/><circle class="dot" cx="153" cy="663" r="1.8"/><circle class="dot" cx="187" cy="663" r="1.6"/><circle class="dot" cx="221" cy="663" r="3.3"/><circle class="dot" cx="255" cy="663" r="3.5"/><circle class="dot" cx="289" cy="663" r="3.6"/><circle class="dot" cx="323" cy="663" r="3.7"/><circle class="dot" cx="357" cy="663" r="3.7"/><circle class="dot" cx="391" cy="663" r="3.7"/><circle class="dot" cx="425" cy="663" r="3.6"/><circle class="dot" cx="459" cy="663" r="3.6"/><circle class="dot" cx="493" cy="663" r="5.5"/><circle class="dot" cx="527" cy="663" r="5.5"/><circle class="dot" cx="561" cy="663" r="5.4"/><circle class="dot" cx="595" cy="663" r="5.4"/><circle class="dot" cx="629" cy="663" r="5.2"/><circle class="dot" cx="663" cy="663" r="4.9"/><circle class="dot" cx="697" cy="663" r="4.6"/><circle class="dot" cx="731" cy="663" r="4.7"/><circle class="dot" cx="765" cy="663" r="5"/><circle class="dot" cx="799" cy="663" r="6.8"/><circle class="dot" cx="833" cy="663" r="6.4"/><circle class="dot" cx="867" cy="663" r="6"/><circle class="dot" cx="901" cy="663" r="5.6"/><circle class="dot" cx="935" cy="663" r="5.6"/><circle class="dot" cx="969" cy="663" r="5.6"/><circle class="dot" cx="1003" cy="663" r="5.6"/><circle class="dot" cx="1037" cy="663" r="5.1"/><circle class="dot" cx="1071" cy="663" r="5.6"/><circle class="dot" cx="1105" cy="663" r="5.2"/><circle class="dot" cx="1139" cy="663" r="5.1"/><circle class="dot" cx="1173" cy="663" r="5.2"/><circle class="dot" cx="17" cy="697" r="0.8"/><circle class="dot" cx="51" cy="697" r="1.3"/><circle class="dot" cx="85" cy="697" r="1.7"/><circle class="dot" cx="119" cy="697" r="1.8"/><circle class="dot" cx="153" cy="697" r="1.7"/><circle class="dot" cx="187" cy="697" r="1.6"/><circle class="dot" cx="221" cy="697" r="3.1"/><circle class="dot" cx="255" cy="697" r="3.3"/><circle class="dot" cx="289" cy="697" r="3.4"/><circle class="dot" cx="323" cy="697" r="3.5"/><circle class="dot" cx="357" cy="697" r="3.5"/><circle class="dot" cx="391" cy="697" r="3.5"/><circle class="dot" cx="425" cy="697" r="3.5"/><circle class="dot" cx="459" cy="697" r="3.3"/><circle class="dot" cx="493" cy="697" r="3.1"/><circle class="dot" cx="527" cy="697" r="4.9"/><circle class="dot" cx="561" cy="697" r="4.9"/><circle class="dot" cx="595" cy="697" r="4.8"/><circle class="dot" cx="629" cy="697" r="4.7"/><circle class="dot" cx="663" cy="697" r="4.4"/><circle class="dot" cx="697" cy="697" r="4.2"/><circle class="dot" cx="731" cy="697" r="4.3"/><circle class="dot" cx="765" cy="697" r="4.5"/><circle class="dot" cx="799" cy="697" r="6.1"/><circle class="dot" cx="833" cy="697" r="5.8"/><circle class="dot" cx="867" cy="697" r="5.3"/><circle class="dot" cx="901" cy="697" r="4.9"/><circle class="dot" cx="935" cy="697" r="4.9"/><circle class="dot" cx="969" cy="697" r="5.2"/><circle class="dot" cx="1003" cy="697" r="5.2"/><circle class="dot" cx="1037" cy="697" r="4.7"/><circle class="dot" cx="1071" cy="697" r="4.1"/><circle class="dot" cx="1105" cy="697" r="4.6"/><circle class="dot" cx="1139" cy="697" r="4.6"/><circle class="dot" cx="1173" cy="697" r="4.8"/><circle class="dot" cx="17" cy="731" r="0.9"/><circle class="dot" cx="51" cy="731" r="1.1"/><circle class="dot" cx="85" cy="731" r="1.3"/><circle class="dot" cx="119" cy="731" r="1.4"/><circle class="dot" cx="153" cy="731" r="1.5"/><circle class="dot" cx="187" cy="731" r="1.6"/><circle class="dot" cx="221" cy="731" r="1.6"/><circle class="dot" cx="255" cy="731" r="3.1"/><circle class="dot" cx="289" cy="731" r="3.2"/><circle class="dot" cx="323" cy="731" r="3.2"/><circle class="dot" cx="357" cy="731" r="3.4"/><circle class="dot" cx="391" cy="731" r="3.4"/><circle class="dot" cx="425" cy="731" r="3.3"/><circle class="dot" cx="459" cy="731" r="3"/><circle class="dot" cx="493" cy="731" r="2.7"/><circle class="dot" cx="527" cy="731" r="2.7"/><circle class="dot" cx="561" cy="731" r="4.2"/><circle class="dot" cx="595" cy="731" r="4.2"/><circle class="dot" cx="629" cy="731" r="4.1"/><circle class="dot" cx="663" cy="731" r="3.9"/><circle class="dot" cx="697" cy="731" r="3.8"/><circle class="dot" cx="731" cy="731" r="3.8"/><circle class="dot" cx="765" cy="731" r="4.1"/><circle class="dot" cx="799" cy="731" r="4.2"/><circle class="dot" cx="833" cy="731" r="5.1"/><circle class="dot" cx="867" cy="731" r="4.5"/><circle class="dot" cx="901" cy="731" r="4.1"/><circle class="dot" cx="935" cy="731" r="4.3"/><circle class="dot" cx="969" cy="731" r="4.7"/><circle class="dot" cx="1003" cy="731" r="4.9"/><circle class="dot" cx="1037" cy="731" r="4.4"/><circle class="dot" cx="1071" cy="731" r="3.6"/><circle class="dot" cx="1105" cy="731" r="4"/><circle class="dot" cx="1139" cy="731" r="4.2"/><circle class="dot" cx="1173" cy="731" r="4.5"/><circle class="dot" cx="17" cy="765" r="1.2"/><circle class="dot" cx="51" cy="765" r="1.3"/><circle class="dot" cx="85" cy="765" r="1.4"/><circle class="dot" cx="119" cy="765" r="1.4"/><circle class="dot" cx="153" cy="765" r="1.6"/><circle class="dot" cx="187" cy="765" r="1.7"/><circle class="dot" cx="221" cy="765" r="1.7"/><circle class="dot" cx="255" cy="765" r="1.6"/><circle class="dot" cx="289" cy="765" r="2.8"/><circle class="dot" cx="323" cy="765" r="2.8"/><circle class="dot" cx="357" cy="765" r="2.9"/><circle class="dot" cx="391" cy="765" r="2.9"/><circle class="dot" cx="425" cy="765" r="2.9"/><circle class="dot" cx="459" cy="765" r="2.6"/><circle class="dot" cx="493" cy="765" r="2.5"/><circle class="dot" cx="527" cy="765" r="2.4"/><circle class="dot" cx="561" cy="765" r="3.7"/><circle class="dot" cx="595" cy="765" r="3.6"/><circle class="dot" cx="629" cy="765" r="3.6"/><circle class="dot" cx="663" cy="765" r="3.7"/><circle class="dot" cx="697" cy="765" r="3.6"/><circle class="dot" cx="731" cy="765" r="3.7"/><circle class="dot" cx="765" cy="765" r="4"/><circle class="dot" cx="799" cy="765" r="4.1"/><circle class="dot" cx="833" cy="765" r="3.9"/><circle class="dot" cx="867" cy="765" r="4.5"/><circle class="dot" cx="901" cy="765" r="4.2"/><circle class="dot" cx="935" cy="765" r="4.2"/><circle class="dot" cx="969" cy="765" r="4.3"/><circle class="dot" cx="1003" cy="765" r="4.3"/><circle class="dot" cx="1037" cy="765" r="3.9"/><circle class="dot" cx="1071" cy="765" r="3.4"/><circle class="dot" cx="1105" cy="765" r="3.1"/><circle class="dot" cx="1139" cy="765" r="4"/><circle class="dot" cx="1173" cy="765" r="4.3"/><circle class="dot" cx="17" cy="799" r="1.6"/><circle class="dot" cx="51" cy="799" r="1.5"/><circle class="dot" cx="85" cy="799" r="1.4"/><circle class="dot" cx="119" cy="799" r="1.5"/><circle class="dot" cx="153" cy="799" r="1.7"/><circle class="dot" cx="187" cy="799" r="1.9"/><circle class="dot" cx="221" cy="799" r="1.8"/><circle class="dot" cx="255" cy="799" r="1.5"/><circle class="dot" cx="289" cy="799" r="2.3"/><circle class="dot" cx="323" cy="799" r="2.3"/><circle class="dot" cx="357" cy="799" r="2.3"/><circle class="dot" cx="391" cy="799" r="2.2"/><circle class="dot" cx="425" cy="799" r="2.3"/><circle class="dot" cx="459" cy="799" r="2.3"/><circle class="dot" cx="493" cy="799" r="2.3"/><circle class="dot" cx="527" cy="799" r="2.2"/><circle class="dot" cx="561" cy="799" r="2.1"/><circle class="dot" cx="595" cy="799" r="3.1"/><circle class="dot" cx="629" cy="799" r="3.2"/><circle class="dot" cx="663" cy="799" r="3.5"/><circle class="dot" cx="697" cy="799" r="3.6"/><circle class="dot" cx="731" cy="799" r="3.7"/><circle class="dot" cx="765" cy="799" r="4"/><circle class="dot" cx="799" cy="799" r="4.2"/><circle class="dot" cx="833" cy="799" r="4"/><circle class="dot" cx="867" cy="799" r="4.7"/><circle class="dot" cx="901" cy="799" r="4.5"/><circle class="dot" cx="935" cy="799" r="4.3"/><circle class="dot" cx="969" cy="799" r="3.9"/><circle class="dot" cx="1003" cy="799" r="3.7"/><circle class="dot" cx="1037" cy="799" r="3.5"/><circle class="dot" cx="1071" cy="799" r="3.2"/><circle class="dot" cx="1105" cy="799" r="3.1"/><circle class="dot" cx="1139" cy="799" r="3.2"/><circle class="dot" cx="1173" cy="799" r="4.2"/></svg>