<svg xmlns="http://www.w3.org/2000/svg" viewBox="0 0 1200 800" preserveAspectRatio="xMidYMid slice" role="img" aria-label="Abstract teal resolution field"><style>svg{--cv0:#f8f3ee;--cv1:#d6ddd6;--cv2:#a4bbb2;--cv3:#779e93;--cv4:#5e8c7d;--cv5:#4f8375}@media (prefers-color-scheme:dark){svg{--cv0:#1a2520;--cv1:#2c3e38;--cv2:#456057;--cv3:#5e8278;--cv4:#7aa297;--cv5:#a4c6b9}}.c0{fill:var(--cv0)}.c1{fill:var(--cv1)}.c2{fill:var(--cv2)}.c3{fill:var(--cv3)}.c4{fill:var(--cv4)}.c5{fill:var(--cv5)}</style><defs><filter id="g"><feTurbulence type="fractalNoise" baseFrequency="0.9" numOctaves="2" stitchTiles="stitch"/><feColorMatrix type="matrix" values="0 0 0 0 0  0 0 0 0 0  0 0 0 0 0  0 0 0 0.5 0"/></filter></defs><rect class="c0" x="0" y="0" width="1200" height="800"/><rect class="c1" x="0" y="0" width="140" height="10"/><rect class="c1" x="210" y="0" width="90" height="10"/><rect class="c2" x="300" y="0" width="10" height="10"/><rect class="c1" x="310" y="0" width="190" height="10"/><rect class="c1" x="550" y="0" width="300" height="10"/><rect class="c1" x="1080" y="0" width="60" height="10"/><rect class="c1" x="1170" y="0" width="20" height="10"/><rect class="c1" x="0" y="10" width="140" height="10"/><rect class="c1" x="210" y="10" width="290" height="10"/><rect class="c1" x="550" y="10" width="300" height="10"/><rect class="c1" x="1080" y="10" width="60" height="10"/><rect class="c1" x="1190" y="10" width="10" height="10"/><rect class="c1" x="0" y="20" width="140" height="10"/><rect class="c1" x="210" y="20" width="20" height="10"/><rect class="c1" x="240" y="20" width="260" height="10"/><rect class="c1" x="550" y="20" width="300" height="10"/><rect class="c1" x="1080" y="20" width="60" height="10"/><rect class="c1" x="0" y="30" width="140" height="10"/><rect class="c1" x="240" y="30" width="260" height="10"/><rect class="c1" x="550" y="30" width="300" height="10"/><rect class="c1" x="1050" y="30" width="20" height="10"/><rect class="c1" x="1080" y="30" width="60" height="10"/><rect class="c1" x="0" y="40" width="140" height="10"/><rect class="c1" x="240" y="40" width="240" height="10"/><rect class="c1" x="550" y="40" width="330" height="10"/><rect class="c1" x="1050" y="40" width="90" height="10"/><rect class="c1" x="0" y="50" width="140" height="10"/><rect class="c1" x="240" y="50" width="710" height="10"/><rect class="c1" x="1050" y="50" width="90" height="10"/><rect class="c1" x="0" y="60" width="140" height="10"/><rect class="c1" x="170" y="60" width="10" height="10"/><rect class="c1" x="240" y="60" width="680" height="10"/><rect class="c1" x="1050" y="60" width="90" height="10"/><rect class="c1" x="0" y="70" width="180" height="10"/><rect class="c1" x="240" y="70" width="680" height="10"/><rect class="c1" x="1050" y="70" width="90" height="10"/><rect class="c1" x="0" y="80" width="180" height="10"/><rect class="c1" x="240" y="80" width="760" height="10"/><rect class="c1" x="1050" y="80" width="100" height="10"/><rect class="c1" x="0" y="90" width="180" height="10"/><rect class="c1" x="240" y="90" width="790" height="10"/><rect class="c1" x="1050" y="90" width="100" height="10"/><rect class="c1" x="0" y="100" width="180" height="10"/><rect class="c1" x="240" y="100" width="20" height="10"/><rect class="c1" x="350" y="100" width="840" height="10"/><rect class="c1" x="0" y="110" width="180" height="10"/><rect class="c1" x="240" y="110" width="10" height="10"/><rect class="c1" x="350" y="110" width="850" height="10"/><rect class="c1" x="0" y="120" width="180" height="10"/><rect class="c1" x="350" y="120" width="850" height="10"/><rect class="c1" x="0" y="130" width="180" height="10"/><rect class="c1" x="360" y="130" width="840" height="10"/><rect class="c1" x="0" y="140" width="180" height="10"/><rect class="c1" x="360" y="140" width="330" height="10"/><rect class="c2" x="690" y="140" width="30" height="10"/><rect class="c1" x="720" y="140" width="480" height="10"/><rect class="c1" x="0" y="150" width="180" height="10"/><rect class="c1" x="250" y="150" width="80" height="10"/><rect class="c1" x="360" y="150" width="190" height="10"/><rect class="c2" x="550" y="150" width="410" height="10"/><rect class="c1" x="960" y="150" width="240" height="10"/><rect class="c1" x="0" y="160" width="180" height="10"/><rect class="c1" x="250" y="160" width="290" height="10"/><rect class="c2" x="540" y="160" width="390" height="10"/><rect class="c1" x="930" y="160" width="20" height="10"/><rect class="c2" x="950" y="160" width="10" height="10"/><rect class="c1" x="960" y="160" width="240" height="10"/><rect class="c1" x="0" y="170" width="180" height="10"/><rect class="c1" x="250" y="170" width="290" height="10"/><rect class="c2" x="540" y="170" width="390" height="10"/><rect class="c1" x="930" y="170" width="270" height="10"/><rect class="c1" x="0" y="180" width="180" height="10"/><rect class="c1" x="250" y="180" width="200" height="10"/><rect class="c2" x="450" y="180" width="570" height="10"/><rect class="c1" x="1020" y="180" width="180" height="10"/><rect class="c1" x="0" y="190" width="170" height="10"/><rect class="c1" x="250" y="190" width="200" height="10"/><rect class="c2" x="450" y="190" width="570" height="10"/><rect class="c1" x="1020" y="190" width="180" height="10"/><rect class="c1" x="0" y="200" width="170" height="10"/><rect class="c1" x="200" y="200" width="30" height="10"/><rect class="c1" x="250" y="200" width="200" height="10"/><rect class="c2" x="450" y="200" width="190" height="10"/><rect class="c3" x="640" y="200" width="180" height="10"/><rect class="c2" x="820" y="200" width="200" height="10"/><rect class="c1" x="1020" y="200" width="180" height="10"/><rect class="c1" x="0" y="210" width="160" height="10"/><rect class="c1" x="200" y="210" width="20" height="10"/><rect class="c1" x="250" y="210" width="190" height="10"/><rect class="c2" x="440" y="210" width="190" height="10"/><rect class="c3" x="630" y="210" width="190" height="10"/><rect class="c2" x="820" y="210" width="200" height="10"/><rect class="c1" x="1020" y="210" width="180" height="10"/><rect class="c1" x="0" y="220" width="150" height="10"/><rect class="c1" x="200" y="220" width="20" height="10"/><rect class="c1" x="250" y="220" width="180" height="10"/><rect class="c2" x="430" y="220" width="130" height="10"/><rect class="c3" x="560" y="220" width="320" height="10"/><rect class="c2" x="880" y="220" width="140" height="10"/><rect class="c1" x="1020" y="220" width="180" height="10"/><rect class="c1" x="0" y="230" width="150" height="10"/><rect class="c1" x="200" y="230" width="10" height="10"/><rect class="c1" x="250" y="230" width="170" height="10"/><rect class="c2" x="420" y="230" width="140" height="10"/><rect class="c3" x="560" y="230" width="320" height="10"/><rect class="c2" x="880" y="230" width="140" height="10"/><rect class="c1" x="1020" y="230" width="180" height="10"/><rect class="c1" x="0" y="240" width="30" height="10"/><rect class="c1" x="60" y="240" width="90" height="10"/><rect class="c1" x="200" y="240" width="10" height="10"/><rect class="c1" x="250" y="240" width="170" height="10"/><rect class="c2" x="420" y="240" width="120" height="10"/><rect class="c3" x="540" y="240" width="140" height="10"/><rect class="c4" x="680" y="240" width="100" height="10"/><rect class="c3" x="780" y="240" width="140" height="10"/><rect class="c2" x="920" y="240" width="100" height="10"/><rect class="c1" x="1020" y="240" width="180" height="10"/><rect class="c1" x="0" y="250" width="30" height="10"/><rect class="c1" x="60" y="250" width="360" height="10"/><rect class="c2" x="420" y="250" width="120" height="10"/><rect class="c3" x="540" y="250" width="120" height="10"/><rect class="c4" x="660" y="250" width="120" height="10"/><rect class="c3" x="780" y="250" width="140" height="10"/><rect class="c2" x="920" y="250" width="100" height="10"/><rect class="c1" x="1020" y="250" width="180" height="10"/><rect class="c1" x="0" y="260" width="20" height="10"/><rect class="c1" x="60" y="260" width="360" height="10"/><rect class="c2" x="420" y="260" width="100" height="10"/><rect class="c3" x="520" y="260" width="80" height="10"/><rect class="c4" x="600" y="260" width="240" height="10"/><rect class="c3" x="840" y="260" width="100" height="10"/><rect class="c2" x="940" y="260" width="80" height="10"/><rect class="c1" x="1020" y="260" width="180" height="10"/><rect class="c1" x="0" y="270" width="20" height="10"/><rect class="c1" x="60" y="270" width="360" height="10"/><rect class="c2" x="420" y="270" width="100" height="10"/><rect class="c3" x="520" y="270" width="80" height="10"/><rect class="c4" x="600" y="270" width="240" height="10"/><rect class="c3" x="840" y="270" width="100" height="10"/><rect class="c2" x="940" y="270" width="120" height="10"/><rect class="c1" x="1060" y="270" width="140" height="10"/><rect class="c1" x="60" y="280" width="360" height="10"/><rect class="c2" x="420" y="280" width="80" height="10"/><rect class="c3" x="500" y="280" width="80" height="10"/><rect class="c4" x="580" y="280" width="280" height="10"/><rect class="c3" x="860" y="280" width="100" height="10"/><rect class="c2" x="960" y="280" width="100" height="10"/><rect class="c1" x="1060" y="280" width="140" height="10"/><rect class="c1" x="60" y="290" width="360" height="10"/><rect class="c2" x="420" y="290" width="80" height="10"/><rect class="c3" x="500" y="290" width="80" height="10"/><rect class="c4" x="580" y="290" width="280" height="10"/><rect class="c3" x="860" y="290" width="100" height="10"/><rect class="c2" x="960" y="290" width="110" height="10"/><rect class="c1" x="1070" y="290" width="130" height="10"/><rect class="c1" x="150" y="300" width="250" height="10"/><rect class="c2" x="400" y="300" width="80" height="10"/><rect class="c3" x="480" y="300" width="80" height="10"/><rect class="c4" x="560" y="300" width="130" height="10"/><rect class="c5" x="690" y="300" width="60" height="10"/><rect class="c4" x="750" y="300" width="130" height="10"/><rect class="c3" x="880" y="300" width="90" height="10"/><rect class="c2" x="970" y="300" width="140" height="10"/><rect class="c1" x="1110" y="300" width="90" height="10"/><rect class="c1" x="150" y="310" width="250" height="10"/><rect class="c2" x="400" y="310" width="80" height="10"/><rect class="c3" x="480" y="310" width="80" height="10"/><rect class="c4" x="560" y="310" width="100" height="10"/><rect class="c5" x="660" y="310" width="120" height="10"/><rect class="c4" x="780" y="310" width="100" height="10"/><rect class="c3" x="880" y="310" width="100" height="10"/><rect class="c2" x="980" y="310" width="130" height="10"/><rect class="c1" x="1110" y="310" width="90" height="10"/><rect class="c1" x="150" y="320" width="240" height="10"/><rect class="c2" x="390" y="320" width="90" height="10"/><rect class="c3" x="480" y="320" width="70" height="10"/><rect class="c4" x="550" y="320" width="100" height="10"/><rect class="c5" x="650" y="320" width="150" height="10"/><rect class="c4" x="800" y="320" width="100" height="10"/><rect class="c3" x="900" y="320" width="80" height="10"/><rect class="c2" x="980" y="320" width="130" height="10"/><rect class="c1" x="1110" y="320" width="90" height="10"/><rect class="c1" x="150" y="330" width="240" height="10"/><rect class="c2" x="390" y="330" width="90" height="10"/><rect class="c3" x="480" y="330" width="70" height="10"/><rect class="c4" x="550" y="330" width="90" height="10"/><rect class="c5" x="640" y="330" width="170" height="10"/><rect class="c4" x="810" y="330" width="90" height="10"/><rect class="c3" x="900" y="330" width="80" height="10"/><rect class="c2" x="980" y="330" width="130" height="10"/><rect class="c1" x="1110" y="330" width="90" height="10"/><rect class="c1" x="150" y="340" width="240" height="10"/><rect class="c2" x="390" y="340" width="80" height="10"/><rect class="c3" x="470" y="340" width="70" height="10"/><rect class="c4" x="540" y="340" width="90" height="10"/><rect class="c5" x="630" y="340" width="180" height="10"/><rect class="c4" x="810" y="340" width="90" height="10"/><rect class="c3" x="900" y="340" width="80" height="10"/><rect class="c2" x="980" y="340" width="130" height="10"/><rect class="c1" x="1110" y="340" width="90" height="10"/><rect class="c1" x="0" y="350" width="10" height="10"/><rect class="c1" x="150" y="350" width="240" height="10"/><rect class="c2" x="390" y="350" width="80" height="10"/><rect class="c3" x="470" y="350" width="70" height="10"/><rect class="c4" x="540" y="350" width="90" height="10"/><rect class="c5" x="630" y="350" width="190" height="10"/><rect class="c4" x="820" y="350" width="80" height="10"/><rect class="c3" x="900" y="350" width="80" height="10"/><rect class="c2" x="980" y="350" width="130" height="10"/><rect class="c1" x="1110" y="350" width="90" height="10"/><rect class="c1" x="0" y="360" width="60" height="10"/><rect class="c1" x="150" y="360" width="210" height="10"/><rect class="c2" x="360" y="360" width="100" height="10"/><rect class="c3" x="460" y="360" width="80" height="10"/><rect class="c4" x="540" y="360" width="90" height="10"/><rect class="c5" x="630" y="360" width="190" height="10"/><rect class="c4" x="820" y="360" width="80" height="10"/><rect class="c3" x="900" y="360" width="80" height="10"/><rect class="c2" x="980" y="360" width="100" height="10"/><rect class="c1" x="1080" y="360" width="120" height="10"/><rect class="c1" x="0" y="370" width="60" height="10"/><rect class="c1" x="150" y="370" width="210" height="10"/><rect class="c2" x="360" y="370" width="100" height="10"/><rect class="c3" x="460" y="370" width="80" height="10"/><rect class="c4" x="540" y="370" width="90" height="10"/><rect class="c5" x="630" y="370" width="190" height="10"/><rect class="c4" x="820" y="370" width="80" height="10"/><rect class="c3" x="900" y="370" width="80" height="10"/><rect class="c2" x="980" y="370" width="100" height="10"/><rect class="c1" x="1080" y="370" width="120" height="10"/><rect class="c1" x="0" y="380" width="60" height="10"/><rect class="c1" x="150" y="380" width="210" height="10"/><rect class="c2" x="360" y="380" width="100" height="10"/><rect class="c3" x="460" y="380" width="80" height="10"/><rect class="c4" x="540" y="380" width="90" height="10"/><rect class="c5" x="630" y="380" width="190" height="10"/><rect class="c4" x="820" y="380" width="80" height="10"/><rect class="c3" x="900" y="380" width="80" height="10"/><rect class="c2" x="980" y="380" width="100" height="10"/><rect class="c1" x="1080" y="380" width="120" height="10"/><rect class="c1" x="0" y="390" width="60" height="10"/><rect class="c1" x="150" y="390" width="210" height="10"/><rect class="c2" x="360" y="390" width="100" height="10"/><rect class="c3" x="460" y="390" width="80" height="10"/><rect class="c4" x="540" y="390" width="90" height="10"/><rect class="c5" x="630" y="390" width="180" height="10"/><rect class="c4" x="810" y="390" width="90" height="10"/><rect class="c3" x="900" y="390" width="80" height="10"/><rect class="c2" x="980" y="390" width="70" height="10"/><rect class="c1" x="1050" y="390" width="150" height="10"/><rect class="c1" x="0" y="400" width="60" height="10"/><rect class="c1" x="150" y="400" width="210" height="10"/><rect class="c2" x="360" y="400" width="120" height="10"/><rect class="c3" x="480" y="400" width="80" height="10"/><rect class="c4" x="560" y="400" width="80" height="10"/><rect class="c5" x="640" y="400" width="170" height="10"/><rect class="c4" x="810" y="400" width="90" height="10"/><rect class="c3" x="900" y="400" width="60" height="10"/><rect class="c2" x="960" y="400" width="90" height="10"/><rect class="c1" x="1050" y="400" width="150" height="10"/><rect class="c1" x="0" y="410" width="60" height="10"/><rect class="c1" x="150" y="410" width="210" height="10"/><rect class="c2" x="360" y="410" width="120" height="10"/><rect class="c3" x="480" y="410" width="80" height="10"/><rect class="c4" x="560" y="410" width="90" height="10"/><rect class="c5" x="650" y="410" width="140" height="10"/><rect class="c4" x="790" y="410" width="110" height="10"/><rect class="c3" x="900" y="410" width="60" height="10"/><rect class="c2" x="960" y="410" width="90" height="10"/><rect class="c1" x="1050" y="410" width="150" height="10"/><rect class="c1" x="0" y="420" width="60" height="10"/><rect class="c1" x="150" y="420" width="240" height="10"/><rect class="c2" x="390" y="420" width="90" height="10"/><rect class="c3" x="480" y="420" width="80" height="10"/><rect class="c4" x="560" y="420" width="110" height="10"/><rect class="c5" x="670" y="420" width="100" height="10"/><rect class="c4" x="770" y="420" width="110" height="10"/><rect class="c3" x="880" y="420" width="80" height="10"/><rect class="c2" x="960" y="420" width="90" height="10"/><rect class="c1" x="1050" y="420" width="150" height="10"/><rect class="c1" x="0" y="430" width="60" height="10"/><rect class="c1" x="150" y="430" width="240" height="10"/><rect class="c2" x="390" y="430" width="90" height="10"/><rect class="c3" x="480" y="430" width="80" height="10"/><rect class="c4" x="560" y="430" width="160" height="10"/><rect class="c5" x="720" y="430" width="10" height="10"/><rect class="c4" x="730" y="430" width="150" height="10"/><rect class="c3" x="880" y="430" width="80" height="10"/><rect class="c2" x="960" y="430" width="90" height="10"/><rect class="c1" x="1050" y="430" width="150" height="10"/><rect class="c1" x="0" y="440" width="60" height="10"/><rect class="c1" x="120" y="440" width="10" height="10"/><rect class="c1" x="150" y="440" width="240" height="10"/><rect class="c2" x="390" y="440" width="90" height="10"/><rect class="c3" x="480" y="440" width="100" height="10"/><rect class="c4" x="580" y="440" width="280" height="10"/><rect class="c3" x="860" y="440" width="80" height="10"/><rect class="c2" x="940" y="440" width="110" height="10"/><rect class="c1" x="1050" y="440" width="150" height="10"/><rect class="c1" x="0" y="450" width="60" height="10"/><rect class="c1" x="120" y="450" width="10" height="10"/><rect class="c1" x="150" y="450" width="270" height="10"/><rect class="c2" x="420" y="450" width="70" height="10"/><rect class="c3" x="490" y="450" width="90" height="10"/><rect class="c4" x="580" y="450" width="280" height="10"/><rect class="c3" x="860" y="450" width="80" height="10"/><rect class="c2" x="940" y="450" width="110" height="10"/><rect class="c1" x="1050" y="450" width="150" height="10"/><rect class="c1" x="0" y="460" width="60" height="10"/><rect class="c1" x="120" y="460" width="10" height="10"/><rect class="c1" x="150" y="460" width="270" height="10"/><rect class="c2" x="420" y="460" width="80" height="10"/><rect class="c3" x="500" y="460" width="120" height="10"/><rect class="c4" x="620" y="460" width="200" height="10"/><rect class="c3" x="820" y="460" width="100" height="10"/><rect class="c2" x="920" y="460" width="130" height="10"/><rect class="c1" x="1050" y="460" width="150" height="10"/><rect class="c1" x="0" y="470" width="60" height="10"/><rect class="c1" x="120" y="470" width="20" height="10"/><rect class="c1" x="150" y="470" width="270" height="10"/><rect class="c2" x="420" y="470" width="80" height="10"/><rect class="c3" x="500" y="470" width="120" height="10"/><rect class="c4" x="620" y="470" width="200" height="10"/><rect class="c3" x="820" y="470" width="100" height="10"/><rect class="c2" x="920" y="470" width="130" height="10"/><rect class="c1" x="1050" y="470" width="150" height="10"/><rect class="c1" x="0" y="480" width="140" height="10"/><rect class="c1" x="150" y="480" width="280" height="10"/><rect class="c2" x="430" y="480" width="110" height="10"/><rect class="c3" x="540" y="480" width="140" height="10"/><rect class="c4" x="680" y="480" width="80" height="10"/><rect class="c3" x="760" y="480" width="140" height="10"/><rect class="c2" x="900" y="480" width="120" height="10"/><rect class="c1" x="1020" y="480" width="180" height="10"/><rect class="c1" x="0" y="490" width="140" height="10"/><rect class="c1" x="150" y="490" width="290" height="10"/><rect class="c2" x="440" y="490" width="100" height="10"/><rect class="c3" x="540" y="490" width="140" height="10"/><rect class="c4" x="680" y="490" width="60" height="10"/><rect class="c3" x="740" y="490" width="160" height="10"/><rect class="c2" x="900" y="490" width="120" height="10"/><rect class="c1" x="1020" y="490" width="180" height="10"/><rect class="c1" x="0" y="500" width="450" height="10"/><rect class="c2" x="450" y="500" width="130" height="10"/><rect class="c3" x="580" y="500" width="280" height="10"/><rect class="c2" x="860" y="500" width="160" height="10"/><rect class="c1" x="1020" y="500" width="180" height="10"/><rect class="c1" x="0" y="510" width="480" height="10"/><rect class="c2" x="480" y="510" width="100" height="10"/><rect class="c3" x="580" y="510" width="280" height="10"/><rect class="c2" x="860" y="510" width="130" height="10"/><rect class="c1" x="990" y="510" width="210" height="10"/><rect class="c1" x="0" y="520" width="480" height="10"/><rect class="c2" x="480" y="520" width="160" height="10"/><rect class="c3" x="640" y="520" width="160" height="10"/><rect class="c2" x="800" y="520" width="190" height="10"/><rect class="c1" x="990" y="520" width="210" height="10"/><rect class="c1" x="0" y="530" width="480" height="10"/><rect class="c2" x="480" y="530" width="160" height="10"/><rect class="c3" x="640" y="530" width="140" height="10"/><rect class="c2" x="780" y="530" width="210" height="10"/><rect class="c1" x="990" y="530" width="210" height="10"/><rect class="c1" x="0" y="540" width="530" height="10"/><rect class="c2" x="530" y="540" width="400" height="10"/><rect class="c1" x="930" y="540" width="270" height="10"/><rect class="c1" x="0" y="550" width="180" height="10"/><rect class="c1" x="250" y="550" width="290" height="10"/><rect class="c2" x="540" y="550" width="390" height="10"/><rect class="c1" x="930" y="550" width="220" height="10"/><rect class="c1" x="0" y="560" width="180" height="10"/><rect class="c1" x="250" y="560" width="290" height="10"/><rect class="c2" x="540" y="560" width="390" height="10"/><rect class="c1" x="930" y="560" width="220" height="10"/><rect class="c1" x="0" y="570" width="180" height="10"/><rect class="c1" x="250" y="570" width="350" height="10"/><rect class="c2" x="600" y="570" width="270" height="10"/><rect class="c1" x="870" y="570" width="280" height="10"/><rect class="c1" x="0" y="580" width="180" height="10"/><rect class="c1" x="250" y="580" width="350" height="10"/><rect class="c2" x="600" y="580" width="270" height="10"/><rect class="c1" x="870" y="580" width="280" height="10"/><rect class="c1" x="0" y="590" width="180" height="10"/><rect class="c1" x="250" y="590" width="350" height="10"/><rect class="c2" x="600" y="590" width="270" height="10"/><rect class="c1" x="870" y="590" width="280" height="10"/><rect class="c1" x="0" y="600" width="180" height="10"/><rect class="c1" x="350" y="600" width="310" height="10"/><rect class="c2" x="660" y="600" width="150" height="10"/><rect class="c1" x="810" y="600" width="290" height="10"/><rect class="c1" x="1130" y="600" width="20" height="10"/><rect class="c1" x="0" y="610" width="180" height="10"/><rect class="c1" x="350" y="610" width="310" height="10"/><rect class="c2" x="660" y="610" width="150" height="10"/><rect class="c1" x="810" y="610" width="290" height="10"/><rect class="c1" x="1110" y="610" width="40" height="10"/><rect class="c1" x="0" y="620" width="180" height="10"/><rect class="c1" x="350" y="620" width="310" height="10"/><rect class="c2" x="660" y="620" width="150" height="10"/><rect class="c1" x="810" y="620" width="340" height="10"/><rect class="c1" x="0" y="630" width="70" height="10"/><rect class="c2" x="70" y="630" width="50" height="10"/><rect class="c1" x="120" y="630" width="60" height="10"/><rect class="c1" x="350" y="630" width="800" height="10"/><rect class="c1" x="0" y="640" width="70" height="10"/><rect class="c2" x="70" y="640" width="60" height="10"/><rect class="c1" x="130" y="640" width="60" height="10"/><rect class="c1" x="350" y="640" width="800" height="10"/><rect class="c1" x="0" y="650" width="70" height="10"/><rect class="c2" x="70" y="650" width="70" height="10"/><rect class="c1" x="140" y="650" width="60" height="10"/><rect class="c1" x="400" y="650" width="650" height="10"/><rect class="c1" x="0" y="660" width="70" height="10"/><rect class="c2" x="70" y="660" width="70" height="10"/><rect class="c1" x="140" y="660" width="100" height="10"/><rect class="c1" x="400" y="660" width="650" height="10"/><rect class="c1" x="1160" y="660" width="40" height="10"/><rect class="c1" x="0" y="670" width="70" height="10"/><rect class="c2" x="70" y="670" width="70" height="10"/><rect class="c1" x="140" y="670" width="100" height="10"/><rect class="c1" x="400" y="670" width="480" height="10"/><rect class="c1" x="920" y="670" width="20" height="10"/><rect class="c1" x="950" y="670" width="100" height="10"/><rect class="c1" x="1150" y="670" width="50" height="10"/><rect class="c1" x="0" y="680" width="70" height="10"/><rect class="c2" x="70" y="680" width="70" height="10"/><rect class="c1" x="140" y="680" width="100" height="10"/><rect class="c1" x="400" y="680" width="480" height="10"/><rect class="c1" x="950" y="680" width="100" height="10"/><rect class="c1" x="1140" y="680" width="60" height="10"/><rect class="c1" x="0" y="690" width="70" height="10"/><rect class="c2" x="70" y="690" width="70" height="10"/><rect class="c1" x="140" y="690" width="100" height="10"/><rect class="c1" x="400" y="690" width="500" height="10"/><rect class="c1" x="950" y="690" width="100" height="10"/><rect class="c1" x="1140" y="690" width="60" height="10"/><rect class="c1" x="0" y="700" width="70" height="10"/><rect class="c2" x="70" y="700" width="10" height="10"/><rect class="c1" x="80" y="700" width="160" height="10"/><rect class="c1" x="360" y="700" width="490" height="10"/><rect class="c1" x="950" y="700" width="130" height="10"/><rect class="c1" x="1140" y="700" width="60" height="10"/><rect class="c1" x="0" y="710" width="70" height="10"/><rect class="c2" x="70" y="710" width="20" height="10"/><rect class="c1" x="90" y="710" width="150" height="10"/><rect class="c1" x="360" y="710" width="290" height="10"/><rect class="c1" x="750" y="710" width="100" height="10"/><rect class="c1" x="950" y="710" width="130" height="10"/><rect class="c1" x="1140" y="710" width="60" height="10"/><rect class="c1" x="0" y="720" width="70" height="10"/><rect class="c2" x="70" y="720" width="30" height="10"/><rect class="c1" x="100" y="720" width="550" height="10"/><rect class="c1" x="750" y="720" width="100" height="10"/><rect class="c1" x="950" y="720" width="190" height="10"/><rect class="c1" x="0" y="730" width="70" height="10"/><rect class="c2" x="70" y="730" width="50" height="10"/><rect class="c1" x="120" y="730" width="530" height="10"/><rect class="c1" x="750" y="730" width="100" height="10"/><rect class="c1" x="950" y="730" width="190" height="10"/><rect class="c1" x="0" y="740" width="80" height="10"/><rect class="c2" x="80" y="740" width="50" height="10"/><rect class="c1" x="130" y="740" width="520" height="10"/><rect class="c1" x="750" y="740" width="100" height="10"/><rect class="c1" x="950" y="740" width="190" height="10"/><rect class="c1" x="0" y="750" width="100" height="10"/><rect class="c2" x="100" y="750" width="40" height="10"/><rect class="c1" x="140" y="750" width="510" height="10"/><rect class="c1" x="750" y="750" width="390" height="10"/><rect class="c1" x="1180" y="750" width="10" height="10"/><rect class="c1" x="0" y="760" width="110" height="10"/><rect class="c2" x="110" y="760" width="30" height="10"/><rect class="c1" x="140" y="760" width="510" height="10"/><rect class="c1" x="750" y="760" width="370" height="10"/><rect class="c1" x="1170" y="760" width="20" height="10"/><rect class="c1" x="0" y="770" width="660" height="10"/><rect class="c1" x="780" y="770" width="410" height="10"/><rect class="c2" x="1190" y="770" width="10" height="10"/><rect class="c1" x="0" y="780" width="140" height="10"/><rect class="c2" x="140" y="780" width="10" height="10"/><rect class="c1" x="150" y="780" width="200" height="10"/><rect class="c1" x="420" y="780" width="240" height="10"/><rect class="c1" x="780" y="780" width="410" height="10"/><rect class="c2" x="1190" y="780" width="10" height="10"/><rect class="c1" x="0" y="790" width="80" height="10"/><rect class="c2" x="80" y="790" width="20" height="10"/><rect class="c1" x="100" y="790" width="60" height="10"/><rect class="c2" x="160" y="790" width="10" height="10"/><rect class="c1" x="170" y="790" width="180" height="10"/><rect class="c1" x="420" y="790" width="240" height="10"/><rect class="c1" x="780" y="790" width="410" height="10"/><rect class="c2" x="1190" y="790" width="10" height="10"/><rect x="0" y="0" width="1200" height="800" filter="url(#g)" opacity="0.04"/></svg>