<svg xmlns="http://www.w3.org/2000/svg" viewBox="0 0 1200 800" preserveAspectRatio="xMidYMid slice" role="img" aria-label="Abstract teal resolution field"><style>svg{--cv0:#f8f3ee;--cv1:#d6ddd6;--cv2:#a4bbb2;--cv3:#779e93;--cv4:#5e8c7d;--cv5:#4f8375}@media (prefers-color-scheme:dark){svg{--cv0:#1a2520;--cv1:#2c3e38;--cv2:#456057;--cv3:#5e8278;--cv4:#7aa297;--cv5:#a4c6b9}}.c0{fill:var(--cv0)}.c1{fill:var(--cv1)}.c2{fill:var(--cv2)}.c3{fill:var(--cv3)}.c4{fill:var(--cv4)}.c5{fill:var(--cv5)}</style><defs><filter id="g"><feTurbulence type="fractalNoise" baseFrequency="0.9" numOctaves="2" stitchTiles="stitch"/><feColorMatrix type="matrix" values="0 0 0 0 0  0 0 0 0 0  0 0 0 0 0  0 0 0 0.5 0"/></filter></defs><rect class="c0" x="0" y="0" width="1200" height="800"/><rect class="c1" x="0" y="0" width="210" height="10"/><rect class="c2" x="210" y="0" width="430" height="10"/><rect class="c3" x="640" y="0" width="10" height="10"/><rect class="c2" x="650" y="0" width="310" height="10"/><rect class="c1" x="960" y="0" width="240" height="10"/><rect class="c1" x="0" y="10" width="200" height="10"/><rect class="c2" x="200" y="10" width="440" height="10"/><rect class="c3" x="640" y="10" width="40" height="10"/><rect class="c2" x="680" y="10" width="280" height="10"/><rect class="c1" x="960" y="10" width="240" height="10"/><rect class="c1" x="0" y="20" width="180" height="10"/><rect class="c2" x="180" y="20" width="460" height="10"/><rect class="c3" x="640" y="20" width="40" height="10"/><rect class="c2" x="680" y="20" width="290" height="10"/><rect class="c1" x="970" y="20" width="230" height="10"/><rect class="c1" x="0" y="30" width="140" height="10"/><rect class="c2" x="140" y="30" width="10" height="10"/><rect class="c1" x="150" y="30" width="10" height="10"/><rect class="c2" x="160" y="30" width="480" height="10"/><rect class="c3" x="640" y="30" width="40" height="10"/><rect class="c2" x="680" y="30" width="80" height="10"/><rect class="c3" x="760" y="30" width="30" height="10"/><rect class="c2" x="790" y="30" width="200" height="10"/><rect class="c1" x="990" y="30" width="30" height="10"/><rect class="c2" x="1020" y="30" width="10" height="10"/><rect class="c1" x="1030" y="30" width="170" height="10"/><rect class="c1" x="0" y="40" width="130" height="10"/><rect class="c2" x="130" y="40" width="550" height="10"/><rect class="c3" x="680" y="40" width="140" height="10"/><rect class="c2" x="820" y="40" width="180" height="10"/><rect class="c1" x="1000" y="40" width="20" height="10"/><rect class="c2" x="1020" y="40" width="30" height="10"/><rect class="c1" x="1050" y="40" width="30" height="10"/><rect class="c2" x="1080" y="40" width="10" height="10"/><rect class="c1" x="1090" y="40" width="110" height="10"/><rect class="c1" x="0" y="50" width="150" height="10"/><rect class="c2" x="150" y="50" width="530" height="10"/><rect class="c3" x="680" y="50" width="130" height="10"/><rect class="c2" x="810" y="50" width="120" height="10"/><rect class="c1" x="930" y="50" width="20" height="10"/><rect class="c2" x="950" y="50" width="60" height="10"/><rect class="c1" x="1010" y="50" width="10" height="10"/><rect class="c2" x="1020" y="50" width="40" height="10"/><rect class="c1" x="1060" y="50" width="20" height="10"/><rect class="c2" x="1080" y="50" width="20" height="10"/><rect class="c1" x="1100" y="50" width="100" height="10"/><rect class="c1" x="0" y="60" width="150" height="10"/><rect class="c2" x="150" y="60" width="530" height="10"/><rect class="c3" x="680" y="60" width="140" height="10"/><rect class="c2" x="820" y="60" width="230" height="10"/><rect class="c1" x="1050" y="60" width="150" height="10"/><rect class="c1" x="0" y="70" width="160" height="10"/><rect class="c2" x="160" y="70" width="530" height="10"/><rect class="c3" x="690" y="70" width="150" height="10"/><rect class="c2" x="840" y="70" width="220" height="10"/><rect class="c1" x="1060" y="70" width="60" height="10"/><rect class="c2" x="1120" y="70" width="10" height="10"/><rect class="c1" x="1130" y="70" width="60" height="10"/><rect class="c2" x="1190" y="70" width="10" height="10"/><rect class="c1" x="0" y="80" width="170" height="10"/><rect class="c2" x="170" y="80" width="520" height="10"/><rect class="c3" x="690" y="80" width="150" height="10"/><rect class="c2" x="840" y="80" width="230" height="10"/><rect class="c1" x="1070" y="80" width="60" height="10"/><rect class="c2" x="1130" y="80" width="10" height="10"/><rect class="c1" x="1140" y="80" width="50" height="10"/><rect class="c2" x="1190" y="80" width="10" height="10"/><rect class="c1" x="0" y="90" width="160" height="10"/><rect class="c2" x="160" y="90" width="530" height="10"/><rect class="c3" x="690" y="90" width="150" height="10"/><rect class="c2" x="840" y="90" width="240" height="10"/><rect class="c1" x="1080" y="90" width="50" height="10"/><rect class="c2" x="1130" y="90" width="20" height="10"/><rect class="c1" x="1150" y="90" width="40" height="10"/><rect class="c2" x="1190" y="90" width="10" height="10"/><rect class="c1" x="0" y="100" width="160" height="10"/><rect class="c2" x="160" y="100" width="530" height="10"/><rect class="c3" x="690" y="100" width="150" height="10"/><rect class="c2" x="840" y="100" width="250" height="10"/><rect class="c1" x="1090" y="100" width="50" height="10"/><rect class="c2" x="1140" y="100" width="10" height="10"/><rect class="c1" x="1150" y="100" width="40" height="10"/><rect class="c2" x="1190" y="100" width="10" height="10"/><rect class="c1" x="0" y="110" width="160" height="10"/><rect class="c2" x="160" y="110" width="530" height="10"/><rect class="c3" x="690" y="110" width="150" height="10"/><rect class="c2" x="840" y="110" width="260" height="10"/><rect class="c1" x="1100" y="110" width="40" height="10"/><rect class="c2" x="1140" y="110" width="20" height="10"/><rect class="c1" x="1160" y="110" width="30" height="10"/><rect class="c2" x="1190" y="110" width="10" height="10"/><rect class="c1" x="0" y="120" width="250" height="10"/><rect class="c2" x="250" y="120" width="470" height="10"/><rect class="c3" x="720" y="120" width="130" height="10"/><rect class="c2" x="850" y="120" width="240" height="10"/><rect class="c1" x="1090" y="120" width="50" height="10"/><rect class="c2" x="1140" y="120" width="30" height="10"/><rect class="c1" x="1170" y="120" width="20" height="10"/><rect class="c2" x="1190" y="120" width="10" height="10"/><rect class="c1" x="0" y="130" width="240" height="10"/><rect class="c2" x="240" y="130" width="180" height="10"/><rect class="c3" x="420" y="130" width="120" height="10"/><rect class="c2" x="540" y="130" width="180" height="10"/><rect class="c3" x="720" y="130" width="140" height="10"/><rect class="c2" x="860" y="130" width="240" height="10"/><rect class="c1" x="1100" y="130" width="40" height="10"/><rect class="c2" x="1140" y="130" width="30" height="10"/><rect class="c1" x="1170" y="130" width="20" height="10"/><rect class="c2" x="1190" y="130" width="10" height="10"/><rect class="c1" x="0" y="140" width="240" height="10"/><rect class="c2" x="240" y="140" width="200" height="10"/><rect class="c3" x="440" y="140" width="150" height="10"/><rect class="c2" x="590" y="140" width="130" height="10"/><rect class="c3" x="720" y="140" width="150" height="10"/><rect class="c2" x="870" y="140" width="240" height="10"/><rect class="c1" x="1110" y="140" width="30" height="10"/><rect class="c2" x="1140" y="140" width="30" height="10"/><rect class="c1" x="1170" y="140" width="30" height="10"/><rect class="c1" x="0" y="150" width="220" height="10"/><rect class="c2" x="220" y="150" width="220" height="10"/><rect class="c3" x="440" y="150" width="190" height="10"/><rect class="c2" x="630" y="150" width="90" height="10"/><rect class="c3" x="720" y="150" width="160" height="10"/><rect class="c2" x="880" y="150" width="230" height="10"/><rect class="c1" x="1110" y="150" width="30" height="10"/><rect class="c2" x="1140" y="150" width="40" height="10"/><rect class="c1" x="1180" y="150" width="20" height="10"/><rect class="c1" x="0" y="160" width="160" height="10"/><rect class="c2" x="160" y="160" width="20" height="10"/><rect class="c1" x="180" y="160" width="30" height="10"/><rect class="c2" x="210" y="160" width="250" height="10"/><rect class="c3" x="460" y="160" width="230" height="10"/><rect class="c2" x="690" y="160" width="30" height="10"/><rect class="c3" x="720" y="160" width="160" height="10"/><rect class="c2" x="880" y="160" width="240" height="10"/><rect class="c1" x="1120" y="160" width="20" height="10"/><rect class="c2" x="1140" y="160" width="40" height="10"/><rect class="c1" x="1180" y="160" width="20" height="10"/><rect class="c1" x="0" y="170" width="150" height="10"/><rect class="c2" x="150" y="170" width="30" height="10"/><rect class="c1" x="180" y="170" width="20" height="10"/><rect class="c2" x="200" y="170" width="260" height="10"/><rect class="c3" x="460" y="170" width="250" height="10"/><rect class="c2" x="710" y="170" width="10" height="10"/><rect class="c3" x="720" y="170" width="160" height="10"/><rect class="c2" x="880" y="170" width="250" height="10"/><rect class="c1" x="1130" y="170" width="10" height="10"/><rect class="c2" x="1140" y="170" width="50" height="10"/><rect class="c1" x="1190" y="170" width="10" height="10"/><rect class="c1" x="0" y="180" width="180" height="10"/><rect class="c2" x="180" y="180" width="280" height="10"/><rect class="c3" x="460" y="180" width="420" height="10"/><rect class="c2" x="880" y="180" width="290" height="10"/><rect class="c1" x="1170" y="180" width="20" height="10"/><rect class="c2" x="1190" y="180" width="10" height="10"/><rect class="c1" x="0" y="190" width="180" height="10"/><rect class="c2" x="180" y="190" width="280" height="10"/><rect class="c3" x="460" y="190" width="420" height="10"/><rect class="c2" x="880" y="190" width="290" height="10"/><rect class="c1" x="1170" y="190" width="20" height="10"/><rect class="c2" x="1190" y="190" width="10" height="10"/><rect class="c1" x="0" y="200" width="180" height="10"/><rect class="c2" x="180" y="200" width="300" height="10"/><rect class="c3" x="480" y="200" width="420" height="10"/><rect class="c2" x="900" y="200" width="280" height="10"/><rect class="c1" x="1180" y="200" width="20" height="10"/><rect class="c1" x="0" y="210" width="210" height="10"/><rect class="c2" x="210" y="210" width="270" height="10"/><rect class="c3" x="480" y="210" width="420" height="10"/><rect class="c2" x="900" y="210" width="280" height="10"/><rect class="c1" x="1180" y="210" width="20" height="10"/><rect class="c1" x="0" y="220" width="210" height="10"/><rect class="c2" x="210" y="220" width="280" height="10"/><rect class="c3" x="490" y="220" width="420" height="10"/><rect class="c2" x="910" y="220" width="270" height="10"/><rect class="c1" x="1180" y="220" width="20" height="10"/><rect class="c1" x="0" y="230" width="210" height="10"/><rect class="c2" x="210" y="230" width="280" height="10"/><rect class="c3" x="490" y="230" width="430" height="10"/><rect class="c2" x="920" y="230" width="270" height="10"/><rect class="c1" x="1190" y="230" width="10" height="10"/><rect class="c1" x="0" y="240" width="210" height="10"/><rect class="c2" x="210" y="240" width="290" height="10"/><rect class="c3" x="500" y="240" width="500" height="10"/><rect class="c2" x="1000" y="240" width="200" height="10"/><rect class="c1" x="0" y="250" width="210" height="10"/><rect class="c2" x="210" y="250" width="300" height="10"/><rect class="c3" x="510" y="250" width="530" height="10"/><rect class="c2" x="1040" y="250" width="160" height="10"/><rect class="c1" x="0" y="260" width="240" height="10"/><rect class="c2" x="240" y="260" width="270" height="10"/><rect class="c3" x="510" y="260" width="530" height="10"/><rect class="c2" x="1040" y="260" width="160" height="10"/><rect class="c1" x="0" y="270" width="240" height="10"/><rect class="c2" x="240" y="270" width="280" height="10"/><rect class="c3" x="520" y="270" width="280" height="10"/><rect class="c2" x="800" y="270" width="10" height="10"/><rect class="c3" x="810" y="270" width="230" height="10"/><rect class="c2" x="1040" y="270" width="160" height="10"/><rect class="c1" x="0" y="280" width="240" height="10"/><rect class="c2" x="240" y="280" width="290" height="10"/><rect class="c3" x="530" y="280" width="440" height="10"/><rect class="c2" x="970" y="280" width="40" height="10"/><rect class="c3" x="1010" y="280" width="30" height="10"/><rect class="c2" x="1040" y="280" width="160" height="10"/><rect class="c1" x="0" y="290" width="240" height="10"/><rect class="c2" x="240" y="290" width="290" height="10"/><rect class="c3" x="530" y="290" width="270" height="10"/><rect class="c2" x="800" y="290" width="10" height="10"/><rect class="c3" x="810" y="290" width="160" height="10"/><rect class="c2" x="970" y="290" width="40" height="10"/><rect class="c3" x="1010" y="290" width="30" height="10"/><rect class="c2" x="1040" y="290" width="160" height="10"/><rect class="c1" x="0" y="300" width="260" height="10"/><rect class="c2" x="260" y="300" width="280" height="10"/><rect class="c3" x="540" y="300" width="220" height="10"/><rect class="c2" x="760" y="300" width="80" height="10"/><rect class="c3" x="840" y="300" width="130" height="10"/><rect class="c2" x="970" y="300" width="230" height="10"/><rect class="c1" x="0" y="310" width="260" height="10"/><rect class="c2" x="260" y="310" width="290" height="10"/><rect class="c3" x="550" y="310" width="220" height="10"/><rect class="c2" x="770" y="310" width="70" height="10"/><rect class="c3" x="840" y="310" width="130" height="10"/><rect class="c2" x="970" y="310" width="230" height="10"/><rect class="c1" x="0" y="320" width="260" height="10"/><rect class="c2" x="260" y="320" width="290" height="10"/><rect class="c3" x="550" y="320" width="210" height="10"/><rect class="c2" x="760" y="320" width="80" height="10"/><rect class="c3" x="840" y="320" width="120" height="10"/><rect class="c2" x="960" y="320" width="240" height="10"/><rect class="c1" x="0" y="330" width="260" height="10"/><rect class="c2" x="260" y="330" width="300" height="10"/><rect class="c3" x="560" y="330" width="190" height="10"/><rect class="c2" x="750" y="330" width="90" height="10"/><rect class="c3" x="840" y="330" width="120" height="10"/><rect class="c2" x="960" y="330" width="240" height="10"/><rect class="c1" x="0" y="340" width="280" height="10"/><rect class="c2" x="280" y="340" width="280" height="10"/><rect class="c3" x="560" y="340" width="200" height="10"/><rect class="c2" x="760" y="340" width="80" height="10"/><rect class="c3" x="840" y="340" width="120" height="10"/><rect class="c2" x="960" y="340" width="240" height="10"/><rect class="c1" x="0" y="350" width="280" height="10"/><rect class="c2" x="280" y="350" width="290" height="10"/><rect class="c3" x="570" y="350" width="190" height="10"/><rect class="c2" x="760" y="350" width="80" height="10"/><rect class="c3" x="840" y="350" width="120" height="10"/><rect class="c2" x="960" y="350" width="240" height="10"/><rect class="c1" x="0" y="360" width="300" height="10"/><rect class="c2" x="300" y="360" width="280" height="10"/><rect class="c3" x="580" y="360" width="240" height="10"/><rect class="c2" x="820" y="360" width="50" height="10"/><rect class="c3" x="870" y="360" width="70" height="10"/><rect class="c2" x="940" y="360" width="180" height="10"/><rect class="c1" x="1120" y="360" width="20" height="10"/><rect class="c2" x="1140" y="360" width="60" height="10"/><rect class="c1" x="0" y="370" width="300" height="10"/><rect class="c2" x="300" y="370" width="280" height="10"/><rect class="c3" x="580" y="370" width="240" height="10"/><rect class="c2" x="820" y="370" width="50" height="10"/><rect class="c3" x="870" y="370" width="70" height="10"/><rect class="c2" x="940" y="370" width="180" height="10"/><rect class="c1" x="1120" y="370" width="20" height="10"/><rect class="c2" x="1140" y="370" width="60" height="10"/><rect class="c1" x="0" y="380" width="300" height="10"/><rect class="c2" x="300" y="380" width="290" height="10"/><rect class="c3" x="590" y="380" width="230" height="10"/><rect class="c2" x="820" y="380" width="50" height="10"/><rect class="c3" x="870" y="380" width="70" height="10"/><rect class="c2" x="940" y="380" width="180" height="10"/><rect class="c1" x="1120" y="380" width="20" height="10"/><rect class="c2" x="1140" y="380" width="60" height="10"/><rect class="c1" x="0" y="390" width="300" height="10"/><rect class="c2" x="300" y="390" width="300" height="10"/><rect class="c3" x="600" y="390" width="240" height="10"/><rect class="c2" x="840" y="390" width="60" height="10"/><rect class="c3" x="900" y="390" width="30" height="10"/><rect class="c2" x="930" y="390" width="180" height="10"/><rect class="c1" x="1110" y="390" width="30" height="10"/><rect class="c2" x="1140" y="390" width="60" height="10"/><rect class="c1" x="0" y="400" width="320" height="10"/><rect class="c2" x="320" y="400" width="280" height="10"/><rect class="c3" x="600" y="400" width="240" height="10"/><rect class="c2" x="840" y="400" width="60" height="10"/><rect class="c3" x="900" y="400" width="50" height="10"/><rect class="c2" x="950" y="400" width="10" height="10"/><rect class="c3" x="960" y="400" width="30" height="10"/><rect class="c2" x="990" y="400" width="120" height="10"/><rect class="c1" x="1110" y="400" width="30" height="10"/><rect class="c2" x="1140" y="400" width="60" height="10"/><rect class="c1" x="0" y="410" width="320" height="10"/><rect class="c2" x="320" y="410" width="280" height="10"/><rect class="c3" x="600" y="410" width="240" height="10"/><rect class="c2" x="840" y="410" width="50" height="10"/><rect class="c3" x="890" y="410" width="60" height="10"/><rect class="c2" x="950" y="410" width="10" height="10"/><rect class="c3" x="960" y="410" width="40" height="10"/><rect class="c2" x="1000" y="410" width="110" height="10"/><rect class="c1" x="1110" y="410" width="30" height="10"/><rect class="c2" x="1140" y="410" width="60" height="10"/><rect class="c1" x="0" y="420" width="340" height="10"/><rect class="c2" x="340" y="420" width="280" height="10"/><rect class="c3" x="620" y="420" width="220" height="10"/><rect class="c2" x="840" y="420" width="40" height="10"/><rect class="c3" x="880" y="420" width="60" height="10"/><rect class="c2" x="940" y="420" width="20" height="10"/><rect class="c3" x="960" y="420" width="20" height="10"/><rect class="c2" x="980" y="420" width="110" height="10"/><rect class="c1" x="1090" y="420" width="50" height="10"/><rect class="c2" x="1140" y="420" width="60" height="10"/><rect class="c1" x="0" y="430" width="340" height="10"/><rect class="c2" x="340" y="430" width="280" height="10"/><rect class="c3" x="620" y="430" width="220" height="10"/><rect class="c2" x="840" y="430" width="40" height="10"/><rect class="c3" x="880" y="430" width="60" height="10"/><rect class="c2" x="940" y="430" width="20" height="10"/><rect class="c3" x="960" y="430" width="30" height="10"/><rect class="c2" x="990" y="430" width="100" height="10"/><rect class="c1" x="1090" y="430" width="50" height="10"/><rect class="c2" x="1140" y="430" width="60" height="10"/><rect class="c1" x="0" y="440" width="30" height="10"/><rect class="c1" x="40" y="440" width="300" height="10"/><rect class="c2" x="340" y="440" width="300" height="10"/><rect class="c3" x="640" y="440" width="100" height="10"/><rect class="c2" x="740" y="440" width="10" height="10"/><rect class="c3" x="750" y="440" width="90" height="10"/><rect class="c2" x="840" y="440" width="30" height="10"/><rect class="c3" x="870" y="440" width="110" height="10"/><rect class="c2" x="980" y="440" width="100" height="10"/><rect class="c1" x="1080" y="440" width="60" height="10"/><rect class="c2" x="1140" y="440" width="60" height="10"/><rect class="c1" x="0" y="450" width="340" height="10"/><rect class="c2" x="340" y="450" width="300" height="10"/><rect class="c3" x="640" y="450" width="70" height="10"/><rect class="c2" x="710" y="450" width="10" height="10"/><rect class="c3" x="720" y="450" width="20" height="10"/><rect class="c2" x="740" y="450" width="10" height="10"/><rect class="c3" x="750" y="450" width="80" height="10"/><rect class="c2" x="830" y="450" width="10" height="10"/><rect class="c3" x="840" y="450" width="30" height="10"/><rect class="c2" x="870" y="450" width="10" height="10"/><rect class="c3" x="880" y="450" width="130" height="10"/><rect class="c2" x="1010" y="450" width="70" height="10"/><rect class="c1" x="1080" y="450" width="60" height="10"/><rect class="c2" x="1140" y="450" width="60" height="10"/><rect class="c1" x="0" y="460" width="360" height="10"/><rect class="c2" x="360" y="460" width="280" height="10"/><rect class="c3" x="640" y="460" width="60" height="10"/><rect class="c2" x="700" y="460" width="50" height="10"/><rect class="c3" x="750" y="460" width="20" height="10"/><rect class="c2" x="770" y="460" width="10" height="10"/><rect class="c3" x="780" y="460" width="20" height="10"/><rect class="c2" x="800" y="460" width="10" height="10"/><rect class="c3" x="810" y="460" width="10" height="10"/><rect class="c2" x="820" y="460" width="20" height="10"/><rect class="c3" x="840" y="460" width="20" height="10"/><rect class="c2" x="860" y="460" width="20" height="10"/><rect class="c3" x="880" y="460" width="30" height="10"/><rect class="c2" x="910" y="460" width="10" height="10"/><rect class="c3" x="920" y="460" width="80" height="10"/><rect class="c2" x="1000" y="460" width="80" height="10"/><rect class="c1" x="1080" y="460" width="60" height="10"/><rect class="c2" x="1140" y="460" width="60" height="10"/><rect class="c1" x="0" y="470" width="360" height="10"/><rect class="c2" x="360" y="470" width="280" height="10"/><rect class="c3" x="640" y="470" width="40" height="10"/><rect class="c2" x="680" y="470" width="100" height="10"/><rect class="c3" x="780" y="470" width="10" height="10"/><rect class="c2" x="790" y="470" width="50" height="10"/><rect class="c3" x="840" y="470" width="10" height="10"/><rect class="c2" x="850" y="470" width="30" height="10"/><rect class="c3" x="880" y="470" width="20" height="10"/><rect class="c2" x="900" y="470" width="20" height="10"/><rect class="c3" x="920" y="470" width="80" height="10"/><rect class="c2" x="1000" y="470" width="80" height="10"/><rect class="c1" x="1080" y="470" width="60" height="10"/><rect class="c2" x="1140" y="470" width="40" height="10"/><rect class="c1" x="1180" y="470" width="10" height="10"/><rect class="c2" x="1190" y="470" width="10" height="10"/><rect class="c1" x="0" y="480" width="380" height="10"/><rect class="c2" x="380" y="480" width="400" height="10"/><rect class="c3" x="780" y="480" width="30" height="10"/><rect class="c2" x="810" y="480" width="140" height="10"/><rect class="c3" x="950" y="480" width="50" height="10"/><rect class="c2" x="1000" y="480" width="80" height="10"/><rect class="c1" x="1080" y="480" width="60" height="10"/><rect class="c2" x="1140" y="480" width="40" height="10"/><rect class="c1" x="1180" y="480" width="10" height="10"/><rect class="c2" x="1190" y="480" width="10" height="10"/><rect class="c1" x="0" y="490" width="380" height="10"/><rect class="c2" x="380" y="490" width="400" height="10"/><rect class="c3" x="780" y="490" width="20" height="10"/><rect class="c2" x="800" y="490" width="150" height="10"/><rect class="c3" x="950" y="490" width="50" height="10"/><rect class="c2" x="1000" y="490" width="70" height="10"/><rect class="c1" x="1070" y="490" width="70" height="10"/><rect class="c2" x="1140" y="490" width="60" height="10"/><rect class="c1" x="0" y="500" width="380" height="10"/><rect class="c2" x="380" y="500" width="400" height="10"/><rect class="c3" x="780" y="500" width="10" height="10"/><rect class="c2" x="790" y="500" width="270" height="10"/><rect class="c1" x="1060" y="500" width="80" height="10"/><rect class="c2" x="1140" y="500" width="60" height="10"/><rect class="c1" x="0" y="510" width="390" height="10"/><rect class="c2" x="390" y="510" width="390" height="10"/><rect class="c3" x="780" y="510" width="10" height="10"/><rect class="c2" x="790" y="510" width="270" height="10"/><rect class="c1" x="1060" y="510" width="80" height="10"/><rect class="c2" x="1140" y="510" width="60" height="10"/><rect class="c1" x="0" y="520" width="390" height="10"/><rect class="c2" x="390" y="520" width="660" height="10"/><rect class="c1" x="1050" y="520" width="90" height="10"/><rect class="c2" x="1140" y="520" width="60" height="10"/><rect class="c1" x="0" y="530" width="390" height="10"/><rect class="c2" x="390" y="530" width="370" height="10"/><rect class="c3" x="760" y="530" width="10" height="10"/><rect class="c2" x="770" y="530" width="270" height="10"/><rect class="c1" x="1040" y="530" width="100" height="10"/><rect class="c2" x="1140" y="530" width="40" height="10"/><rect class="c1" x="1180" y="530" width="10" height="10"/><rect class="c2" x="1190" y="530" width="10" height="10"/><rect class="c1" x="0" y="540" width="420" height="10"/><rect class="c2" x="420" y="540" width="590" height="10"/><rect class="c1" x="1010" y="540" width="10" height="10"/><rect class="c2" x="1020" y="540" width="50" height="10"/><rect class="c1" x="1070" y="540" width="60" height="10"/><rect class="c2" x="1130" y="540" width="40" height="10"/><rect class="c1" x="1170" y="540" width="20" height="10"/><rect class="c2" x="1190" y="540" width="10" height="10"/><rect class="c1" x="0" y="550" width="420" height="10"/><rect class="c2" x="420" y="550" width="240" height="10"/><rect class="c1" x="660" y="550" width="30" height="10"/><rect class="c2" x="690" y="550" width="300" height="10"/><rect class="c1" x="990" y="550" width="30" height="10"/><rect class="c2" x="1020" y="550" width="40" height="10"/><rect class="c1" x="1060" y="550" width="70" height="10"/><rect class="c2" x="1130" y="550" width="30" height="10"/><rect class="c1" x="1160" y="550" width="30" height="10"/><rect class="c2" x="1190" y="550" width="10" height="10"/><rect class="c1" x="0" y="560" width="420" height="10"/><rect class="c2" x="420" y="560" width="240" height="10"/><rect class="c1" x="660" y="560" width="60" height="10"/><rect class="c2" x="720" y="560" width="260" height="10"/><rect class="c1" x="980" y="560" width="40" height="10"/><rect class="c2" x="1020" y="560" width="30" height="10"/><rect class="c1" x="1050" y="560" width="70" height="10"/><rect class="c2" x="1120" y="560" width="80" height="10"/><rect class="c1" x="0" y="570" width="420" height="10"/><rect class="c2" x="420" y="570" width="240" height="10"/><rect class="c1" x="660" y="570" width="60" height="10"/><rect class="c2" x="720" y="570" width="220" height="10"/><rect class="c1" x="940" y="570" width="10" height="10"/><rect class="c2" x="950" y="570" width="20" height="10"/><rect class="c1" x="970" y="570" width="50" height="10"/><rect class="c2" x="1020" y="570" width="20" height="10"/><rect class="c1" x="1040" y="570" width="80" height="10"/><rect class="c2" x="1120" y="570" width="80" height="10"/><rect class="c1" x="0" y="580" width="420" height="10"/><rect class="c2" x="420" y="580" width="220" height="10"/><rect class="c1" x="640" y="580" width="80" height="10"/><rect class="c2" x="720" y="580" width="200" height="10"/><rect class="c1" x="920" y="580" width="100" height="10"/><rect class="c2" x="1020" y="580" width="10" height="10"/><rect class="c1" x="1030" y="580" width="90" height="10"/><rect class="c2" x="1120" y="580" width="80" height="10"/><rect class="c1" x="0" y="590" width="440" height="10"/><rect class="c2" x="440" y="590" width="200" height="10"/><rect class="c1" x="640" y="590" width="80" height="10"/><rect class="c2" x="720" y="590" width="190" height="10"/><rect class="c1" x="910" y="590" width="210" height="10"/><rect class="c2" x="1120" y="590" width="80" height="10"/><rect class="c1" x="0" y="600" width="560" height="10"/><rect class="c2" x="560" y="600" width="80" height="10"/><rect class="c1" x="640" y="600" width="120" height="10"/><rect class="c2" x="760" y="600" width="160" height="10"/><rect class="c1" x="920" y="600" width="40" height="10"/><rect class="c2" x="960" y="600" width="120" height="10"/><rect class="c1" x="1080" y="600" width="40" height="10"/><rect class="c2" x="1120" y="600" width="80" height="10"/><rect class="c1" x="0" y="610" width="560" height="10"/><rect class="c2" x="560" y="610" width="40" height="10"/><rect class="c1" x="600" y="610" width="160" height="10"/><rect class="c2" x="760" y="610" width="140" height="10"/><rect class="c1" x="900" y="610" width="20" height="10"/><rect class="c2" x="920" y="610" width="10" height="10"/><rect class="c1" x="930" y="610" width="30" height="10"/><rect class="c2" x="960" y="610" width="110" height="10"/><rect class="c1" x="1070" y="610" width="50" height="10"/><rect class="c2" x="1120" y="610" width="80" height="10"/><rect class="c1" x="0" y="620" width="750" height="10"/><rect class="c2" x="750" y="620" width="160" height="10"/><rect class="c1" x="910" y="620" width="50" height="10"/><rect class="c2" x="960" y="620" width="90" height="10"/><rect class="c1" x="1050" y="620" width="70" height="10"/><rect class="c2" x="1120" y="620" width="80" height="10"/><rect class="c1" x="0" y="630" width="750" height="10"/><rect class="c2" x="750" y="630" width="150" height="10"/><rect class="c1" x="900" y="630" width="60" height="10"/><rect class="c2" x="960" y="630" width="100" height="10"/><rect class="c1" x="1060" y="630" width="60" height="10"/><rect class="c2" x="1120" y="630" width="80" height="10"/><rect class="c1" x="0" y="640" width="480" height="10"/><rect class="c2" x="480" y="640" width="120" height="10"/><rect class="c1" x="600" y="640" width="150" height="10"/><rect class="c2" x="750" y="640" width="150" height="10"/><rect class="c1" x="900" y="640" width="60" height="10"/><rect class="c2" x="960" y="640" width="90" height="10"/><rect class="c1" x="1050" y="640" width="70" height="10"/><rect class="c2" x="1120" y="640" width="80" height="10"/><rect class="c1" x="0" y="650" width="480" height="10"/><rect class="c2" x="480" y="650" width="120" height="10"/><rect class="c1" x="600" y="650" width="150" height="10"/><rect class="c2" x="750" y="650" width="130" height="10"/><rect class="c1" x="880" y="650" width="80" height="10"/><rect class="c2" x="960" y="650" width="90" height="10"/><rect class="c1" x="1050" y="650" width="70" height="10"/><rect class="c2" x="1120" y="650" width="80" height="10"/><rect class="c1" x="0" y="660" width="10" height="10"/><rect class="c1" x="60" y="660" width="440" height="10"/><rect class="c2" x="500" y="660" width="60" height="10"/><rect class="c1" x="560" y="660" width="190" height="10"/><rect class="c2" x="750" y="660" width="100" height="10"/><rect class="c1" x="850" y="660" width="110" height="10"/><rect class="c2" x="960" y="660" width="90" height="10"/><rect class="c1" x="1050" y="660" width="70" height="10"/><rect class="c2" x="1120" y="660" width="80" height="10"/><rect class="c1" x="0" y="670" width="30" height="10"/><rect class="c1" x="60" y="670" width="690" height="10"/><rect class="c2" x="750" y="670" width="90" height="10"/><rect class="c1" x="840" y="670" width="120" height="10"/><rect class="c2" x="960" y="670" width="90" height="10"/><rect class="c1" x="1050" y="670" width="70" height="10"/><rect class="c2" x="1120" y="670" width="80" height="10"/><rect class="c1" x="0" y="680" width="40" height="10"/><rect class="c1" x="60" y="680" width="690" height="10"/><rect class="c2" x="750" y="680" width="20" height="10"/><rect class="c1" x="770" y="680" width="10" height="10"/><rect class="c2" x="780" y="680" width="60" height="10"/><rect class="c1" x="840" y="680" width="120" height="10"/><rect class="c2" x="960" y="680" width="90" height="10"/><rect class="c1" x="1050" y="680" width="70" height="10"/><rect class="c2" x="1120" y="680" width="80" height="10"/><rect class="c1" x="0" y="690" width="780" height="10"/><rect class="c2" x="780" y="690" width="60" height="10"/><rect class="c1" x="840" y="690" width="110" height="10"/><rect class="c2" x="950" y="690" width="100" height="10"/><rect class="c1" x="1050" y="690" width="70" height="10"/><rect class="c2" x="1120" y="690" width="80" height="10"/><rect class="c1" x="0" y="700" width="780" height="10"/><rect class="c2" x="780" y="700" width="60" height="10"/><rect class="c1" x="840" y="700" width="140" height="10"/><rect class="c2" x="980" y="700" width="70" height="10"/><rect class="c1" x="1050" y="700" width="80" height="10"/><rect class="c2" x="1130" y="700" width="60" height="10"/><rect class="c1" x="1190" y="700" width="10" height="10"/><rect class="c1" x="0" y="710" width="780" height="10"/><rect class="c2" x="780" y="710" width="60" height="10"/><rect class="c1" x="840" y="710" width="140" height="10"/><rect class="c2" x="980" y="710" width="70" height="10"/><rect class="c1" x="1050" y="710" width="70" height="10"/><rect class="c2" x="1120" y="710" width="50" height="10"/><rect class="c1" x="1170" y="710" width="30" height="10"/><rect class="c1" x="0" y="720" width="980" height="10"/><rect class="c2" x="980" y="720" width="70" height="10"/><rect class="c1" x="1050" y="720" width="150" height="10"/><rect class="c1" x="0" y="730" width="980" height="10"/><rect class="c2" x="980" y="730" width="70" height="10"/><rect class="c1" x="1050" y="730" width="150" height="10"/><rect class="c1" x="0" y="740" width="980" height="10"/><rect class="c2" x="980" y="740" width="70" height="10"/><rect class="c1" x="1050" y="740" width="150" height="10"/><rect class="c1" x="0" y="750" width="980" height="10"/><rect class="c2" x="980" y="750" width="70" height="10"/><rect class="c1" x="1050" y="750" width="150" height="10"/><rect class="c1" x="0" y="760" width="980" height="10"/><rect class="c2" x="980" y="760" width="60" height="10"/><rect class="c1" x="1040" y="760" width="160" height="10"/><rect class="c1" x="0" y="770" width="770" height="10"/><rect class="c2" x="770" y="770" width="170" height="10"/><rect class="c1" x="940" y="770" width="80" height="10"/><rect class="c2" x="1020" y="770" width="20" height="10"/><rect class="c1" x="1040" y="770" width="160" height="10"/><rect class="c1" x="0" y="780" width="770" height="10"/><rect class="c2" x="770" y="780" width="140" height="10"/><rect class="c1" x="910" y="780" width="90" height="10"/><rect class="c2" x="1000" y="780" width="40" height="10"/><rect class="c1" x="1040" y="780" width="160" height="10"/><rect class="c1" x="0" y="790" width="550" height="10"/><rect class="c1" x="570" y="790" width="200" height="10"/><rect class="c2" x="770" y="790" width="140" height="10"/><rect class="c1" x="910" y="790" width="60" height="10"/><rect class="c2" x="970" y="790" width="70" height="10"/><rect class="c1" x="1040" y="790" width="160" height="10"/><rect x="0" y="0" width="1200" height="800" filter="url(#g)" opacity="0.04"/></svg>