<svg xmlns="http://www.w3.org/2000/svg" viewBox="0 0 1200 800" preserveAspectRatio="xMidYMid slice" role="img" aria-label="Abstract teal resolution field"><style>svg{--cv0:#f8f3ee;--cv1:#d6ddd6;--cv2:#a4bbb2;--cv3:#779e93;--cv4:#5e8c7d;--cv5:#4f8375}@media (prefers-color-scheme:dark){svg{--cv0:#1a2520;--cv1:#2c3e38;--cv2:#456057;--cv3:#5e8278;--cv4:#7aa297;--cv5:#a4c6b9}}.c0{fill:var(--cv0)}.c1{fill:var(--cv1)}.c2{fill:var(--cv2)}.c3{fill:var(--cv3)}.c4{fill:var(--cv4)}.c5{fill:var(--cv5)}</style><defs><filter id="g"><feTurbulence type="fractalNoise" baseFrequency="0.9" numOctaves="2" stitchTiles="stitch"/><feColorMatrix type="matrix" values="0 0 0 0 0  0 0 0 0 0  0 0 0 0 0  0 0 0 0.5 0"/></filter></defs><rect class="c0" x="0" y="0" width="1200" height="800"/><rect class="c1" x="0" y="0" width="70" height="10"/><rect class="c2" x="70" y="0" width="70" height="10"/><rect class="c1" x="140" y="0" width="360" height="10"/><rect class="c1" x="550" y="0" width="290" height="10"/><rect class="c1" x="960" y="0" width="230" height="10"/><rect class="c2" x="1190" y="0" width="10" height="10"/><rect class="c1" x="0" y="10" width="70" height="10"/><rect class="c2" x="70" y="10" width="70" height="10"/><rect class="c1" x="140" y="10" width="360" height="10"/><rect class="c1" x="550" y="10" width="290" height="10"/><rect class="c1" x="960" y="10" width="230" height="10"/><rect class="c2" x="1190" y="10" width="10" height="10"/><rect class="c1" x="0" y="20" width="70" height="10"/><rect class="c2" x="70" y="20" width="70" height="10"/><rect class="c1" x="140" y="20" width="360" height="10"/><rect class="c1" x="550" y="20" width="290" height="10"/><rect class="c1" x="960" y="20" width="230" height="10"/><rect class="c2" x="1190" y="20" width="10" height="10"/><rect class="c1" x="0" y="30" width="70" height="10"/><rect class="c2" x="70" y="30" width="70" height="10"/><rect class="c1" x="140" y="30" width="360" height="10"/><rect class="c1" x="550" y="30" width="300" height="10"/><rect class="c1" x="960" y="30" width="230" height="10"/><rect class="c2" x="1190" y="30" width="10" height="10"/><rect class="c1" x="0" y="40" width="70" height="10"/><rect class="c2" x="70" y="40" width="50" height="10"/><rect class="c1" x="120" y="40" width="380" height="10"/><rect class="c1" x="550" y="40" width="300" height="10"/><rect class="c1" x="960" y="40" width="230" height="10"/><rect class="c2" x="1190" y="40" width="10" height="10"/><rect class="c1" x="0" y="50" width="70" height="10"/><rect class="c2" x="70" y="50" width="40" height="10"/><rect class="c1" x="110" y="50" width="810" height="10"/><rect class="c1" x="960" y="50" width="230" height="10"/><rect class="c2" x="1190" y="50" width="10" height="10"/><rect class="c1" x="0" y="60" width="70" height="10"/><rect class="c2" x="70" y="60" width="20" height="10"/><rect class="c1" x="90" y="60" width="1100" height="10"/><rect class="c2" x="1190" y="60" width="10" height="10"/><rect class="c1" x="0" y="70" width="1200" height="10"/><rect class="c1" x="0" y="80" width="1200" height="10"/><rect class="c1" x="0" y="90" width="1200" height="10"/><rect class="c1" x="0" y="100" width="950" height="10"/><rect class="c1" x="1020" y="100" width="180" height="10"/><rect class="c1" x="0" y="110" width="950" height="10"/><rect class="c1" x="1030" y="110" width="170" height="10"/><rect class="c1" x="0" y="120" width="950" height="10"/><rect class="c1" x="1050" y="120" width="150" height="10"/><rect class="c1" x="0" y="130" width="950" height="10"/><rect class="c1" x="1050" y="130" width="150" height="10"/><rect class="c1" x="0" y="140" width="950" height="10"/><rect class="c1" x="1050" y="140" width="150" height="10"/><rect class="c1" x="0" y="150" width="1200" height="10"/><rect class="c1" x="0" y="160" width="1200" height="10"/><rect class="c1" x="0" y="170" width="1200" height="10"/><rect class="c2" x="0" y="180" width="80" height="10"/><rect class="c1" x="80" y="180" width="1120" height="10"/><rect class="c2" x="0" y="190" width="80" height="10"/><rect class="c1" x="80" y="190" width="1120" height="10"/><rect class="c2" x="0" y="200" width="70" height="10"/><rect class="c1" x="70" y="200" width="1130" height="10"/><rect class="c2" x="0" y="210" width="60" height="10"/><rect class="c1" x="60" y="210" width="1140" height="10"/><rect class="c2" x="0" y="220" width="50" height="10"/><rect class="c1" x="50" y="220" width="1150" height="10"/><rect class="c2" x="0" y="230" width="50" height="10"/><rect class="c1" x="50" y="230" width="1150" height="10"/><rect class="c2" x="0" y="240" width="50" height="10"/><rect class="c1" x="50" y="240" width="1150" height="10"/><rect class="c2" x="0" y="250" width="50" height="10"/><rect class="c1" x="50" y="250" width="1150" height="10"/><rect class="c2" x="0" y="260" width="50" height="10"/><rect class="c1" x="50" y="260" width="320" height="10"/><rect class="c2" x="370" y="260" width="460" height="10"/><rect class="c1" x="830" y="260" width="370" height="10"/><rect class="c2" x="0" y="270" width="50" height="10"/><rect class="c1" x="50" y="270" width="180" height="10"/><rect class="c2" x="230" y="270" width="740" height="10"/><rect class="c1" x="970" y="270" width="230" height="10"/><rect class="c2" x="0" y="280" width="50" height="10"/><rect class="c1" x="50" y="280" width="100" height="10"/><rect class="c2" x="150" y="280" width="920" height="10"/><rect class="c1" x="1070" y="280" width="130" height="10"/><rect class="c2" x="0" y="290" width="50" height="10"/><rect class="c1" x="50" y="290" width="90" height="10"/><rect class="c2" x="140" y="290" width="940" height="10"/><rect class="c1" x="1080" y="290" width="120" height="10"/><rect class="c2" x="0" y="300" width="110" height="10"/><rect class="c1" x="110" y="300" width="20" height="10"/><rect class="c2" x="130" y="300" width="950" height="10"/><rect class="c1" x="1080" y="300" width="10" height="10"/><rect class="c2" x="1090" y="300" width="60" height="10"/><rect class="c1" x="1150" y="300" width="50" height="10"/><rect class="c2" x="0" y="310" width="110" height="10"/><rect class="c1" x="110" y="310" width="20" height="10"/><rect class="c2" x="130" y="310" width="950" height="10"/><rect class="c1" x="1080" y="310" width="10" height="10"/><rect class="c2" x="1090" y="310" width="60" height="10"/><rect class="c1" x="1150" y="310" width="50" height="10"/><rect class="c2" x="0" y="320" width="1150" height="10"/><rect class="c1" x="1150" y="320" width="50" height="10"/><rect class="c2" x="0" y="330" width="1150" height="10"/><rect class="c1" x="1150" y="330" width="50" height="10"/><rect class="c2" x="0" y="340" width="1150" height="10"/><rect class="c1" x="1150" y="340" width="50" height="10"/><rect class="c2" x="0" y="350" width="1110" height="10"/><rect class="c1" x="1110" y="350" width="90" height="10"/><rect class="c2" x="0" y="360" width="1070" height="10"/><rect class="c1" x="1070" y="360" width="130" height="10"/><rect class="c2" x="0" y="370" width="1070" height="10"/><rect class="c1" x="1070" y="370" width="130" height="10"/><rect class="c2" x="0" y="380" width="1070" height="10"/><rect class="c1" x="1070" y="380" width="130" height="10"/><rect class="c2" x="0" y="390" width="190" height="10"/><rect class="c3" x="190" y="390" width="50" height="10"/><rect class="c2" x="240" y="390" width="660" height="10"/><rect class="c3" x="900" y="390" width="30" height="10"/><rect class="c2" x="930" y="390" width="140" height="10"/><rect class="c1" x="1070" y="390" width="130" height="10"/><rect class="c2" x="0" y="400" width="190" height="10"/><rect class="c3" x="190" y="400" width="50" height="10"/><rect class="c2" x="240" y="400" width="80" height="10"/><rect class="c3" x="320" y="400" width="610" height="10"/><rect class="c2" x="930" y="400" width="220" height="10"/><rect class="c1" x="1150" y="400" width="50" height="10"/><rect class="c2" x="0" y="410" width="190" height="10"/><rect class="c3" x="190" y="410" width="50" height="10"/><rect class="c2" x="240" y="410" width="80" height="10"/><rect class="c3" x="320" y="410" width="610" height="10"/><rect class="c2" x="930" y="410" width="220" height="10"/><rect class="c1" x="1150" y="410" width="50" height="10"/><rect class="c2" x="0" y="420" width="310" height="10"/><rect class="c3" x="310" y="420" width="630" height="10"/><rect class="c2" x="940" y="420" width="210" height="10"/><rect class="c1" x="1150" y="420" width="50" height="10"/><rect class="c2" x="0" y="430" width="310" height="10"/><rect class="c3" x="310" y="430" width="630" height="10"/><rect class="c2" x="940" y="430" width="210" height="10"/><rect class="c1" x="1150" y="430" width="50" height="10"/><rect class="c2" x="0" y="440" width="300" height="10"/><rect class="c3" x="300" y="440" width="630" height="10"/><rect class="c2" x="930" y="440" width="220" height="10"/><rect class="c1" x="1150" y="440" width="50" height="10"/><rect class="c2" x="0" y="450" width="260" height="10"/><rect class="c3" x="260" y="450" width="670" height="10"/><rect class="c2" x="930" y="450" width="240" height="10"/><rect class="c1" x="1170" y="450" width="30" height="10"/><rect class="c2" x="0" y="460" width="260" height="10"/><rect class="c3" x="260" y="460" width="670" height="10"/><rect class="c2" x="930" y="460" width="240" height="10"/><rect class="c1" x="1170" y="460" width="30" height="10"/><rect class="c2" x="0" y="470" width="270" height="10"/><rect class="c3" x="270" y="470" width="660" height="10"/><rect class="c2" x="930" y="470" width="240" height="10"/><rect class="c1" x="1170" y="470" width="30" height="10"/><rect class="c2" x="0" y="480" width="270" height="10"/><rect class="c3" x="270" y="480" width="660" height="10"/><rect class="c2" x="930" y="480" width="240" height="10"/><rect class="c1" x="1170" y="480" width="30" height="10"/><rect class="c2" x="0" y="490" width="270" height="10"/><rect class="c3" x="270" y="490" width="650" height="10"/><rect class="c2" x="920" y="490" width="240" height="10"/><rect class="c1" x="1160" y="490" width="40" height="10"/><rect class="c2" x="0" y="500" width="280" height="10"/><rect class="c3" x="280" y="500" width="530" height="10"/><rect class="c2" x="810" y="500" width="10" height="10"/><rect class="c3" x="820" y="500" width="10" height="10"/><rect class="c2" x="830" y="500" width="10" height="10"/><rect class="c3" x="840" y="500" width="80" height="10"/><rect class="c2" x="920" y="500" width="230" height="10"/><rect class="c1" x="1150" y="500" width="50" height="10"/><rect class="c2" x="0" y="510" width="280" height="10"/><rect class="c3" x="280" y="510" width="520" height="10"/><rect class="c2" x="800" y="510" width="40" height="10"/><rect class="c3" x="840" y="510" width="10" height="10"/><rect class="c2" x="850" y="510" width="20" height="10"/><rect class="c3" x="870" y="510" width="40" height="10"/><rect class="c2" x="910" y="510" width="240" height="10"/><rect class="c1" x="1150" y="510" width="50" height="10"/><rect class="c2" x="0" y="520" width="190" height="10"/><rect class="c3" x="190" y="520" width="40" height="10"/><rect class="c2" x="230" y="520" width="60" height="10"/><rect class="c3" x="290" y="520" width="490" height="10"/><rect class="c2" x="780" y="520" width="90" height="10"/><rect class="c3" x="870" y="520" width="20" height="10"/><rect class="c2" x="890" y="520" width="80" height="10"/><rect class="c3" x="970" y="520" width="20" height="10"/><rect class="c2" x="990" y="520" width="150" height="10"/><rect class="c1" x="1140" y="520" width="60" height="10"/><rect class="c2" x="0" y="530" width="190" height="10"/><rect class="c3" x="190" y="530" width="50" height="10"/><rect class="c2" x="240" y="530" width="60" height="10"/><rect class="c3" x="300" y="530" width="470" height="10"/><rect class="c2" x="770" y="530" width="100" height="10"/><rect class="c3" x="870" y="530" width="10" height="10"/><rect class="c2" x="880" y="530" width="80" height="10"/><rect class="c3" x="960" y="530" width="20" height="10"/><rect class="c2" x="980" y="530" width="160" height="10"/><rect class="c1" x="1140" y="530" width="60" height="10"/><rect class="c2" x="0" y="540" width="200" height="10"/><rect class="c3" x="200" y="540" width="770" height="10"/><rect class="c2" x="970" y="540" width="160" height="10"/><rect class="c1" x="1130" y="540" width="70" height="10"/><rect class="c2" x="0" y="550" width="200" height="10"/><rect class="c3" x="200" y="550" width="770" height="10"/><rect class="c2" x="970" y="550" width="200" height="10"/><rect class="c1" x="1170" y="550" width="30" height="10"/><rect class="c2" x="0" y="560" width="150" height="10"/><rect class="c3" x="150" y="560" width="810" height="10"/><rect class="c2" x="960" y="560" width="190" height="10"/><rect class="c1" x="1150" y="560" width="50" height="10"/><rect class="c2" x="0" y="570" width="150" height="10"/><rect class="c3" x="150" y="570" width="810" height="10"/><rect class="c2" x="960" y="570" width="200" height="10"/><rect class="c1" x="1160" y="570" width="40" height="10"/><rect class="c2" x="0" y="580" width="150" height="10"/><rect class="c3" x="150" y="580" width="810" height="10"/><rect class="c2" x="960" y="580" width="190" height="10"/><rect class="c1" x="1150" y="580" width="50" height="10"/><rect class="c2" x="0" y="590" width="150" height="10"/><rect class="c3" x="150" y="590" width="810" height="10"/><rect class="c2" x="960" y="590" width="180" height="10"/><rect class="c1" x="1140" y="590" width="60" height="10"/><rect class="c2" x="0" y="600" width="150" height="10"/><rect class="c3" x="150" y="600" width="130" height="10"/><rect class="c2" x="280" y="600" width="10" height="10"/><rect class="c3" x="290" y="600" width="670" height="10"/><rect class="c2" x="960" y="600" width="210" height="10"/><rect class="c1" x="1170" y="600" width="30" height="10"/><rect class="c2" x="0" y="610" width="150" height="10"/><rect class="c3" x="150" y="610" width="90" height="10"/><rect class="c2" x="240" y="610" width="10" height="10"/><rect class="c3" x="250" y="610" width="30" height="10"/><rect class="c2" x="280" y="610" width="30" height="10"/><rect class="c3" x="310" y="610" width="650" height="10"/><rect class="c2" x="960" y="610" width="200" height="10"/><rect class="c1" x="1160" y="610" width="40" height="10"/><rect class="c2" x="0" y="620" width="150" height="10"/><rect class="c3" x="150" y="620" width="90" height="10"/><rect class="c2" x="240" y="620" width="20" height="10"/><rect class="c3" x="260" y="620" width="20" height="10"/><rect class="c2" x="280" y="620" width="40" height="10"/><rect class="c3" x="320" y="620" width="620" height="10"/><rect class="c2" x="940" y="620" width="210" height="10"/><rect class="c1" x="1150" y="620" width="50" height="10"/><rect class="c2" x="0" y="630" width="150" height="10"/><rect class="c3" x="150" y="630" width="90" height="10"/><rect class="c2" x="240" y="630" width="80" height="10"/><rect class="c3" x="320" y="630" width="610" height="10"/><rect class="c2" x="930" y="630" width="210" height="10"/><rect class="c1" x="1140" y="630" width="60" height="10"/><rect class="c2" x="0" y="640" width="150" height="10"/><rect class="c3" x="150" y="640" width="690" height="10"/><rect class="c2" x="840" y="640" width="300" height="10"/><rect class="c1" x="1140" y="640" width="60" height="10"/><rect class="c2" x="0" y="650" width="130" height="10"/><rect class="c3" x="130" y="650" width="710" height="10"/><rect class="c2" x="840" y="650" width="300" height="10"/><rect class="c1" x="1140" y="650" width="60" height="10"/><rect class="c1" x="0" y="660" width="10" height="10"/><rect class="c2" x="10" y="660" width="130" height="10"/><rect class="c3" x="140" y="660" width="350" height="10"/><rect class="c4" x="490" y="660" width="50" height="10"/><rect class="c3" x="540" y="660" width="90" height="10"/><rect class="c4" x="630" y="660" width="10" height="10"/><rect class="c3" x="640" y="660" width="20" height="10"/><rect class="c4" x="660" y="660" width="50" height="10"/><rect class="c3" x="710" y="660" width="100" height="10"/><rect class="c2" x="810" y="660" width="380" height="10"/><rect class="c1" x="1190" y="660" width="10" height="10"/><rect class="c1" x="0" y="670" width="20" height="10"/><rect class="c2" x="20" y="670" width="130" height="10"/><rect class="c3" x="150" y="670" width="650" height="10"/><rect class="c2" x="800" y="670" width="380" height="10"/><rect class="c1" x="1180" y="670" width="20" height="10"/><rect class="c1" x="0" y="680" width="30" height="10"/><rect class="c2" x="30" y="680" width="140" height="10"/><rect class="c3" x="170" y="680" width="510" height="10"/><rect class="c4" x="680" y="680" width="20" height="10"/><rect class="c3" x="700" y="680" width="190" height="10"/><rect class="c2" x="890" y="680" width="280" height="10"/><rect class="c1" x="1170" y="680" width="30" height="10"/><rect class="c1" x="0" y="690" width="40" height="10"/><rect class="c2" x="40" y="690" width="140" height="10"/><rect class="c3" x="180" y="690" width="680" height="10"/><rect class="c2" x="860" y="690" width="300" height="10"/><rect class="c1" x="1160" y="690" width="40" height="10"/><rect class="c1" x="0" y="700" width="50" height="10"/><rect class="c2" x="50" y="700" width="200" height="10"/><rect class="c3" x="250" y="700" width="700" height="10"/><rect class="c2" x="950" y="700" width="250" height="10"/><rect class="c1" x="0" y="710" width="60" height="10"/><rect class="c2" x="60" y="710" width="190" height="10"/><rect class="c3" x="250" y="710" width="700" height="10"/><rect class="c2" x="950" y="710" width="250" height="10"/><rect class="c1" x="0" y="720" width="70" height="10"/><rect class="c2" x="70" y="720" width="180" height="10"/><rect class="c3" x="250" y="720" width="700" height="10"/><rect class="c2" x="950" y="720" width="250" height="10"/><rect class="c1" x="0" y="730" width="70" height="10"/><rect class="c2" x="70" y="730" width="190" height="10"/><rect class="c3" x="260" y="730" width="700" height="10"/><rect class="c2" x="960" y="730" width="240" height="10"/><rect class="c1" x="0" y="740" width="70" height="10"/><rect class="c2" x="70" y="740" width="210" height="10"/><rect class="c3" x="280" y="740" width="680" height="10"/><rect class="c2" x="960" y="740" width="240" height="10"/><rect class="c1" x="0" y="750" width="90" height="10"/><rect class="c2" x="90" y="750" width="210" height="10"/><rect class="c3" x="300" y="750" width="10" height="10"/><rect class="c2" x="310" y="750" width="60" height="10"/><rect class="c3" x="370" y="750" width="280" height="10"/><rect class="c2" x="650" y="750" width="100" height="10"/><rect class="c3" x="750" y="750" width="130" height="10"/><rect class="c2" x="880" y="750" width="10" height="10"/><rect class="c3" x="890" y="750" width="70" height="10"/><rect class="c2" x="960" y="750" width="240" height="10"/><rect class="c1" x="0" y="760" width="100" height="10"/><rect class="c2" x="100" y="760" width="200" height="10"/><rect class="c3" x="300" y="760" width="30" height="10"/><rect class="c2" x="330" y="760" width="70" height="10"/><rect class="c3" x="400" y="760" width="50" height="10"/><rect class="c2" x="450" y="760" width="30" height="10"/><rect class="c3" x="480" y="760" width="20" height="10"/><rect class="c2" x="500" y="760" width="10" height="10"/><rect class="c3" x="510" y="760" width="140" height="10"/><rect class="c2" x="650" y="760" width="100" height="10"/><rect class="c3" x="750" y="760" width="100" height="10"/><rect class="c2" x="850" y="760" width="20" height="10"/><rect class="c3" x="870" y="760" width="70" height="10"/><rect class="c2" x="940" y="760" width="260" height="10"/><rect class="c1" x="0" y="770" width="30" height="10"/><rect class="c2" x="30" y="770" width="40" height="10"/><rect class="c1" x="70" y="770" width="60" height="10"/><rect class="c2" x="130" y="770" width="190" height="10"/><rect class="c3" x="320" y="770" width="50" height="10"/><rect class="c2" x="370" y="770" width="70" height="10"/><rect class="c3" x="440" y="770" width="10" height="10"/><rect class="c2" x="450" y="770" width="300" height="10"/><rect class="c3" x="750" y="770" width="80" height="10"/><rect class="c2" x="830" y="770" width="10" height="10"/><rect class="c3" x="840" y="770" width="80" height="10"/><rect class="c2" x="920" y="770" width="120" height="10"/><rect class="c1" x="1040" y="770" width="160" height="10"/><rect class="c1" x="0" y="780" width="50" height="10"/><rect class="c2" x="50" y="780" width="20" height="10"/><rect class="c1" x="70" y="780" width="70" height="10"/><rect class="c2" x="140" y="780" width="610" height="10"/><rect class="c3" x="750" y="780" width="90" height="10"/><rect class="c2" x="840" y="780" width="150" height="10"/><rect class="c1" x="990" y="780" width="210" height="10"/><rect class="c1" x="0" y="790" width="60" height="10"/><rect class="c2" x="60" y="790" width="10" height="10"/><rect class="c1" x="70" y="790" width="70" height="10"/><rect class="c2" x="140" y="790" width="640" height="10"/><rect class="c3" x="780" y="790" width="60" height="10"/><rect class="c2" x="840" y="790" width="130" height="10"/><rect class="c1" x="970" y="790" width="230" height="10"/><rect x="0" y="0" width="1200" height="800" filter="url(#g)" opacity="0.04"/></svg>