<svg xmlns="http://www.w3.org/2000/svg" viewBox="0 0 1200 800" preserveAspectRatio="xMidYMid slice" role="img" aria-label="Abstract teal halftone field"><style>svg{--bg:#f8f3ee;--dot:#457468}@media (prefers-color-scheme:dark){svg{--bg:#1a2520;--dot:#a4c6b9}}.dot{fill:var(--dot)}</style><rect x="0" y="0" width="1200" height="800" fill="var(--bg)"/><circle class="dot" cx="51" cy="51" r="2"/><circle class="dot" cx="153" cy="51" r="1.6"/><circle class="dot" cx="255" cy="51" r="3.5"/><circle class="dot" cx="357" cy="51" r="5"/><circle class="dot" cx="459" cy="51" r="4.5"/><circle class="dot" cx="561" cy="51" r="5.7"/><circle class="dot" cx="663" cy="51" r="7.2"/><circle class="dot" cx="765" cy="51" r="7.7"/><circle class="dot" cx="867" cy="51" r="5.6"/><circle class="dot" cx="969" cy="51" r="3.1"/><circle class="dot" cx="1071" cy="51" r="2.7"/><circle class="dot" cx="1173" cy="51" r="1.4"/><circle class="dot" cx="51" cy="153" r="4"/><circle class="dot" cx="153" cy="153" r="2.9"/><circle class="dot" cx="255" cy="153" r="2.7"/><circle class="dot" cx="357" cy="153" r="6"/><circle class="dot" cx="459" cy="153" r="10.5"/><circle class="dot" cx="561" cy="153" r="15.8"/><circle class="dot" cx="663" cy="153" r="19.8"/><circle class="dot" cx="765" cy="153" r="20"/><circle class="dot" cx="867" cy="153" r="16.9"/><circle class="dot" cx="969" cy="153" r="12.2"/><circle class="dot" cx="1071" cy="153" r="7.4"/><circle class="dot" cx="1173" cy="153" r="4.4"/><circle class="dot" cx="51" cy="255" r="2"/><circle class="dot" cx="153" cy="255" r="3"/><circle class="dot" cx="255" cy="255" r="5"/><circle class="dot" cx="357" cy="255" r="11.2"/><circle class="dot" cx="459" cy="255" r="21.4"/><circle class="dot" cx="561" cy="255" r="34.2"/><circle class="dot" cx="663" cy="255" r="43.4"/><circle class="dot" cx="765" cy="255" r="44.2"/><circle class="dot" cx="867" cy="255" r="36.2"/><circle class="dot" cx="969" cy="255" r="23.6"/><circle class="dot" cx="1071" cy="255" r="13.4"/><circle class="dot" cx="1173" cy="255" r="6.7"/><circle class="dot" cx="51" cy="357" r="1.6"/><circle class="dot" cx="153" cy="357" r="3.1"/><circle class="dot" cx="255" cy="357" r="7.2"/><circle class="dot" cx="357" cy="357" r="15.1"/><circle class="dot" cx="459" cy="357" r="29.1"/><circle class="dot" cx="561" cy="357" r="46.1"/><circle class="dot" cx="663" cy="357" r="58.7"/><circle class="dot" cx="765" cy="357" r="59.8"/><circle class="dot" cx="867" cy="357" r="48.9"/><circle class="dot" cx="969" cy="357" r="32.3"/><circle class="dot" cx="1071" cy="357" r="17.8"/><circle class="dot" cx="1173" cy="357" r="8.2"/><circle class="dot" cx="51" cy="459" r="2.9"/><circle class="dot" cx="153" cy="459" r="3"/><circle class="dot" cx="255" cy="459" r="6.8"/><circle class="dot" cx="357" cy="459" r="12.8"/><circle class="dot" cx="459" cy="459" r="24.3"/><circle class="dot" cx="561" cy="459" r="38.3"/><circle class="dot" cx="663" cy="459" r="48.5"/><circle class="dot" cx="765" cy="459" r="49.3"/><circle class="dot" cx="867" cy="459" r="40.1"/><circle class="dot" cx="969" cy="459" r="26.5"/><circle class="dot" cx="1071" cy="459" r="14.6"/><circle class="dot" cx="1173" cy="459" r="7.7"/><circle class="dot" cx="51" cy="561" r="3.8"/><circle class="dot" cx="153" cy="561" r="3"/><circle class="dot" cx="255" cy="561" r="4.2"/><circle class="dot" cx="357" cy="561" r="7.6"/><circle class="dot" cx="459" cy="561" r="12.6"/><circle class="dot" cx="561" cy="561" r="19.3"/><circle class="dot" cx="663" cy="561" r="24.9"/><circle class="dot" cx="765" cy="561" r="25.2"/><circle class="dot" cx="867" cy="561" r="20.5"/><circle class="dot" cx="969" cy="561" r="14.2"/><circle class="dot" cx="1071" cy="561" r="7.6"/><circle class="dot" cx="1173" cy="561" r="3.8"/><circle class="dot" cx="51" cy="663" r="3.5"/><circle class="dot" cx="153" cy="663" r="3.9"/><circle class="dot" cx="255" cy="663" r="1.8"/><circle class="dot" cx="357" cy="663" r="2.4"/><circle class="dot" cx="459" cy="663" r="5.7"/><circle class="dot" cx="561" cy="663" r="7.1"/><circle class="dot" cx="663" cy="663" r="8.9"/><circle class="dot" cx="765" cy="663" r="9.2"/><circle class="dot" cx="867" cy="663" r="6.8"/><circle class="dot" cx="969" cy="663" r="5.8"/><circle class="dot" cx="1071" cy="663" r="3"/><circle class="dot" cx="1173" cy="663" r="2.6"/><circle class="dot" cx="51" cy="765" r="3.6"/><circle class="dot" cx="153" cy="765" r="3.9"/><circle class="dot" cx="255" cy="765" r="2.8"/><circle class="dot" cx="357" cy="765" r="2.4"/><circle class="dot" cx="459" cy="765" r="3.2"/><circle class="dot" cx="561" cy="765" r="4.1"/><circle class="dot" cx="663" cy="765" r="2.5"/><circle class="dot" cx="765" cy="765" r="2.7"/><circle class="dot" cx="867" cy="765" r="3.2"/><circle class="dot" cx="969" cy="765" r="3.1"/><circle class="dot" cx="1071" cy="765" r="3.4"/><circle class="dot" cx="1173" cy="765" r="2.6"/></svg>