<svg xmlns="http://www.w3.org/2000/svg" viewBox="0 0 1200 800" preserveAspectRatio="xMidYMid slice" role="img" aria-label="Abstract teal halftone field"><style>svg{--bg:#f8f3ee;--dot:#4f8375}@media (prefers-color-scheme:dark){svg{--bg:#1a2520;--dot:#a4c6b9}}.dot{fill:var(--dot)}</style><rect x="0" y="0" width="1200" height="800" fill="var(--bg)"/><circle class="dot" cx="17" cy="17" r="1"/><circle class="dot" cx="51" cy="17" r="1"/><circle class="dot" cx="85" cy="17" r="1"/><circle class="dot" cx="119" cy="17" r="0.9"/><circle class="dot" cx="1173" cy="17" r="1"/><circle class="dot" cx="17" cy="51" r="0.8"/><circle class="dot" cx="51" cy="51" r="6.9"/><circle class="dot" cx="85" cy="51" r="7.7"/><circle class="dot" cx="119" cy="51" r="8.3"/><circle class="dot" cx="153" cy="51" r="1.3"/><circle class="dot" cx="187" cy="51" r="2.9"/><circle class="dot" cx="221" cy="51" r="2.9"/><circle class="dot" cx="255" cy="51" r="2.5"/><circle class="dot" cx="323" cy="51" r="2.4"/><circle class="dot" cx="357" cy="51" r="2.8"/><circle class="dot" cx="391" cy="51" r="3"/><circle class="dot" cx="425" cy="51" r="3.1"/><circle class="dot" cx="493" cy="51" r="13.4"/><circle class="dot" cx="527" cy="51" r="13.9"/><circle class="dot" cx="561" cy="51" r="14.2"/><circle class="dot" cx="629" cy="51" r="3.4"/><circle class="dot" cx="663" cy="51" r="3.5"/><circle class="dot" cx="697" cy="51" r="3.5"/><circle class="dot" cx="799" cy="51" r="3.5"/><circle class="dot" cx="833" cy="51" r="3.4"/><circle class="dot" cx="867" cy="51" r="3.3"/><circle class="dot" cx="935" cy="51" r="14.4"/><circle class="dot" cx="969" cy="51" r="14.3"/><circle class="dot" cx="1003" cy="51" r="14"/><circle class="dot" cx="1105" cy="51" r="2.8"/><circle class="dot" cx="1139" cy="51" r="3"/><circle class="dot" cx="1173" cy="51" r="3.4"/><circle class="dot" cx="17" cy="85" r="0.8"/><circle class="dot" cx="51" cy="85" r="7.3"/><circle class="dot" cx="85" cy="85" r="8.1"/><circle class="dot" cx="119" cy="85" r="8.7"/><circle class="dot" cx="153" cy="85" r="1.3"/><circle class="dot" cx="187" cy="85" r="3.1"/><circle class="dot" cx="221" cy="85" r="3.1"/><circle class="dot" cx="255" cy="85" r="2.8"/><circle class="dot" cx="323" cy="85" r="2.7"/><circle class="dot" cx="357" cy="85" r="3"/><circle class="dot" cx="391" cy="85" r="3.2"/><circle class="dot" cx="425" cy="85" r="3.3"/><circle class="dot" cx="493" cy="85" r="14.4"/><circle class="dot" cx="527" cy="85" r="14.8"/><circle class="dot" cx="561" cy="85" r="15.2"/><circle class="dot" cx="629" cy="85" r="3.6"/><circle class="dot" cx="663" cy="85" r="3.7"/><circle class="dot" cx="697" cy="85" r="3.7"/><circle class="dot" cx="799" cy="85" r="3.6"/><circle class="dot" cx="833" cy="85" r="3.6"/><circle class="dot" cx="867" cy="85" r="3.6"/><circle class="dot" cx="935" cy="85" r="15.5"/><circle class="dot" cx="969" cy="85" r="15.3"/><circle class="dot" cx="1003" cy="85" r="15"/><circle class="dot" cx="1105" cy="85" r="3.1"/><circle class="dot" cx="1139" cy="85" r="3.2"/><circle class="dot" cx="1173" cy="85" r="3.4"/><circle class="dot" cx="17" cy="119" r="1.2"/><circle class="dot" cx="51" cy="119" r="7.6"/><circle class="dot" cx="85" cy="119" r="8.2"/><circle class="dot" cx="119" cy="119" r="8.8"/><circle class="dot" cx="153" cy="119" r="1"/><circle class="dot" cx="187" cy="119" r="2.9"/><circle class="dot" cx="221" cy="119" r="3"/><circle class="dot" cx="255" cy="119" r="3.1"/><circle class="dot" cx="289" cy="119" r="0.8"/><circle class="dot" cx="323" cy="119" r="3.3"/><circle class="dot" cx="357" cy="119" r="3.3"/><circle class="dot" cx="391" cy="119" r="3.3"/><circle class="dot" cx="425" cy="119" r="3.3"/><circle class="dot" cx="493" cy="119" r="15.3"/><circle class="dot" cx="527" cy="119" r="15.8"/><circle class="dot" cx="561" cy="119" r="16.2"/><circle class="dot" cx="629" cy="119" r="3.8"/><circle class="dot" cx="663" cy="119" r="3.9"/><circle class="dot" cx="697" cy="119" r="3.9"/><circle class="dot" cx="799" cy="119" r="3.9"/><circle class="dot" cx="833" cy="119" r="3.9"/><circle class="dot" cx="867" cy="119" r="3.9"/><circle class="dot" cx="935" cy="119" r="16.6"/><circle class="dot" cx="969" cy="119" r="16.2"/><circle class="dot" cx="1003" cy="119" r="15.8"/><circle class="dot" cx="1105" cy="119" r="3.7"/><circle class="dot" cx="1139" cy="119" r="3.5"/><circle class="dot" cx="1173" cy="119" r="3.2"/><circle class="dot" cx="17" cy="153" r="1.2"/><circle class="dot" cx="51" cy="153" r="1.1"/><circle class="dot" cx="85" cy="153" r="1"/><circle class="dot" cx="119" cy="153" r="0.9"/><circle class="dot" cx="153" cy="153" r="0.9"/><circle class="dot" cx="187" cy="153" r="0.9"/><circle class="dot" cx="221" cy="153" r="0.9"/><circle class="dot" cx="255" cy="153" r="0.9"/><circle class="dot" cx="289" cy="153" r="0.8"/><circle class="dot" cx="323" cy="153" r="0.7"/><circle class="dot" cx="17" cy="187" r="1.1"/><circle class="dot" cx="51" cy="187" r="8.1"/><circle class="dot" cx="85" cy="187" r="8.7"/><circle class="dot" cx="119" cy="187" r="9.4"/><circle class="dot" cx="153" cy="187" r="1.1"/><circle class="dot" cx="187" cy="187" r="3.4"/><circle class="dot" cx="221" cy="187" r="3.5"/><circle class="dot" cx="255" cy="187" r="3.5"/><circle class="dot" cx="289" cy="187" r="0.8"/><circle class="dot" cx="323" cy="187" r="3.6"/><circle class="dot" cx="357" cy="187" r="3.7"/><circle class="dot" cx="391" cy="187" r="3.7"/><circle class="dot" cx="425" cy="187" r="3.8"/><circle class="dot" cx="493" cy="187" r="16.7"/><circle class="dot" cx="527" cy="187" r="17.2"/><circle class="dot" cx="561" cy="187" r="17.7"/><circle class="dot" cx="629" cy="187" r="4.1"/><circle class="dot" cx="663" cy="187" r="4.2"/><circle class="dot" cx="697" cy="187" r="4.3"/><circle class="dot" cx="799" cy="187" r="4.3"/><circle class="dot" cx="833" cy="187" r="4.3"/><circle class="dot" cx="867" cy="187" r="4.2"/><circle class="dot" cx="935" cy="187" r="18"/><circle class="dot" cx="969" cy="187" r="17.5"/><circle class="dot" cx="1003" cy="187" r="16.9"/><circle class="dot" cx="1105" cy="187" r="3.5"/><circle class="dot" cx="1139" cy="187" r="3.4"/><circle class="dot" cx="1173" cy="187" r="3.1"/><circle class="dot" cx="17" cy="221" r="1.1"/><circle class="dot" cx="51" cy="221" r="8.3"/><circle class="dot" cx="85" cy="221" r="8.9"/><circle class="dot" cx="119" cy="221" r="9.6"/><circle class="dot" cx="153" cy="221" r="1"/><circle class="dot" cx="187" cy="221" r="3.4"/><circle class="dot" cx="221" cy="221" r="3.4"/><circle class="dot" cx="255" cy="221" r="3.4"/><circle class="dot" cx="323" cy="221" r="3.6"/><circle class="dot" cx="357" cy="221" r="3.7"/><circle class="dot" cx="391" cy="221" r="3.9"/><circle class="dot" cx="425" cy="221" r="3.9"/><circle class="dot" cx="493" cy="221" r="17.2"/><circle class="dot" cx="527" cy="221" r="17.8"/><circle class="dot" cx="561" cy="221" r="18.3"/><circle class="dot" cx="629" cy="221" r="4.2"/><circle class="dot" cx="663" cy="221" r="4.3"/><circle class="dot" cx="697" cy="221" r="4.4"/><circle class="dot" cx="799" cy="221" r="4.4"/><circle class="dot" cx="833" cy="221" r="4.4"/><circle class="dot" cx="867" cy="221" r="4.3"/><circle class="dot" cx="935" cy="221" r="18.5"/><circle class="dot" cx="969" cy="221" r="18"/><circle class="dot" cx="1003" cy="221" r="17.5"/><circle class="dot" cx="1105" cy="221" r="3.6"/><circle class="dot" cx="1139" cy="221" r="3.4"/><circle class="dot" cx="1173" cy="221" r="3.3"/><circle class="dot" cx="17" cy="255" r="1"/><circle class="dot" cx="51" cy="255" r="8.3"/><circle class="dot" cx="85" cy="255" r="9"/><circle class="dot" cx="119" cy="255" r="9.7"/><circle class="dot" cx="153" cy="255" r="0.8"/><circle class="dot" cx="187" cy="255" r="3.1"/><circle class="dot" cx="221" cy="255" r="3.2"/><circle class="dot" cx="255" cy="255" r="3.1"/><circle class="dot" cx="323" cy="255" r="3.3"/><circle class="dot" cx="357" cy="255" r="3.7"/><circle class="dot" cx="391" cy="255" r="4"/><circle class="dot" cx="425" cy="255" r="4"/><circle class="dot" cx="493" cy="255" r="17.8"/><circle class="dot" cx="527" cy="255" r="18.3"/><circle class="dot" cx="561" cy="255" r="18.8"/><circle class="dot" cx="629" cy="255" r="4.4"/><circle class="dot" cx="663" cy="255" r="4.4"/><circle class="dot" cx="697" cy="255" r="4.4"/><circle class="dot" cx="799" cy="255" r="4.5"/><circle class="dot" cx="833" cy="255" r="4.4"/><circle class="dot" cx="867" cy="255" r="4.3"/><circle class="dot" cx="935" cy="255" r="18.8"/><circle class="dot" cx="969" cy="255" r="18.4"/><circle class="dot" cx="1003" cy="255" r="17.9"/><circle class="dot" cx="1105" cy="255" r="3.7"/><circle class="dot" cx="1139" cy="255" r="3.6"/><circle class="dot" cx="1173" cy="255" r="3.7"/><circle class="dot" cx="17" cy="289" r="0.8"/><circle class="dot" cx="51" cy="289" r="8.4"/><circle class="dot" cx="85" cy="289" r="9.2"/><circle class="dot" cx="119" cy="289" r="9.9"/><circle class="dot" cx="153" cy="289" r="0.7"/><circle class="dot" cx="187" cy="289" r="3"/><circle class="dot" cx="221" cy="289" r="3.1"/><circle class="dot" cx="255" cy="289" r="3"/><circle class="dot" cx="323" cy="289" r="3.3"/><circle class="dot" cx="357" cy="289" r="3.7"/><circle class="dot" cx="391" cy="289" r="4"/><circle class="dot" cx="425" cy="289" r="4"/><circle class="dot" cx="493" cy="289" r="17.9"/><circle class="dot" cx="527" cy="289" r="18.5"/><circle class="dot" cx="561" cy="289" r="18.9"/><circle class="dot" cx="629" cy="289" r="4.4"/><circle class="dot" cx="663" cy="289" r="4.4"/><circle class="dot" cx="697" cy="289" r="4.5"/><circle class="dot" cx="799" cy="289" r="4.5"/><circle class="dot" cx="833" cy="289" r="4.4"/><circle class="dot" cx="867" cy="289" r="4.4"/><circle class="dot" cx="935" cy="289" r="19"/><circle class="dot" cx="969" cy="289" r="18.6"/><circle class="dot" cx="1003" cy="289" r="18.1"/><circle class="dot" cx="1105" cy="289" r="3.7"/><circle class="dot" cx="1139" cy="289" r="3.7"/><circle class="dot" cx="1173" cy="289" r="3.6"/><circle class="dot" cx="51" cy="323" r="0.8"/><circle class="dot" cx="85" cy="323" r="1.3"/><circle class="dot" cx="119" cy="323" r="1.2"/><circle class="dot" cx="153" cy="323" r="0.8"/><circle class="dot" cx="51" cy="357" r="8.2"/><circle class="dot" cx="85" cy="357" r="9.2"/><circle class="dot" cx="119" cy="357" r="9.9"/><circle class="dot" cx="153" cy="357" r="0.7"/><circle class="dot" cx="187" cy="357" r="2.9"/><circle class="dot" cx="221" cy="357" r="2.9"/><circle class="dot" cx="255" cy="357" r="2.9"/><circle class="dot" cx="323" cy="357" r="3.1"/><circle class="dot" cx="357" cy="357" r="3.5"/><circle class="dot" cx="391" cy="357" r="3.8"/><circle class="dot" cx="425" cy="357" r="3.9"/><circle class="dot" cx="493" cy="357" r="17.7"/><circle class="dot" cx="527" cy="357" r="18.2"/><circle class="dot" cx="561" cy="357" r="18.7"/><circle class="dot" cx="629" cy="357" r="4.3"/><circle class="dot" cx="663" cy="357" r="4.4"/><circle class="dot" cx="697" cy="357" r="4.4"/><circle class="dot" cx="799" cy="357" r="4.4"/><circle class="dot" cx="833" cy="357" r="4.4"/><circle class="dot" cx="867" cy="357" r="4.4"/><circle class="dot" cx="935" cy="357" r="18.9"/><circle class="dot" cx="969" cy="357" r="18.4"/><circle class="dot" cx="1003" cy="357" r="17.8"/><circle class="dot" cx="1105" cy="357" r="3.8"/><circle class="dot" cx="1139" cy="357" r="3.6"/><circle class="dot" cx="1173" cy="357" r="3.4"/><circle class="dot" cx="17" cy="391" r="1.3"/><circle class="dot" cx="51" cy="391" r="8"/><circle class="dot" cx="85" cy="391" r="8.3"/><circle class="dot" cx="119" cy="391" r="9"/><circle class="dot" cx="187" cy="391" r="3.2"/><circle class="dot" cx="221" cy="391" r="3.2"/><circle class="dot" cx="255" cy="391" r="3"/><circle class="dot" cx="323" cy="391" r="3.1"/><circle class="dot" cx="357" cy="391" r="3.4"/><circle class="dot" cx="391" cy="391" r="3.6"/><circle class="dot" cx="425" cy="391" r="3.7"/><circle class="dot" cx="493" cy="391" r="17.3"/><circle class="dot" cx="527" cy="391" r="17.8"/><circle class="dot" cx="561" cy="391" r="18.3"/><circle class="dot" cx="629" cy="391" r="4.3"/><circle class="dot" cx="663" cy="391" r="4.3"/><circle class="dot" cx="697" cy="391" r="4.4"/><circle class="dot" cx="799" cy="391" r="4.3"/><circle class="dot" cx="833" cy="391" r="4.3"/><circle class="dot" cx="867" cy="391" r="4.2"/><circle class="dot" cx="935" cy="391" r="18.4"/><circle class="dot" cx="969" cy="391" r="17.9"/><circle class="dot" cx="1003" cy="391" r="17.4"/><circle class="dot" cx="1105" cy="391" r="3.9"/><circle class="dot" cx="1139" cy="391" r="3.8"/><circle class="dot" cx="1173" cy="391" r="3.6"/><circle class="dot" cx="17" cy="425" r="1.2"/><circle class="dot" cx="51" cy="425" r="7.9"/><circle class="dot" cx="85" cy="425" r="8.3"/><circle class="dot" cx="119" cy="425" r="9"/><circle class="dot" cx="153" cy="425" r="0.8"/><circle class="dot" cx="187" cy="425" r="3.2"/><circle class="dot" cx="221" cy="425" r="3.2"/><circle class="dot" cx="255" cy="425" r="2.9"/><circle class="dot" cx="323" cy="425" r="2.9"/><circle class="dot" cx="357" cy="425" r="3.2"/><circle class="dot" cx="391" cy="425" r="3.4"/><circle class="dot" cx="425" cy="425" r="3.6"/><circle class="dot" cx="493" cy="425" r="16.8"/><circle class="dot" cx="527" cy="425" r="17.3"/><circle class="dot" cx="561" cy="425" r="17.8"/><circle class="dot" cx="629" cy="425" r="4.2"/><circle class="dot" cx="663" cy="425" r="4.3"/><circle class="dot" cx="697" cy="425" r="4.3"/><circle class="dot" cx="799" cy="425" r="4.2"/><circle class="dot" cx="833" cy="425" r="4.2"/><circle class="dot" cx="867" cy="425" r="4.2"/><circle class="dot" cx="935" cy="425" r="17.9"/><circle class="dot" cx="969" cy="425" r="17.4"/><circle class="dot" cx="1003" cy="425" r="16.8"/><circle class="dot" cx="1105" cy="425" r="3.7"/><circle class="dot" cx="1139" cy="425" r="3.6"/><circle class="dot" cx="1173" cy="425" r="3.5"/><circle class="dot" cx="17" cy="459" r="0.9"/><circle class="dot" cx="51" cy="459" r="1"/><circle class="dot" cx="85" cy="459" r="1.1"/><circle class="dot" cx="119" cy="459" r="1"/><circle class="dot" cx="153" cy="459" r="1.1"/><circle class="dot" cx="187" cy="459" r="1.1"/><circle class="dot" cx="221" cy="459" r="0.9"/><circle class="dot" cx="17" cy="493" r="1"/><circle class="dot" cx="51" cy="493" r="0.9"/><circle class="dot" cx="85" cy="493" r="0.8"/><circle class="dot" cx="119" cy="493" r="0.8"/><circle class="dot" cx="153" cy="493" r="1"/><circle class="dot" cx="187" cy="493" r="1.1"/><circle class="dot" cx="221" cy="493" r="0.9"/><circle class="dot" cx="1173" cy="493" r="0.7"/><circle class="dot" cx="17" cy="527" r="1.3"/><circle class="dot" cx="51" cy="527" r="6.7"/><circle class="dot" cx="85" cy="527" r="6.8"/><circle class="dot" cx="119" cy="527" r="7.4"/><circle class="dot" cx="187" cy="527" r="2.9"/><circle class="dot" cx="221" cy="527" r="2.9"/><circle class="dot" cx="255" cy="527" r="2.6"/><circle class="dot" cx="323" cy="527" r="2.7"/><circle class="dot" cx="357" cy="527" r="3.3"/><circle class="dot" cx="391" cy="527" r="3.7"/><circle class="dot" cx="425" cy="527" r="3.6"/><circle class="dot" cx="493" cy="527" r="14.3"/><circle class="dot" cx="527" cy="527" r="14.8"/><circle class="dot" cx="561" cy="527" r="15.3"/><circle class="dot" cx="629" cy="527" r="3.7"/><circle class="dot" cx="663" cy="527" r="3.8"/><circle class="dot" cx="697" cy="527" r="3.9"/><circle class="dot" cx="799" cy="527" r="4"/><circle class="dot" cx="833" cy="527" r="3.9"/><circle class="dot" cx="867" cy="527" r="3.8"/><circle class="dot" cx="935" cy="527" r="15.5"/><circle class="dot" cx="969" cy="527" r="15.1"/><circle class="dot" cx="1003" cy="527" r="14.6"/><circle class="dot" cx="1105" cy="527" r="3.3"/><circle class="dot" cx="1139" cy="527" r="3.3"/><circle class="dot" cx="1173" cy="527" r="3.3"/><circle class="dot" cx="17" cy="561" r="1.2"/><circle class="dot" cx="51" cy="561" r="6.6"/><circle class="dot" cx="85" cy="561" r="6.8"/><circle class="dot" cx="119" cy="561" r="7.3"/><circle class="dot" cx="153" cy="561" r="0.7"/><circle class="dot" cx="187" cy="561" r="2.6"/><circle class="dot" cx="221" cy="561" r="2.6"/><circle class="dot" cx="255" cy="561" r="2.5"/><circle class="dot" cx="323" cy="561" r="2.6"/><circle class="dot" cx="357" cy="561" r="3.1"/><circle class="dot" cx="391" cy="561" r="3.5"/><circle class="dot" cx="425" cy="561" r="3.5"/><circle class="dot" cx="493" cy="561" r="13.4"/><circle class="dot" cx="527" cy="561" r="13.9"/><circle class="dot" cx="561" cy="561" r="14.3"/><circle class="dot" cx="629" cy="561" r="3.6"/><circle class="dot" cx="663" cy="561" r="3.6"/><circle class="dot" cx="697" cy="561" r="3.6"/><circle class="dot" cx="799" cy="561" r="3.7"/><circle class="dot" cx="833" cy="561" r="3.6"/><circle class="dot" cx="867" cy="561" r="3.6"/><circle class="dot" cx="935" cy="561" r="14.5"/><circle class="dot" cx="969" cy="561" r="14.2"/><circle class="dot" cx="1003" cy="561" r="13.8"/><circle class="dot" cx="1105" cy="561" r="3.1"/><circle class="dot" cx="1139" cy="561" r="3.1"/><circle class="dot" cx="1173" cy="561" r="3.2"/><circle class="dot" cx="17" cy="595" r="1"/><circle class="dot" cx="51" cy="595" r="6.5"/><circle class="dot" cx="85" cy="595" r="7.3"/><circle class="dot" cx="119" cy="595" r="7.7"/><circle class="dot" cx="153" cy="595" r="1"/><circle class="dot" cx="187" cy="595" r="2.2"/><circle class="dot" cx="221" cy="595" r="2.2"/><circle class="dot" cx="255" cy="595" r="2.3"/><circle class="dot" cx="323" cy="595" r="2.5"/><circle class="dot" cx="357" cy="595" r="3"/><circle class="dot" cx="391" cy="595" r="3.3"/><circle class="dot" cx="425" cy="595" r="3.3"/><circle class="dot" cx="493" cy="595" r="12.5"/><circle class="dot" cx="527" cy="595" r="12.9"/><circle class="dot" cx="561" cy="595" r="13.5"/><circle class="dot" cx="595" cy="595" r="0.7"/><circle class="dot" cx="629" cy="595" r="3.6"/><circle class="dot" cx="663" cy="595" r="3.4"/><circle class="dot" cx="697" cy="595" r="3.3"/><circle class="dot" cx="799" cy="595" r="3.1"/><circle class="dot" cx="833" cy="595" r="3.1"/><circle class="dot" cx="867" cy="595" r="3.2"/><circle class="dot" cx="935" cy="595" r="13.4"/><circle class="dot" cx="969" cy="595" r="13.2"/><circle class="dot" cx="1003" cy="595" r="13"/><circle class="dot" cx="1105" cy="595" r="2.9"/><circle class="dot" cx="1139" cy="595" r="3"/><circle class="dot" cx="1173" cy="595" r="3.3"/><circle class="dot" cx="17" cy="629" r="1.3"/><circle class="dot" cx="51" cy="629" r="1.2"/><circle class="dot" cx="85" cy="629" r="1.1"/><circle class="dot" cx="119" cy="629" r="1.1"/><circle class="dot" cx="153" cy="629" r="1"/><circle class="dot" cx="187" cy="629" r="0.8"/><circle class="dot" cx="221" cy="629" r="0.8"/><circle class="dot" cx="1105" cy="629" r="0.7"/><circle class="dot" cx="1139" cy="629" r="0.9"/><circle class="dot" cx="1173" cy="629" r="1"/><circle class="dot" cx="17" cy="663" r="1.8"/><circle class="dot" cx="51" cy="663" r="5.6"/><circle class="dot" cx="85" cy="663" r="5.2"/><circle class="dot" cx="119" cy="663" r="5.6"/><circle class="dot" cx="153" cy="663" r="0.9"/><circle class="dot" cx="187" cy="663" r="2.6"/><circle class="dot" cx="221" cy="663" r="2.5"/><circle class="dot" cx="255" cy="663" r="2.2"/><circle class="dot" cx="323" cy="663" r="2"/><circle class="dot" cx="357" cy="663" r="2"/><circle class="dot" cx="391" cy="663" r="2"/><circle class="dot" cx="425" cy="663" r="2.2"/><circle class="dot" cx="493" cy="663" r="10.8"/><circle class="dot" cx="527" cy="663" r="11"/><circle class="dot" cx="561" cy="663" r="11"/><circle class="dot" cx="629" cy="663" r="2.8"/><circle class="dot" cx="663" cy="663" r="3.2"/><circle class="dot" cx="697" cy="663" r="3.4"/><circle class="dot" cx="731" cy="663" r="0.8"/><circle class="dot" cx="765" cy="663" r="0.7"/><circle class="dot" cx="799" cy="663" r="3.2"/><circle class="dot" cx="833" cy="663" r="3"/><circle class="dot" cx="867" cy="663" r="2.8"/><circle class="dot" cx="935" cy="663" r="10.9"/><circle class="dot" cx="969" cy="663" r="10.5"/><circle class="dot" cx="1003" cy="663" r="10.1"/><circle class="dot" cx="1071" cy="663" r="0.9"/><circle class="dot" cx="1105" cy="663" r="3"/><circle class="dot" cx="1139" cy="663" r="2.9"/><circle class="dot" cx="1173" cy="663" r="2.6"/><circle class="dot" cx="17" cy="697" r="1.4"/><circle class="dot" cx="51" cy="697" r="5.1"/><circle class="dot" cx="85" cy="697" r="4.9"/><circle class="dot" cx="119" cy="697" r="5.2"/><circle class="dot" cx="153" cy="697" r="0.9"/><circle class="dot" cx="187" cy="697" r="2.4"/><circle class="dot" cx="221" cy="697" r="2.4"/><circle class="dot" cx="255" cy="697" r="2"/><circle class="dot" cx="323" cy="697" r="1.7"/><circle class="dot" cx="357" cy="697" r="1.7"/><circle class="dot" cx="391" cy="697" r="1.8"/><circle class="dot" cx="425" cy="697" r="2"/><circle class="dot" cx="493" cy="697" r="9.6"/><circle class="dot" cx="527" cy="697" r="9.8"/><circle class="dot" cx="561" cy="697" r="9.8"/><circle class="dot" cx="629" cy="697" r="2.6"/><circle class="dot" cx="663" cy="697" r="3"/><circle class="dot" cx="697" cy="697" r="3.2"/><circle class="dot" cx="731" cy="697" r="0.9"/><circle class="dot" cx="765" cy="697" r="0.8"/><circle class="dot" cx="799" cy="697" r="2.9"/><circle class="dot" cx="833" cy="697" r="2.8"/><circle class="dot" cx="867" cy="697" r="2.6"/><circle class="dot" cx="935" cy="697" r="9.8"/><circle class="dot" cx="969" cy="697" r="9.8"/><circle class="dot" cx="1003" cy="697" r="9.6"/><circle class="dot" cx="1037" cy="697" r="0.8"/><circle class="dot" cx="1071" cy="697" r="1"/><circle class="dot" cx="1105" cy="697" r="2.8"/><circle class="dot" cx="1139" cy="697" r="2.7"/><circle class="dot" cx="1173" cy="697" r="2.6"/><circle class="dot" cx="17" cy="731" r="0.8"/><circle class="dot" cx="51" cy="731" r="4.5"/><circle class="dot" cx="85" cy="731" r="4.6"/><circle class="dot" cx="119" cy="731" r="4.8"/><circle class="dot" cx="153" cy="731" r="0.8"/><circle class="dot" cx="187" cy="731" r="2.2"/><circle class="dot" cx="221" cy="731" r="2.1"/><circle class="dot" cx="255" cy="731" r="1.7"/><circle class="dot" cx="323" cy="731" r="1.4"/><circle class="dot" cx="357" cy="731" r="1.5"/><circle class="dot" cx="391" cy="731" r="1.5"/><circle class="dot" cx="425" cy="731" r="1.7"/><circle class="dot" cx="493" cy="731" r="8.2"/><circle class="dot" cx="527" cy="731" r="8.5"/><circle class="dot" cx="561" cy="731" r="8.5"/><circle class="dot" cx="629" cy="731" r="2.3"/><circle class="dot" cx="663" cy="731" r="2.8"/><circle class="dot" cx="697" cy="731" r="3.1"/><circle class="dot" cx="731" cy="731" r="1.1"/><circle class="dot" cx="765" cy="731" r="0.8"/><circle class="dot" cx="799" cy="731" r="2.6"/><circle class="dot" cx="833" cy="731" r="2.5"/><circle class="dot" cx="867" cy="731" r="2.3"/><circle class="dot" cx="935" cy="731" r="8.9"/><circle class="dot" cx="969" cy="731" r="9.3"/><circle class="dot" cx="1003" cy="731" r="9.3"/><circle class="dot" cx="1037" cy="731" r="1.4"/><circle class="dot" cx="1071" cy="731" r="1.2"/><circle class="dot" cx="1105" cy="731" r="2.6"/><circle class="dot" cx="1139" cy="731" r="2.6"/><circle class="dot" cx="1173" cy="731" r="2.6"/><circle class="dot" cx="17" cy="765" r="0.9"/><circle class="dot" cx="51" cy="765" r="4.4"/><circle class="dot" cx="85" cy="765" r="4.2"/><circle class="dot" cx="119" cy="765" r="4.4"/><circle class="dot" cx="187" cy="765" r="1.6"/><circle class="dot" cx="221" cy="765" r="1.6"/><circle class="dot" cx="255" cy="765" r="1.4"/><circle class="dot" cx="323" cy="765" r="1.4"/><circle class="dot" cx="357" cy="765" r="1.5"/><circle class="dot" cx="391" cy="765" r="1.6"/><circle class="dot" cx="425" cy="765" r="1.8"/><circle class="dot" cx="459" cy="765" r="0.8"/><circle class="dot" cx="493" cy="765" r="7.8"/><circle class="dot" cx="527" cy="765" r="7.9"/><circle class="dot" cx="561" cy="765" r="7.9"/><circle class="dot" cx="629" cy="765" r="2.2"/><circle class="dot" cx="663" cy="765" r="2.4"/><circle class="dot" cx="697" cy="765" r="2.5"/><circle class="dot" cx="731" cy="765" r="0.7"/><circle class="dot" cx="799" cy="765" r="2.3"/><circle class="dot" cx="833" cy="765" r="2.4"/><circle class="dot" cx="867" cy="765" r="2.4"/><circle class="dot" cx="901" cy="765" r="0.8"/><circle class="dot" cx="935" cy="765" r="8.2"/><circle class="dot" cx="969" cy="765" r="8.4"/><circle class="dot" cx="1003" cy="765" r="8.3"/><circle class="dot" cx="1037" cy="765" r="1.4"/><circle class="dot" cx="1071" cy="765" r="1.3"/><circle class="dot" cx="1105" cy="765" r="2.6"/><circle class="dot" cx="1139" cy="765" r="2.5"/><circle class="dot" cx="1173" cy="765" r="2.4"/><circle class="dot" cx="17" cy="799" r="0.9"/><circle class="dot" cx="425" cy="799" r="0.8"/><circle class="dot" cx="459" cy="799" r="1.3"/><circle class="dot" cx="493" cy="799" r="1.7"/><circle class="dot" cx="527" cy="799" r="1.6"/><circle class="dot" cx="561" cy="799" r="1.1"/><circle class="dot" cx="595" cy="799" r="0.8"/><circle class="dot" cx="833" cy="799" r="0.9"/><circle class="dot" cx="867" cy="799" r="1.3"/><circle class="dot" cx="901" cy="799" r="1.5"/><circle class="dot" cx="935" cy="799" r="1.4"/><circle class="dot" cx="969" cy="799" r="1.4"/><circle class="dot" cx="1003" cy="799" r="1.3"/><circle class="dot" cx="1037" cy="799" r="1.4"/><circle class="dot" cx="1071" cy="799" r="1.4"/><circle class="dot" cx="1105" cy="799" r="1.4"/><circle class="dot" cx="1139" cy="799" r="1.3"/><circle class="dot" cx="1173" cy="799" r="1.2"/></svg>