<svg xmlns="http://www.w3.org/2000/svg" viewBox="0 0 1200 800" preserveAspectRatio="xMidYMid slice" role="img" aria-label="Abstract teal resolution field"><style>svg{--cv0:#f8f3ee;--cv1:#d6ddd6;--cv2:#a4bbb2;--cv3:#779e93;--cv4:#5e8c7d;--cv5:#4f8375}@media (prefers-color-scheme:dark){svg{--cv0:#1a2520;--cv1:#2c3e38;--cv2:#456057;--cv3:#5e8278;--cv4:#7aa297;--cv5:#a4c6b9}}.c0{fill:var(--cv0)}.c1{fill:var(--cv1)}.c2{fill:var(--cv2)}.c3{fill:var(--cv3)}.c4{fill:var(--cv4)}.c5{fill:var(--cv5)}</style><defs><filter id="g"><feTurbulence type="fractalNoise" baseFrequency="0.9" numOctaves="2" stitchTiles="stitch"/><feColorMatrix type="matrix" values="0 0 0 0 0  0 0 0 0 0  0 0 0 0 0  0 0 0 0.5 0"/></filter></defs><rect class="c0" x="0" y="0" width="1200" height="800"/><rect class="c1" x="0" y="0" width="70" height="10"/><rect class="c1" x="140" y="0" width="1060" height="10"/><rect class="c1" x="0" y="10" width="70" height="10"/><rect class="c1" x="140" y="10" width="1060" height="10"/><rect class="c1" x="0" y="20" width="70" height="10"/><rect class="c1" x="140" y="20" width="1060" height="10"/><rect class="c1" x="0" y="30" width="70" height="10"/><rect class="c1" x="130" y="30" width="570" height="10"/><rect class="c2" x="700" y="30" width="50" height="10"/><rect class="c1" x="750" y="30" width="450" height="10"/><rect class="c1" x="0" y="40" width="70" height="10"/><rect class="c1" x="120" y="40" width="340" height="10"/><rect class="c1" x="500" y="40" width="100" height="10"/><rect class="c2" x="600" y="40" width="150" height="10"/><rect class="c1" x="750" y="40" width="450" height="10"/><rect class="c1" x="0" y="50" width="70" height="10"/><rect class="c1" x="120" y="50" width="140" height="10"/><rect class="c2" x="260" y="50" width="40" height="10"/><rect class="c1" x="300" y="50" width="300" height="10"/><rect class="c2" x="600" y="50" width="250" height="10"/><rect class="c1" x="850" y="50" width="350" height="10"/><rect class="c1" x="0" y="60" width="70" height="10"/><rect class="c1" x="90" y="60" width="90" height="10"/><rect class="c2" x="180" y="60" width="60" height="10"/><rect class="c1" x="240" y="60" width="10" height="10"/><rect class="c2" x="250" y="60" width="50" height="10"/><rect class="c1" x="300" y="60" width="300" height="10"/><rect class="c2" x="600" y="60" width="250" height="10"/><rect class="c1" x="850" y="60" width="350" height="10"/><rect class="c1" x="0" y="70" width="180" height="10"/><rect class="c2" x="180" y="70" width="40" height="10"/><rect class="c1" x="220" y="70" width="10" height="10"/><rect class="c2" x="230" y="70" width="70" height="10"/><rect class="c1" x="300" y="70" width="300" height="10"/><rect class="c2" x="600" y="70" width="120" height="10"/><rect class="c3" x="720" y="70" width="30" height="10"/><rect class="c2" x="750" y="70" width="90" height="10"/><rect class="c1" x="840" y="70" width="360" height="10"/><rect class="c1" x="0" y="80" width="180" height="10"/><rect class="c2" x="180" y="80" width="30" height="10"/><rect class="c1" x="210" y="80" width="10" height="10"/><rect class="c2" x="220" y="80" width="80" height="10"/><rect class="c1" x="300" y="80" width="260" height="10"/><rect class="c2" x="560" y="80" width="40" height="10"/><rect class="c3" x="600" y="80" width="200" height="10"/><rect class="c2" x="800" y="80" width="40" height="10"/><rect class="c1" x="840" y="80" width="360" height="10"/><rect class="c1" x="0" y="90" width="180" height="10"/><rect class="c2" x="180" y="90" width="10" height="10"/><rect class="c1" x="190" y="90" width="10" height="10"/><rect class="c2" x="200" y="90" width="100" height="10"/><rect class="c1" x="300" y="90" width="220" height="10"/><rect class="c2" x="520" y="90" width="80" height="10"/><rect class="c3" x="600" y="90" width="200" height="10"/><rect class="c2" x="800" y="90" width="50" height="10"/><rect class="c1" x="850" y="90" width="350" height="10"/><rect class="c1" x="0" y="100" width="170" height="10"/><rect class="c2" x="170" y="100" width="80" height="10"/><rect class="c1" x="250" y="100" width="270" height="10"/><rect class="c2" x="520" y="100" width="80" height="10"/><rect class="c3" x="600" y="100" width="200" height="10"/><rect class="c2" x="800" y="100" width="80" height="10"/><rect class="c1" x="880" y="100" width="70" height="10"/><rect class="c1" x="1000" y="100" width="200" height="10"/><rect class="c1" x="0" y="110" width="160" height="10"/><rect class="c2" x="160" y="110" width="90" height="10"/><rect class="c1" x="250" y="110" width="40" height="10"/><rect class="c2" x="290" y="110" width="10" height="10"/><rect class="c1" x="300" y="110" width="240" height="10"/><rect class="c2" x="540" y="110" width="60" height="10"/><rect class="c3" x="600" y="110" width="200" height="10"/><rect class="c2" x="800" y="110" width="80" height="10"/><rect class="c1" x="880" y="110" width="70" height="10"/><rect class="c1" x="1000" y="110" width="200" height="10"/><rect class="c1" x="0" y="120" width="120" height="10"/><rect class="c2" x="120" y="120" width="70" height="10"/><rect class="c3" x="190" y="120" width="10" height="10"/><rect class="c2" x="200" y="120" width="40" height="10"/><rect class="c3" x="240" y="120" width="10" height="10"/><rect class="c1" x="250" y="120" width="20" height="10"/><rect class="c2" x="270" y="120" width="20" height="10"/><rect class="c1" x="290" y="120" width="250" height="10"/><rect class="c2" x="540" y="120" width="30" height="10"/><rect class="c3" x="570" y="120" width="60" height="10"/><rect class="c4" x="630" y="120" width="30" height="10"/><rect class="c3" x="660" y="120" width="120" height="10"/><rect class="c2" x="780" y="120" width="60" height="10"/><rect class="c1" x="840" y="120" width="120" height="10"/><rect class="c1" x="1000" y="120" width="100" height="10"/><rect class="c2" x="1100" y="120" width="40" height="10"/><rect class="c1" x="1140" y="120" width="60" height="10"/><rect class="c1" x="0" y="130" width="120" height="10"/><rect class="c2" x="120" y="130" width="60" height="10"/><rect class="c3" x="180" y="130" width="20" height="10"/><rect class="c2" x="200" y="130" width="30" height="10"/><rect class="c3" x="230" y="130" width="20" height="10"/><rect class="c1" x="250" y="130" width="10" height="10"/><rect class="c2" x="260" y="130" width="20" height="10"/><rect class="c1" x="280" y="130" width="260" height="10"/><rect class="c2" x="540" y="130" width="30" height="10"/><rect class="c3" x="570" y="130" width="60" height="10"/><rect class="c4" x="630" y="130" width="60" height="10"/><rect class="c3" x="690" y="130" width="90" height="10"/><rect class="c2" x="780" y="130" width="60" height="10"/><rect class="c1" x="840" y="130" width="140" height="10"/><rect class="c1" x="1000" y="130" width="110" height="10"/><rect class="c2" x="1110" y="130" width="30" height="10"/><rect class="c1" x="1140" y="130" width="60" height="10"/><rect class="c1" x="0" y="140" width="120" height="10"/><rect class="c2" x="120" y="140" width="50" height="10"/><rect class="c3" x="170" y="140" width="30" height="10"/><rect class="c2" x="200" y="140" width="20" height="10"/><rect class="c3" x="220" y="140" width="30" height="10"/><rect class="c2" x="250" y="140" width="30" height="10"/><rect class="c1" x="280" y="140" width="160" height="10"/><rect class="c1" x="450" y="140" width="90" height="10"/><rect class="c2" x="540" y="140" width="30" height="10"/><rect class="c3" x="570" y="140" width="40" height="10"/><rect class="c4" x="610" y="140" width="80" height="10"/><rect class="c3" x="690" y="140" width="100" height="10"/><rect class="c2" x="790" y="140" width="50" height="10"/><rect class="c1" x="840" y="140" width="150" height="10"/><rect class="c1" x="1000" y="140" width="120" height="10"/><rect class="c2" x="1120" y="140" width="20" height="10"/><rect class="c1" x="1140" y="140" width="60" height="10"/><rect class="c1" x="0" y="150" width="120" height="10"/><rect class="c2" x="120" y="150" width="160" height="10"/><rect class="c1" x="280" y="150" width="110" height="10"/><rect class="c1" x="450" y="150" width="90" height="10"/><rect class="c2" x="540" y="150" width="30" height="10"/><rect class="c3" x="570" y="150" width="60" height="10"/><rect class="c4" x="630" y="150" width="30" height="10"/><rect class="c3" x="660" y="150" width="60" height="10"/><rect class="c2" x="720" y="150" width="90" height="10"/><rect class="c1" x="810" y="150" width="200" height="10"/><rect class="c2" x="1010" y="150" width="130" height="10"/><rect class="c1" x="1140" y="150" width="60" height="10"/><rect class="c1" x="0" y="160" width="110" height="10"/><rect class="c2" x="110" y="160" width="130" height="10"/><rect class="c1" x="240" y="160" width="10" height="10"/><rect class="c2" x="250" y="160" width="30" height="10"/><rect class="c1" x="280" y="160" width="80" height="10"/><rect class="c1" x="370" y="160" width="10" height="10"/><rect class="c1" x="450" y="160" width="90" height="10"/><rect class="c2" x="540" y="160" width="30" height="10"/><rect class="c3" x="570" y="160" width="60" height="10"/><rect class="c4" x="630" y="160" width="30" height="10"/><rect class="c3" x="660" y="160" width="60" height="10"/><rect class="c2" x="720" y="160" width="90" height="10"/><rect class="c1" x="810" y="160" width="190" height="10"/><rect class="c2" x="1000" y="160" width="140" height="10"/><rect class="c1" x="1140" y="160" width="60" height="10"/><rect class="c1" x="0" y="170" width="100" height="10"/><rect class="c2" x="100" y="170" width="180" height="10"/><rect class="c1" x="280" y="170" width="80" height="10"/><rect class="c1" x="450" y="170" width="90" height="10"/><rect class="c2" x="540" y="170" width="30" height="10"/><rect class="c3" x="570" y="170" width="60" height="10"/><rect class="c4" x="630" y="170" width="30" height="10"/><rect class="c3" x="660" y="170" width="60" height="10"/><rect class="c2" x="720" y="170" width="90" height="10"/><rect class="c1" x="810" y="170" width="190" height="10"/><rect class="c2" x="1000" y="170" width="150" height="10"/><rect class="c1" x="1150" y="170" width="50" height="10"/><rect class="c2" x="0" y="180" width="280" height="10"/><rect class="c1" x="280" y="180" width="50" height="10"/><rect class="c1" x="480" y="180" width="60" height="10"/><rect class="c2" x="540" y="180" width="60" height="10"/><rect class="c3" x="600" y="180" width="80" height="10"/><rect class="c2" x="680" y="180" width="70" height="10"/><rect class="c1" x="750" y="180" width="250" height="10"/><rect class="c2" x="1000" y="180" width="200" height="10"/><rect class="c2" x="0" y="190" width="280" height="10"/><rect class="c1" x="280" y="190" width="50" height="10"/><rect class="c1" x="480" y="190" width="60" height="10"/><rect class="c2" x="540" y="190" width="60" height="10"/><rect class="c3" x="600" y="190" width="90" height="10"/><rect class="c2" x="690" y="190" width="60" height="10"/><rect class="c1" x="750" y="190" width="210" height="10"/><rect class="c2" x="960" y="190" width="20" height="10"/><rect class="c1" x="980" y="190" width="20" height="10"/><rect class="c2" x="1000" y="190" width="200" height="10"/><rect class="c2" x="0" y="200" width="90" height="10"/><rect class="c3" x="90" y="200" width="10" height="10"/><rect class="c2" x="100" y="200" width="50" height="10"/><rect class="c1" x="150" y="200" width="180" height="10"/><rect class="c1" x="480" y="200" width="100" height="10"/><rect class="c2" x="580" y="200" width="140" height="10"/><rect class="c1" x="720" y="200" width="240" height="10"/><rect class="c2" x="960" y="200" width="40" height="10"/><rect class="c3" x="1000" y="200" width="30" height="10"/><rect class="c2" x="1030" y="200" width="10" height="10"/><rect class="c3" x="1040" y="200" width="60" height="10"/><rect class="c2" x="1100" y="200" width="100" height="10"/><rect class="c2" x="0" y="210" width="90" height="10"/><rect class="c3" x="90" y="210" width="10" height="10"/><rect class="c2" x="100" y="210" width="50" height="10"/><rect class="c1" x="150" y="210" width="150" height="10"/><rect class="c1" x="480" y="210" width="10" height="10"/><rect class="c1" x="500" y="210" width="80" height="10"/><rect class="c2" x="580" y="210" width="140" height="10"/><rect class="c1" x="720" y="210" width="80" height="10"/><rect class="c1" x="870" y="210" width="90" height="10"/><rect class="c2" x="960" y="210" width="40" height="10"/><rect class="c3" x="1000" y="210" width="100" height="10"/><rect class="c2" x="1100" y="210" width="100" height="10"/><rect class="c2" x="0" y="220" width="80" height="10"/><rect class="c3" x="80" y="220" width="20" height="10"/><rect class="c2" x="100" y="220" width="50" height="10"/><rect class="c1" x="150" y="220" width="150" height="10"/><rect class="c1" x="500" y="220" width="280" height="10"/><rect class="c1" x="870" y="220" width="90" height="10"/><rect class="c2" x="960" y="220" width="40" height="10"/><rect class="c3" x="1000" y="220" width="100" height="10"/><rect class="c2" x="1100" y="220" width="100" height="10"/><rect class="c2" x="0" y="230" width="70" height="10"/><rect class="c3" x="70" y="230" width="30" height="10"/><rect class="c2" x="100" y="230" width="50" height="10"/><rect class="c1" x="150" y="230" width="150" height="10"/><rect class="c1" x="320" y="230" width="10" height="10"/><rect class="c1" x="520" y="230" width="260" height="10"/><rect class="c1" x="870" y="230" width="90" height="10"/><rect class="c2" x="960" y="230" width="40" height="10"/><rect class="c3" x="1000" y="230" width="100" height="10"/><rect class="c2" x="1100" y="230" width="100" height="10"/><rect class="c2" x="0" y="240" width="70" height="10"/><rect class="c3" x="70" y="240" width="30" height="10"/><rect class="c2" x="100" y="240" width="50" height="10"/><rect class="c1" x="150" y="240" width="90" height="10"/><rect class="c1" x="270" y="240" width="230" height="10"/><rect class="c1" x="540" y="240" width="220" height="10"/><rect class="c1" x="900" y="240" width="60" height="10"/><rect class="c2" x="960" y="240" width="130" height="10"/><rect class="c3" x="1090" y="240" width="10" height="10"/><rect class="c2" x="1100" y="240" width="100" height="10"/><rect class="c2" x="0" y="250" width="160" height="10"/><rect class="c1" x="160" y="250" width="80" height="10"/><rect class="c1" x="260" y="250" width="240" height="10"/><rect class="c1" x="560" y="250" width="200" height="10"/><rect class="c1" x="900" y="250" width="60" height="10"/><rect class="c2" x="960" y="250" width="140" height="10"/><rect class="c1" x="1100" y="250" width="100" height="10"/><rect class="c2" x="0" y="260" width="160" height="10"/><rect class="c1" x="160" y="260" width="80" height="10"/><rect class="c1" x="250" y="260" width="290" height="10"/><rect class="c1" x="560" y="260" width="240" height="10"/><rect class="c1" x="900" y="260" width="60" height="10"/><rect class="c2" x="960" y="260" width="150" height="10"/><rect class="c1" x="1110" y="260" width="90" height="10"/><rect class="c2" x="0" y="270" width="160" height="10"/><rect class="c1" x="160" y="270" width="80" height="10"/><rect class="c1" x="270" y="270" width="270" height="10"/><rect class="c1" x="560" y="270" width="250" height="10"/><rect class="c1" x="900" y="270" width="90" height="10"/><rect class="c2" x="990" y="270" width="120" height="10"/><rect class="c1" x="1110" y="270" width="90" height="10"/><rect class="c2" x="0" y="280" width="160" height="10"/><rect class="c1" x="160" y="280" width="80" height="10"/><rect class="c1" x="270" y="280" width="90" height="10"/><rect class="c2" x="360" y="280" width="120" height="10"/><rect class="c1" x="480" y="280" width="160" height="10"/><rect class="c2" x="640" y="280" width="120" height="10"/><rect class="c1" x="760" y="280" width="80" height="10"/><rect class="c1" x="900" y="280" width="90" height="10"/><rect class="c2" x="990" y="280" width="20" height="10"/><rect class="c1" x="1010" y="280" width="190" height="10"/><rect class="c2" x="0" y="290" width="160" height="10"/><rect class="c1" x="160" y="290" width="80" height="10"/><rect class="c1" x="270" y="290" width="90" height="10"/><rect class="c2" x="360" y="290" width="120" height="10"/><rect class="c1" x="480" y="290" width="140" height="10"/><rect class="c2" x="620" y="290" width="140" height="10"/><rect class="c1" x="760" y="290" width="80" height="10"/><rect class="c1" x="900" y="290" width="90" height="10"/><rect class="c2" x="990" y="290" width="30" height="10"/><rect class="c1" x="1020" y="290" width="180" height="10"/><rect class="c2" x="0" y="300" width="100" height="10"/><rect class="c1" x="100" y="300" width="10" height="10"/><rect class="c2" x="110" y="300" width="50" height="10"/><rect class="c1" x="160" y="300" width="70" height="10"/><rect class="c1" x="240" y="300" width="60" height="10"/><rect class="c2" x="300" y="300" width="80" height="10"/><rect class="c3" x="380" y="300" width="80" height="10"/><rect class="c2" x="460" y="300" width="40" height="10"/><rect class="c1" x="500" y="300" width="100" height="10"/><rect class="c2" x="600" y="300" width="50" height="10"/><rect class="c3" x="650" y="300" width="90" height="10"/><rect class="c2" x="740" y="300" width="10" height="10"/><rect class="c3" x="750" y="300" width="10" height="10"/><rect class="c2" x="760" y="300" width="40" height="10"/><rect class="c1" x="800" y="300" width="80" height="10"/><rect class="c1" x="910" y="300" width="290" height="10"/><rect class="c2" x="0" y="310" width="100" height="10"/><rect class="c1" x="100" y="310" width="10" height="10"/><rect class="c2" x="110" y="310" width="50" height="10"/><rect class="c1" x="160" y="310" width="60" height="10"/><rect class="c1" x="240" y="310" width="60" height="10"/><rect class="c2" x="300" y="310" width="80" height="10"/><rect class="c3" x="380" y="310" width="80" height="10"/><rect class="c2" x="460" y="310" width="60" height="10"/><rect class="c1" x="520" y="310" width="70" height="10"/><rect class="c2" x="590" y="310" width="40" height="10"/><rect class="c3" x="630" y="310" width="130" height="10"/><rect class="c2" x="760" y="310" width="40" height="10"/><rect class="c1" x="800" y="310" width="80" height="10"/><rect class="c1" x="910" y="310" width="290" height="10"/><rect class="c2" x="0" y="320" width="100" height="10"/><rect class="c1" x="100" y="320" width="10" height="10"/><rect class="c2" x="110" y="320" width="10" height="10"/><rect class="c1" x="120" y="320" width="80" height="10"/><rect class="c1" x="240" y="320" width="60" height="10"/><rect class="c2" x="300" y="320" width="40" height="10"/><rect class="c3" x="340" y="320" width="50" height="10"/><rect class="c4" x="390" y="320" width="50" height="10"/><rect class="c3" x="440" y="320" width="40" height="10"/><rect class="c2" x="480" y="320" width="50" height="10"/><rect class="c1" x="530" y="320" width="50" height="10"/><rect class="c2" x="580" y="320" width="40" height="10"/><rect class="c3" x="620" y="320" width="40" height="10"/><rect class="c4" x="660" y="320" width="80" height="10"/><rect class="c3" x="740" y="320" width="40" height="10"/><rect class="c2" x="780" y="320" width="40" height="10"/><rect class="c1" x="820" y="320" width="380" height="10"/><rect class="c2" x="0" y="330" width="120" height="10"/><rect class="c1" x="120" y="330" width="80" height="10"/><rect class="c1" x="240" y="330" width="30" height="10"/><rect class="c2" x="270" y="330" width="70" height="10"/><rect class="c3" x="340" y="330" width="50" height="10"/><rect class="c4" x="390" y="330" width="50" height="10"/><rect class="c3" x="440" y="330" width="60" height="10"/><rect class="c2" x="500" y="330" width="30" height="10"/><rect class="c1" x="530" y="330" width="50" height="10"/><rect class="c2" x="580" y="330" width="30" height="10"/><rect class="c3" x="610" y="330" width="30" height="10"/><rect class="c4" x="640" y="330" width="110" height="10"/><rect class="c3" x="750" y="330" width="30" height="10"/><rect class="c2" x="780" y="330" width="40" height="10"/><rect class="c1" x="820" y="330" width="110" height="10"/><rect class="c1" x="980" y="330" width="220" height="10"/><rect class="c2" x="0" y="340" width="120" height="10"/><rect class="c1" x="120" y="340" width="80" height="10"/><rect class="c1" x="240" y="340" width="30" height="10"/><rect class="c2" x="270" y="340" width="50" height="10"/><rect class="c3" x="320" y="340" width="40" height="10"/><rect class="c4" x="360" y="340" width="110" height="10"/><rect class="c3" x="470" y="340" width="30" height="10"/><rect class="c2" x="500" y="340" width="40" height="10"/><rect class="c1" x="540" y="340" width="30" height="10"/><rect class="c2" x="570" y="340" width="30" height="10"/><rect class="c3" x="600" y="340" width="30" height="10"/><rect class="c4" x="630" y="340" width="40" height="10"/><rect class="c5" x="670" y="340" width="50" height="10"/><rect class="c4" x="720" y="340" width="40" height="10"/><rect class="c3" x="760" y="340" width="40" height="10"/><rect class="c2" x="800" y="340" width="20" height="10"/><rect class="c1" x="820" y="340" width="100" height="10"/><rect class="c1" x="980" y="340" width="220" height="10"/><rect class="c2" x="0" y="350" width="20" height="10"/><rect class="c1" x="20" y="350" width="180" height="10"/><rect class="c1" x="240" y="350" width="30" height="10"/><rect class="c2" x="270" y="350" width="50" height="10"/><rect class="c3" x="320" y="350" width="40" height="10"/><rect class="c4" x="360" y="350" width="120" height="10"/><rect class="c3" x="480" y="350" width="30" height="10"/><rect class="c2" x="510" y="350" width="30" height="10"/><rect class="c1" x="540" y="350" width="30" height="10"/><rect class="c2" x="570" y="350" width="30" height="10"/><rect class="c3" x="600" y="350" width="30" height="10"/><rect class="c4" x="630" y="350" width="30" height="10"/><rect class="c5" x="660" y="350" width="70" height="10"/><rect class="c4" x="730" y="350" width="40" height="10"/><rect class="c3" x="770" y="350" width="30" height="10"/><rect class="c2" x="800" y="350" width="20" height="10"/><rect class="c1" x="820" y="350" width="100" height="10"/><rect class="c1" x="980" y="350" width="150" height="10"/><rect class="c1" x="0" y="360" width="130" height="10"/><rect class="c1" x="240" y="360" width="30" height="10"/><rect class="c2" x="270" y="360" width="50" height="10"/><rect class="c3" x="320" y="360" width="40" height="10"/><rect class="c4" x="360" y="360" width="40" height="10"/><rect class="c5" x="400" y="360" width="40" height="10"/><rect class="c4" x="440" y="360" width="40" height="10"/><rect class="c3" x="480" y="360" width="30" height="10"/><rect class="c2" x="510" y="360" width="30" height="10"/><rect class="c1" x="540" y="360" width="30" height="10"/><rect class="c2" x="570" y="360" width="30" height="10"/><rect class="c3" x="600" y="360" width="30" height="10"/><rect class="c4" x="630" y="360" width="30" height="10"/><rect class="c5" x="660" y="360" width="70" height="10"/><rect class="c4" x="730" y="360" width="40" height="10"/><rect class="c3" x="770" y="360" width="30" height="10"/><rect class="c2" x="800" y="360" width="20" height="10"/><rect class="c1" x="820" y="360" width="80" height="10"/><rect class="c1" x="0" y="370" width="130" height="10"/><rect class="c1" x="240" y="370" width="30" height="10"/><rect class="c2" x="270" y="370" width="50" height="10"/><rect class="c3" x="320" y="370" width="40" height="10"/><rect class="c4" x="360" y="370" width="40" height="10"/><rect class="c5" x="400" y="370" width="40" height="10"/><rect class="c4" x="440" y="370" width="40" height="10"/><rect class="c3" x="480" y="370" width="30" height="10"/><rect class="c2" x="510" y="370" width="30" height="10"/><rect class="c1" x="540" y="370" width="30" height="10"/><rect class="c2" x="570" y="370" width="30" height="10"/><rect class="c3" x="600" y="370" width="30" height="10"/><rect class="c4" x="630" y="370" width="40" height="10"/><rect class="c5" x="670" y="370" width="60" height="10"/><rect class="c4" x="730" y="370" width="30" height="10"/><rect class="c3" x="760" y="370" width="40" height="10"/><rect class="c2" x="800" y="370" width="20" height="10"/><rect class="c1" x="820" y="370" width="80" height="10"/><rect class="c1" x="0" y="380" width="130" height="10"/><rect class="c1" x="240" y="380" width="30" height="10"/><rect class="c2" x="270" y="380" width="50" height="10"/><rect class="c3" x="320" y="380" width="40" height="10"/><rect class="c4" x="360" y="380" width="110" height="10"/><rect class="c3" x="470" y="380" width="40" height="10"/><rect class="c2" x="510" y="380" width="30" height="10"/><rect class="c1" x="540" y="380" width="30" height="10"/><rect class="c2" x="570" y="380" width="40" height="10"/><rect class="c3" x="610" y="380" width="30" height="10"/><rect class="c4" x="640" y="380" width="40" height="10"/><rect class="c5" x="680" y="380" width="30" height="10"/><rect class="c4" x="710" y="380" width="50" height="10"/><rect class="c3" x="760" y="380" width="30" height="10"/><rect class="c2" x="790" y="380" width="30" height="10"/><rect class="c1" x="820" y="380" width="60" height="10"/><rect class="c1" x="0" y="390" width="130" height="10"/><rect class="c1" x="240" y="390" width="60" height="10"/><rect class="c2" x="300" y="390" width="20" height="10"/><rect class="c3" x="320" y="390" width="40" height="10"/><rect class="c4" x="360" y="390" width="110" height="10"/><rect class="c3" x="470" y="390" width="30" height="10"/><rect class="c2" x="500" y="390" width="40" height="10"/><rect class="c1" x="540" y="390" width="40" height="10"/><rect class="c2" x="580" y="390" width="30" height="10"/><rect class="c3" x="610" y="390" width="40" height="10"/><rect class="c4" x="650" y="390" width="100" height="10"/><rect class="c3" x="750" y="390" width="30" height="10"/><rect class="c2" x="780" y="390" width="40" height="10"/><rect class="c1" x="820" y="390" width="60" height="10"/><rect class="c1" x="0" y="400" width="40" height="10"/><rect class="c1" x="240" y="400" width="60" height="10"/><rect class="c2" x="300" y="400" width="40" height="10"/><rect class="c3" x="340" y="400" width="70" height="10"/><rect class="c4" x="410" y="400" width="10" height="10"/><rect class="c3" x="420" y="400" width="70" height="10"/><rect class="c2" x="490" y="400" width="40" height="10"/><rect class="c1" x="530" y="400" width="50" height="10"/><rect class="c2" x="580" y="400" width="40" height="10"/><rect class="c3" x="620" y="400" width="50" height="10"/><rect class="c4" x="670" y="400" width="60" height="10"/><rect class="c3" x="730" y="400" width="40" height="10"/><rect class="c2" x="770" y="400" width="30" height="10"/><rect class="c1" x="800" y="400" width="60" height="10"/><rect class="c1" x="1150" y="400" width="50" height="10"/><rect class="c1" x="0" y="410" width="40" height="10"/><rect class="c1" x="240" y="410" width="60" height="10"/><rect class="c2" x="300" y="410" width="40" height="10"/><rect class="c3" x="340" y="410" width="70" height="10"/><rect class="c4" x="410" y="410" width="10" height="10"/><rect class="c3" x="420" y="410" width="60" height="10"/><rect class="c2" x="480" y="410" width="40" height="10"/><rect class="c1" x="520" y="410" width="70" height="10"/><rect class="c2" x="590" y="410" width="50" height="10"/><rect class="c3" x="640" y="410" width="120" height="10"/><rect class="c2" x="760" y="410" width="40" height="10"/><rect class="c1" x="800" y="410" width="60" height="10"/><rect class="c1" x="1150" y="410" width="50" height="10"/><rect class="c1" x="20" y="420" width="20" height="10"/><rect class="c1" x="240" y="420" width="90" height="10"/><rect class="c2" x="330" y="420" width="70" height="10"/><rect class="c3" x="400" y="420" width="40" height="10"/><rect class="c2" x="440" y="420" width="70" height="10"/><rect class="c1" x="510" y="420" width="100" height="10"/><rect class="c2" x="610" y="420" width="60" height="10"/><rect class="c3" x="670" y="420" width="60" height="10"/><rect class="c2" x="730" y="420" width="50" height="10"/><rect class="c1" x="780" y="420" width="80" height="10"/><rect class="c1" x="1150" y="420" width="50" height="10"/><rect class="c1" x="20" y="430" width="20" height="10"/><rect class="c1" x="240" y="430" width="90" height="10"/><rect class="c2" x="330" y="430" width="70" height="10"/><rect class="c3" x="400" y="430" width="40" height="10"/><rect class="c2" x="440" y="430" width="60" height="10"/><rect class="c1" x="500" y="430" width="130" height="10"/><rect class="c2" x="630" y="430" width="150" height="10"/><rect class="c1" x="780" y="430" width="80" height="10"/><rect class="c1" x="1150" y="430" width="50" height="10"/><rect class="c1" x="20" y="440" width="30" height="10"/><rect class="c1" x="240" y="440" width="90" height="10"/><rect class="c2" x="330" y="440" width="10" height="10"/><rect class="c1" x="340" y="440" width="20" height="10"/><rect class="c2" x="360" y="440" width="100" height="10"/><rect class="c1" x="460" y="440" width="100" height="10"/><rect class="c1" x="570" y="440" width="90" height="10"/><rect class="c2" x="660" y="440" width="80" height="10"/><rect class="c1" x="740" y="440" width="80" height="10"/><rect class="c1" x="1120" y="440" width="10" height="10"/><rect class="c1" x="1150" y="440" width="50" height="10"/><rect class="c1" x="300" y="450" width="60" height="10"/><rect class="c2" x="360" y="450" width="100" height="10"/><rect class="c1" x="460" y="450" width="80" height="10"/><rect class="c1" x="580" y="450" width="240" height="10"/><rect class="c1" x="1120" y="450" width="80" height="10"/><rect class="c1" x="300" y="460" width="230" height="10"/><rect class="c1" x="600" y="460" width="180" height="10"/><rect class="c1" x="1120" y="460" width="80" height="10"/><rect class="c1" x="300" y="470" width="220" height="10"/><rect class="c1" x="630" y="470" width="150" height="10"/><rect class="c1" x="1110" y="470" width="90" height="10"/><rect class="c1" x="0" y="480" width="40" height="10"/><rect class="c1" x="360" y="480" width="100" height="10"/><rect class="c1" x="670" y="480" width="10" height="10"/><rect class="c1" x="1050" y="480" width="150" height="10"/><rect class="c1" x="0" y="490" width="40" height="10"/><rect class="c1" x="360" y="490" width="100" height="10"/><rect class="c1" x="1040" y="490" width="160" height="10"/><rect class="c1" x="0" y="500" width="100" height="10"/><rect class="c1" x="360" y="500" width="30" height="10"/><rect class="c1" x="1040" y="500" width="160" height="10"/><rect class="c1" x="0" y="510" width="100" height="10"/><rect class="c1" x="270" y="510" width="10" height="10"/><rect class="c1" x="960" y="510" width="20" height="10"/><rect class="c1" x="1040" y="510" width="160" height="10"/><rect class="c1" x="0" y="520" width="110" height="10"/><rect class="c1" x="280" y="520" width="10" height="10"/><rect class="c1" x="960" y="520" width="240" height="10"/><rect class="c1" x="0" y="530" width="120" height="10"/><rect class="c1" x="280" y="530" width="40" height="10"/><rect class="c1" x="960" y="530" width="240" height="10"/><rect class="c1" x="0" y="540" width="120" height="10"/><rect class="c1" x="280" y="540" width="20" height="10"/><rect class="c1" x="960" y="540" width="240" height="10"/><rect class="c1" x="0" y="550" width="150" height="10"/><rect class="c1" x="280" y="550" width="30" height="10"/><rect class="c1" x="960" y="550" width="240" height="10"/><rect class="c1" x="0" y="560" width="150" height="10"/><rect class="c1" x="1040" y="560" width="160" height="10"/><rect class="c1" x="0" y="570" width="150" height="10"/><rect class="c1" x="1030" y="570" width="170" height="10"/><rect class="c1" x="0" y="580" width="160" height="10"/><rect class="c1" x="900" y="580" width="20" height="10"/><rect class="c1" x="950" y="580" width="10" height="10"/><rect class="c1" x="1020" y="580" width="180" height="10"/><rect class="c1" x="0" y="590" width="170" height="10"/><rect class="c1" x="890" y="590" width="30" height="10"/><rect class="c1" x="930" y="590" width="30" height="10"/><rect class="c1" x="1010" y="590" width="190" height="10"/><rect class="c1" x="0" y="600" width="200" height="10"/><rect class="c1" x="450" y="600" width="20" height="10"/><rect class="c1" x="480" y="600" width="40" height="10"/><rect class="c1" x="880" y="600" width="80" height="10"/><rect class="c1" x="1050" y="600" width="150" height="10"/><rect class="c1" x="0" y="610" width="200" height="10"/><rect class="c1" x="450" y="610" width="100" height="10"/><rect class="c1" x="880" y="610" width="80" height="10"/><rect class="c1" x="1040" y="610" width="160" height="10"/><rect class="c1" x="0" y="620" width="200" height="10"/><rect class="c1" x="450" y="620" width="140" height="10"/><rect class="c1" x="870" y="620" width="90" height="10"/><rect class="c1" x="1030" y="620" width="170" height="10"/><rect class="c1" x="0" y="630" width="200" height="10"/><rect class="c1" x="440" y="630" width="100" height="10"/><rect class="c1" x="850" y="630" width="110" height="10"/><rect class="c1" x="990" y="630" width="10" height="10"/><rect class="c1" x="1010" y="630" width="190" height="10"/><rect class="c1" x="0" y="640" width="200" height="10"/><rect class="c1" x="480" y="640" width="90" height="10"/><rect class="c1" x="830" y="640" width="120" height="10"/><rect class="c1" x="970" y="640" width="230" height="10"/><rect class="c1" x="0" y="650" width="180" height="10"/><rect class="c1" x="480" y="650" width="80" height="10"/><rect class="c1" x="800" y="650" width="400" height="10"/><rect class="c1" x="0" y="660" width="180" height="10"/><rect class="c1" x="480" y="660" width="120" height="10"/><rect class="c1" x="800" y="660" width="280" height="10"/><rect class="c1" x="1120" y="660" width="20" height="10"/><rect class="c1" x="0" y="670" width="180" height="10"/><rect class="c1" x="480" y="670" width="160" height="10"/><rect class="c1" x="760" y="670" width="320" height="10"/><rect class="c1" x="1110" y="670" width="30" height="10"/><rect class="c1" x="1180" y="670" width="10" height="10"/><rect class="c1" x="0" y="680" width="180" height="10"/><rect class="c1" x="400" y="680" width="40" height="10"/><rect class="c1" x="520" y="680" width="200" height="10"/><rect class="c1" x="840" y="680" width="240" height="10"/><rect class="c1" x="1090" y="680" width="50" height="10"/><rect class="c1" x="1170" y="680" width="20" height="10"/><rect class="c1" x="0" y="690" width="180" height="10"/><rect class="c1" x="440" y="690" width="20" height="10"/><rect class="c1" x="520" y="690" width="240" height="10"/><rect class="c1" x="810" y="690" width="330" height="10"/><rect class="c1" x="1160" y="690" width="30" height="10"/><rect class="c1" x="0" y="700" width="180" height="10"/><rect class="c1" x="350" y="700" width="100" height="10"/><rect class="c1" x="480" y="700" width="10" height="10"/><rect class="c1" x="520" y="700" width="240" height="10"/><rect class="c1" x="850" y="700" width="100" height="10"/><rect class="c1" x="990" y="700" width="150" height="10"/><rect class="c1" x="1150" y="700" width="50" height="10"/><rect class="c1" x="0" y="710" width="180" height="10"/><rect class="c1" x="350" y="710" width="100" height="10"/><rect class="c1" x="540" y="710" width="210" height="10"/><rect class="c1" x="850" y="710" width="100" height="10"/><rect class="c1" x="970" y="710" width="230" height="10"/><rect class="c1" x="0" y="720" width="240" height="10"/><rect class="c1" x="300" y="720" width="10" height="10"/><rect class="c1" x="350" y="720" width="100" height="10"/><rect class="c1" x="550" y="720" width="200" height="10"/><rect class="c1" x="850" y="720" width="110" height="10"/><rect class="c1" x="1080" y="720" width="120" height="10"/><rect class="c1" x="0" y="730" width="240" height="10"/><rect class="c1" x="300" y="730" width="30" height="10"/><rect class="c1" x="350" y="730" width="100" height="10"/><rect class="c1" x="550" y="730" width="200" height="10"/><rect class="c1" x="850" y="730" width="110" height="10"/><rect class="c1" x="1080" y="730" width="20" height="10"/><rect class="c1" x="1120" y="730" width="80" height="10"/><rect class="c1" x="0" y="740" width="240" height="10"/><rect class="c1" x="300" y="740" width="150" height="10"/><rect class="c1" x="550" y="740" width="200" height="10"/><rect class="c1" x="850" y="740" width="110" height="10"/><rect class="c1" x="1120" y="740" width="80" height="10"/><rect class="c1" x="0" y="750" width="240" height="10"/><rect class="c1" x="300" y="750" width="660" height="10"/><rect class="c1" x="1120" y="750" width="80" height="10"/><rect class="c1" x="0" y="760" width="240" height="10"/><rect class="c1" x="300" y="760" width="510" height="10"/><rect class="c1" x="840" y="760" width="120" height="10"/><rect class="c1" x="1120" y="760" width="80" height="10"/><rect class="c1" x="0" y="770" width="140" height="10"/><rect class="c1" x="230" y="770" width="30" height="10"/><rect class="c1" x="300" y="770" width="480" height="10"/><rect class="c1" x="840" y="770" width="120" height="10"/><rect class="c2" x="1050" y="770" width="70" height="10"/><rect class="c1" x="1120" y="770" width="80" height="10"/><rect class="c1" x="0" y="780" width="140" height="10"/><rect class="c1" x="250" y="780" width="350" height="10"/><rect class="c1" x="720" y="780" width="240" height="10"/><rect class="c2" x="1050" y="780" width="70" height="10"/><rect class="c1" x="1120" y="780" width="80" height="10"/><rect class="c1" x="0" y="790" width="140" height="10"/><rect class="c1" x="270" y="790" width="390" height="10"/><rect class="c1" x="720" y="790" width="240" height="10"/><rect class="c2" x="1050" y="790" width="70" height="10"/><rect class="c1" x="1120" y="790" width="80" height="10"/><rect x="0" y="0" width="1200" height="800" filter="url(#g)" opacity="0.04"/></svg>