<svg xmlns="http://www.w3.org/2000/svg" viewBox="0 0 1200 800" preserveAspectRatio="xMidYMid slice" role="img" aria-label="Abstract teal halftone field"><style>svg{--bg:#f8f3ee;--dot:#457468}@media (prefers-color-scheme:dark){svg{--bg:#1a2520;--dot:#a4c6b9}}.dot{fill:var(--dot)}</style><rect x="0" y="0" width="1200" height="800" fill="var(--bg)"/><circle class="dot" cx="51" cy="51" r="13.8"/><circle class="dot" cx="153" cy="51" r="8.8"/><circle class="dot" cx="255" cy="51" r="29.9"/><circle class="dot" cx="357" cy="51" r="11.2"/><circle class="dot" cx="459" cy="51" r="25.8"/><circle class="dot" cx="561" cy="51" r="23.1"/><circle class="dot" cx="663" cy="51" r="13.8"/><circle class="dot" cx="765" cy="51" r="32"/><circle class="dot" cx="867" cy="51" r="8"/><circle class="dot" cx="969" cy="51" r="21.9"/><circle class="dot" cx="1071" cy="51" r="15.9"/><circle class="dot" cx="1173" cy="51" r="11.7"/><circle class="dot" cx="51" cy="153" r="12.2"/><circle class="dot" cx="153" cy="153" r="10.5"/><circle class="dot" cx="255" cy="153" r="28.6"/><circle class="dot" cx="357" cy="153" r="14.8"/><circle class="dot" cx="459" cy="153" r="22.2"/><circle class="dot" cx="561" cy="153" r="19"/><circle class="dot" cx="663" cy="153" r="12.2"/><circle class="dot" cx="765" cy="153" r="32.2"/><circle class="dot" cx="867" cy="153" r="16.2"/><circle class="dot" cx="969" cy="153" r="19"/><circle class="dot" cx="1071" cy="153" r="12.3"/><circle class="dot" cx="1173" cy="153" r="6.9"/><circle class="dot" cx="51" cy="255" r="8.3"/><circle class="dot" cx="153" cy="255" r="17.7"/><circle class="dot" cx="255" cy="255" r="25.3"/><circle class="dot" cx="357" cy="255" r="26.1"/><circle class="dot" cx="459" cy="255" r="16.1"/><circle class="dot" cx="561" cy="255" r="11.9"/><circle class="dot" cx="663" cy="255" r="23.9"/><circle class="dot" cx="765" cy="255" r="27.7"/><circle class="dot" cx="867" cy="255" r="26.8"/><circle class="dot" cx="969" cy="255" r="14.7"/><circle class="dot" cx="1071" cy="255" r="9.1"/><circle class="dot" cx="1173" cy="255" r="13.5"/><circle class="dot" cx="51" cy="357" r="12.6"/><circle class="dot" cx="153" cy="357" r="26.3"/><circle class="dot" cx="255" cy="357" r="18.8"/><circle class="dot" cx="357" cy="357" r="36.7"/><circle class="dot" cx="459" cy="357" r="16.6"/><circle class="dot" cx="561" cy="357" r="22"/><circle class="dot" cx="663" cy="357" r="35.6"/><circle class="dot" cx="765" cy="357" r="19.4"/><circle class="dot" cx="867" cy="357" r="38"/><circle class="dot" cx="969" cy="357" r="12.1"/><circle class="dot" cx="1071" cy="357" r="17"/><circle class="dot" cx="1173" cy="357" r="18.3"/><circle class="dot" cx="51" cy="459" r="16.7"/><circle class="dot" cx="153" cy="459" r="32.4"/><circle class="dot" cx="255" cy="459" r="9.8"/><circle class="dot" cx="357" cy="459" r="44.4"/><circle class="dot" cx="459" cy="459" r="25.9"/><circle class="dot" cx="561" cy="459" r="31.4"/><circle class="dot" cx="663" cy="459" r="44.4"/><circle class="dot" cx="765" cy="459" r="12.8"/><circle class="dot" cx="867" cy="459" r="45.1"/><circle class="dot" cx="969" cy="459" r="18.7"/><circle class="dot" cx="1071" cy="459" r="22.6"/><circle class="dot" cx="1173" cy="459" r="25.1"/><circle class="dot" cx="51" cy="561" r="12.9"/><circle class="dot" cx="153" cy="561" r="24.8"/><circle class="dot" cx="255" cy="561" r="14"/><circle class="dot" cx="357" cy="561" r="33.6"/><circle class="dot" cx="459" cy="561" r="17.1"/><circle class="dot" cx="561" cy="561" r="21.9"/><circle class="dot" cx="663" cy="561" r="33.3"/><circle class="dot" cx="765" cy="561" r="14.1"/><circle class="dot" cx="867" cy="561" r="34.7"/><circle class="dot" cx="969" cy="561" r="13.2"/><circle class="dot" cx="1071" cy="561" r="17.7"/><circle class="dot" cx="1173" cy="561" r="19.6"/><circle class="dot" cx="51" cy="663" r="6.5"/><circle class="dot" cx="153" cy="663" r="14.7"/><circle class="dot" cx="255" cy="663" r="17"/><circle class="dot" cx="357" cy="663" r="20.8"/><circle class="dot" cx="459" cy="663" r="10.4"/><circle class="dot" cx="561" cy="663" r="11.5"/><circle class="dot" cx="663" cy="663" r="20.3"/><circle class="dot" cx="765" cy="663" r="19.2"/><circle class="dot" cx="867" cy="663" r="23.1"/><circle class="dot" cx="969" cy="663" r="10.5"/><circle class="dot" cx="1071" cy="663" r="9.2"/><circle class="dot" cx="1173" cy="663" r="10.5"/><circle class="dot" cx="51" cy="765" r="7.6"/><circle class="dot" cx="153" cy="765" r="8.3"/><circle class="dot" cx="255" cy="765" r="17.3"/><circle class="dot" cx="357" cy="765" r="12.5"/><circle class="dot" cx="459" cy="765" r="14.1"/><circle class="dot" cx="561" cy="765" r="12"/><circle class="dot" cx="663" cy="765" r="10.9"/><circle class="dot" cx="765" cy="765" r="19.9"/><circle class="dot" cx="867" cy="765" r="13.6"/><circle class="dot" cx="969" cy="765" r="11.6"/><circle class="dot" cx="1071" cy="765" r="8"/><circle class="dot" cx="1173" cy="765" r="6.2"/></svg>