<svg xmlns="http://www.w3.org/2000/svg" viewBox="0 0 1200 800" preserveAspectRatio="xMidYMid slice" role="img" aria-label="Abstract teal resolution field"><style>svg{--cv0:#f8f3ee;--cv1:#d6ddd6;--cv2:#a4bbb2;--cv3:#779e93;--cv4:#5e8c7d;--cv5:#4f8375}@media (prefers-color-scheme:dark){svg{--cv0:#1a2520;--cv1:#2c3e38;--cv2:#456057;--cv3:#5e8278;--cv4:#7aa297;--cv5:#a4c6b9}}.c0{fill:var(--cv0)}.c1{fill:var(--cv1)}.c2{fill:var(--cv2)}.c3{fill:var(--cv3)}.c4{fill:var(--cv4)}.c5{fill:var(--cv5)}</style><defs><filter id="g"><feTurbulence type="fractalNoise" baseFrequency="0.9" numOctaves="2" stitchTiles="stitch"/><feColorMatrix type="matrix" values="0 0 0 0 0  0 0 0 0 0  0 0 0 0 0  0 0 0 0.5 0"/></filter></defs><rect class="c0" x="0" y="0" width="1200" height="800"/><rect class="c1" x="0" y="0" width="140" height="10"/><rect class="c1" x="240" y="0" width="50" height="10"/><rect class="c1" x="300" y="0" width="60" height="10"/><rect class="c1" x="390" y="0" width="560" height="10"/><rect class="c1" x="1020" y="0" width="180" height="10"/><rect class="c1" x="0" y="10" width="140" height="10"/><rect class="c1" x="240" y="10" width="30" height="10"/><rect class="c1" x="300" y="10" width="650" height="10"/><rect class="c1" x="1020" y="10" width="180" height="10"/><rect class="c1" x="0" y="20" width="140" height="10"/><rect class="c1" x="240" y="20" width="10" height="10"/><rect class="c1" x="300" y="20" width="40" height="10"/><rect class="c1" x="350" y="20" width="600" height="10"/><rect class="c1" x="1030" y="20" width="170" height="10"/><rect class="c1" x="0" y="30" width="140" height="10"/><rect class="c1" x="300" y="30" width="20" height="10"/><rect class="c1" x="350" y="30" width="20" height="10"/><rect class="c1" x="400" y="30" width="550" height="10"/><rect class="c1" x="1050" y="30" width="150" height="10"/><rect class="c1" x="0" y="40" width="140" height="10"/><rect class="c1" x="400" y="40" width="410" height="10"/><rect class="c1" x="890" y="40" width="60" height="10"/><rect class="c1" x="1050" y="40" width="150" height="10"/><rect class="c1" x="0" y="50" width="130" height="10"/><rect class="c1" x="280" y="50" width="70" height="10"/><rect class="c1" x="450" y="50" width="390" height="10"/><rect class="c1" x="920" y="50" width="130" height="10"/><rect class="c1" x="1090" y="50" width="110" height="10"/><rect class="c1" x="0" y="60" width="350" height="10"/><rect class="c1" x="440" y="60" width="400" height="10"/><rect class="c1" x="950" y="60" width="100" height="10"/><rect class="c1" x="1140" y="60" width="60" height="10"/><rect class="c1" x="0" y="70" width="350" height="10"/><rect class="c1" x="440" y="70" width="420" height="10"/><rect class="c1" x="960" y="70" width="90" height="10"/><rect class="c1" x="1140" y="70" width="60" height="10"/><rect class="c1" x="0" y="80" width="350" height="10"/><rect class="c1" x="400" y="80" width="650" height="10"/><rect class="c1" x="1140" y="80" width="60" height="10"/><rect class="c1" x="0" y="90" width="350" height="10"/><rect class="c1" x="400" y="90" width="200" height="10"/><rect class="c2" x="600" y="90" width="20" height="10"/><rect class="c1" x="620" y="90" width="430" height="10"/><rect class="c1" x="1150" y="90" width="50" height="10"/><rect class="c1" x="0" y="100" width="60" height="10"/><rect class="c1" x="70" y="100" width="140" height="10"/><rect class="c1" x="250" y="100" width="110" height="10"/><rect class="c1" x="400" y="100" width="800" height="10"/><rect class="c1" x="0" y="110" width="50" height="10"/><rect class="c1" x="70" y="110" width="130" height="10"/><rect class="c1" x="250" y="110" width="110" height="10"/><rect class="c1" x="400" y="110" width="800" height="10"/><rect class="c1" x="0" y="120" width="50" height="10"/><rect class="c1" x="60" y="120" width="120" height="10"/><rect class="c1" x="250" y="120" width="260" height="10"/><rect class="c2" x="510" y="120" width="410" height="10"/><rect class="c1" x="920" y="120" width="280" height="10"/><rect class="c1" x="0" y="130" width="40" height="10"/><rect class="c1" x="60" y="130" width="120" height="10"/><rect class="c1" x="250" y="130" width="260" height="10"/><rect class="c2" x="510" y="130" width="390" height="10"/><rect class="c1" x="900" y="130" width="300" height="10"/><rect class="c1" x="0" y="140" width="50" height="10"/><rect class="c1" x="60" y="140" width="110" height="10"/><rect class="c1" x="250" y="140" width="260" height="10"/><rect class="c2" x="510" y="140" width="390" height="10"/><rect class="c1" x="900" y="140" width="300" height="10"/><rect class="c1" x="0" y="150" width="40" height="10"/><rect class="c1" x="60" y="150" width="420" height="10"/><rect class="c2" x="480" y="150" width="450" height="10"/><rect class="c1" x="930" y="150" width="220" height="10"/><rect class="c1" x="0" y="160" width="30" height="10"/><rect class="c1" x="60" y="160" width="420" height="10"/><rect class="c2" x="480" y="160" width="450" height="10"/><rect class="c1" x="930" y="160" width="220" height="10"/><rect class="c1" x="0" y="170" width="20" height="10"/><rect class="c1" x="60" y="170" width="80" height="10"/><rect class="c1" x="150" y="170" width="330" height="10"/><rect class="c2" x="480" y="170" width="450" height="10"/><rect class="c1" x="930" y="170" width="220" height="10"/><rect class="c1" x="0" y="180" width="60" height="10"/><rect class="c1" x="120" y="180" width="20" height="10"/><rect class="c1" x="150" y="180" width="270" height="10"/><rect class="c2" x="420" y="180" width="180" height="10"/><rect class="c3" x="600" y="180" width="160" height="10"/><rect class="c2" x="760" y="180" width="200" height="10"/><rect class="c1" x="960" y="180" width="190" height="10"/><rect class="c1" x="0" y="190" width="60" height="10"/><rect class="c1" x="120" y="190" width="10" height="10"/><rect class="c1" x="150" y="190" width="270" height="10"/><rect class="c2" x="420" y="190" width="180" height="10"/><rect class="c3" x="600" y="190" width="160" height="10"/><rect class="c2" x="760" y="190" width="200" height="10"/><rect class="c1" x="960" y="190" width="190" height="10"/><rect class="c1" x="0" y="200" width="60" height="10"/><rect class="c1" x="150" y="200" width="270" height="10"/><rect class="c2" x="420" y="200" width="130" height="10"/><rect class="c3" x="550" y="200" width="250" height="10"/><rect class="c2" x="800" y="200" width="160" height="10"/><rect class="c1" x="960" y="200" width="190" height="10"/><rect class="c1" x="0" y="210" width="60" height="10"/><rect class="c1" x="150" y="210" width="240" height="10"/><rect class="c2" x="390" y="210" width="150" height="10"/><rect class="c3" x="540" y="210" width="280" height="10"/><rect class="c2" x="820" y="210" width="140" height="10"/><rect class="c1" x="960" y="210" width="190" height="10"/><rect class="c1" x="0" y="220" width="60" height="10"/><rect class="c1" x="150" y="220" width="240" height="10"/><rect class="c2" x="390" y="220" width="130" height="10"/><rect class="c3" x="520" y="220" width="340" height="10"/><rect class="c2" x="860" y="220" width="100" height="10"/><rect class="c1" x="960" y="220" width="200" height="10"/><rect class="c1" x="0" y="230" width="60" height="10"/><rect class="c1" x="150" y="230" width="240" height="10"/><rect class="c2" x="390" y="230" width="130" height="10"/><rect class="c3" x="520" y="230" width="340" height="10"/><rect class="c2" x="860" y="230" width="100" height="10"/><rect class="c1" x="960" y="230" width="200" height="10"/><rect class="c1" x="0" y="240" width="100" height="10"/><rect class="c1" x="150" y="240" width="210" height="10"/><rect class="c2" x="360" y="240" width="140" height="10"/><rect class="c3" x="500" y="240" width="90" height="10"/><rect class="c4" x="590" y="240" width="170" height="10"/><rect class="c3" x="760" y="240" width="140" height="10"/><rect class="c2" x="900" y="240" width="90" height="10"/><rect class="c1" x="990" y="240" width="180" height="10"/><rect class="c1" x="0" y="250" width="150" height="10"/><rect class="c1" x="200" y="250" width="160" height="10"/><rect class="c2" x="360" y="250" width="130" height="10"/><rect class="c3" x="490" y="250" width="90" height="10"/><rect class="c4" x="580" y="250" width="180" height="10"/><rect class="c3" x="760" y="250" width="140" height="10"/><rect class="c2" x="900" y="250" width="90" height="10"/><rect class="c1" x="990" y="250" width="210" height="10"/><rect class="c1" x="0" y="260" width="150" height="10"/><rect class="c1" x="200" y="260" width="160" height="10"/><rect class="c2" x="360" y="260" width="110" height="10"/><rect class="c3" x="470" y="260" width="90" height="10"/><rect class="c4" x="560" y="260" width="240" height="10"/><rect class="c3" x="800" y="260" width="120" height="10"/><rect class="c2" x="920" y="260" width="70" height="10"/><rect class="c1" x="990" y="260" width="210" height="10"/><rect class="c1" x="0" y="270" width="150" height="10"/><rect class="c1" x="200" y="270" width="130" height="10"/><rect class="c2" x="330" y="270" width="130" height="10"/><rect class="c3" x="460" y="270" width="100" height="10"/><rect class="c4" x="560" y="270" width="240" height="10"/><rect class="c3" x="800" y="270" width="120" height="10"/><rect class="c2" x="920" y="270" width="100" height="10"/><rect class="c1" x="1020" y="270" width="180" height="10"/><rect class="c1" x="0" y="280" width="150" height="10"/><rect class="c1" x="190" y="280" width="140" height="10"/><rect class="c2" x="330" y="280" width="130" height="10"/><rect class="c3" x="460" y="280" width="80" height="10"/><rect class="c4" x="540" y="280" width="300" height="10"/><rect class="c3" x="840" y="280" width="80" height="10"/><rect class="c2" x="920" y="280" width="100" height="10"/><rect class="c1" x="1020" y="280" width="180" height="10"/><rect class="c1" x="0" y="290" width="150" height="10"/><rect class="c1" x="180" y="290" width="150" height="10"/><rect class="c2" x="330" y="290" width="120" height="10"/><rect class="c3" x="450" y="290" width="90" height="10"/><rect class="c4" x="540" y="290" width="110" height="10"/><rect class="c5" x="650" y="290" width="60" height="10"/><rect class="c4" x="710" y="290" width="130" height="10"/><rect class="c3" x="840" y="290" width="80" height="10"/><rect class="c2" x="920" y="290" width="100" height="10"/><rect class="c1" x="1020" y="290" width="180" height="10"/><rect class="c1" x="150" y="300" width="210" height="10"/><rect class="c2" x="360" y="300" width="80" height="10"/><rect class="c3" x="440" y="300" width="80" height="10"/><rect class="c4" x="520" y="300" width="100" height="10"/><rect class="c5" x="620" y="300" width="120" height="10"/><rect class="c4" x="740" y="300" width="120" height="10"/><rect class="c3" x="860" y="300" width="60" height="10"/><rect class="c2" x="920" y="300" width="100" height="10"/><rect class="c1" x="1020" y="300" width="180" height="10"/><rect class="c1" x="150" y="310" width="210" height="10"/><rect class="c2" x="360" y="310" width="80" height="10"/><rect class="c3" x="440" y="310" width="80" height="10"/><rect class="c4" x="520" y="310" width="90" height="10"/><rect class="c5" x="610" y="310" width="150" height="10"/><rect class="c4" x="760" y="310" width="100" height="10"/><rect class="c3" x="860" y="310" width="70" height="10"/><rect class="c2" x="930" y="310" width="90" height="10"/><rect class="c1" x="1020" y="310" width="180" height="10"/><rect class="c1" x="150" y="320" width="210" height="10"/><rect class="c2" x="360" y="320" width="80" height="10"/><rect class="c3" x="440" y="320" width="60" height="10"/><rect class="c4" x="500" y="320" width="100" height="10"/><rect class="c5" x="600" y="320" width="170" height="10"/><rect class="c4" x="770" y="320" width="90" height="10"/><rect class="c3" x="860" y="320" width="80" height="10"/><rect class="c2" x="940" y="320" width="80" height="10"/><rect class="c1" x="1020" y="320" width="180" height="10"/><rect class="c1" x="150" y="330" width="200" height="10"/><rect class="c2" x="350" y="330" width="90" height="10"/><rect class="c3" x="440" y="330" width="60" height="10"/><rect class="c4" x="500" y="330" width="90" height="10"/><rect class="c5" x="590" y="330" width="190" height="10"/><rect class="c4" x="780" y="330" width="80" height="10"/><rect class="c3" x="860" y="330" width="80" height="10"/><rect class="c2" x="940" y="330" width="80" height="10"/><rect class="c1" x="1020" y="330" width="180" height="10"/><rect class="c1" x="150" y="340" width="200" height="10"/><rect class="c2" x="350" y="340" width="90" height="10"/><rect class="c3" x="440" y="340" width="60" height="10"/><rect class="c4" x="500" y="340" width="90" height="10"/><rect class="c5" x="590" y="340" width="190" height="10"/><rect class="c4" x="780" y="340" width="80" height="10"/><rect class="c3" x="860" y="340" width="80" height="10"/><rect class="c2" x="940" y="340" width="80" height="10"/><rect class="c1" x="1020" y="340" width="180" height="10"/><rect class="c1" x="80" y="350" width="270" height="10"/><rect class="c2" x="350" y="350" width="80" height="10"/><rect class="c3" x="430" y="350" width="70" height="10"/><rect class="c4" x="500" y="350" width="90" height="10"/><rect class="c5" x="590" y="350" width="200" height="10"/><rect class="c4" x="790" y="350" width="70" height="10"/><rect class="c3" x="860" y="350" width="80" height="10"/><rect class="c2" x="940" y="350" width="80" height="10"/><rect class="c1" x="1020" y="350" width="180" height="10"/><rect class="c1" x="60" y="360" width="270" height="10"/><rect class="c2" x="330" y="360" width="90" height="10"/><rect class="c3" x="420" y="360" width="80" height="10"/><rect class="c4" x="500" y="360" width="90" height="10"/><rect class="c5" x="590" y="360" width="190" height="10"/><rect class="c4" x="780" y="360" width="80" height="10"/><rect class="c3" x="860" y="360" width="80" height="10"/><rect class="c2" x="940" y="360" width="80" height="10"/><rect class="c1" x="1020" y="360" width="180" height="10"/><rect class="c1" x="60" y="370" width="270" height="10"/><rect class="c2" x="330" y="370" width="90" height="10"/><rect class="c3" x="420" y="370" width="80" height="10"/><rect class="c4" x="500" y="370" width="90" height="10"/><rect class="c5" x="590" y="370" width="190" height="10"/><rect class="c4" x="780" y="370" width="80" height="10"/><rect class="c3" x="860" y="370" width="80" height="10"/><rect class="c2" x="940" y="370" width="80" height="10"/><rect class="c1" x="1020" y="370" width="180" height="10"/><rect class="c1" x="60" y="380" width="270" height="10"/><rect class="c2" x="330" y="380" width="90" height="10"/><rect class="c3" x="420" y="380" width="100" height="10"/><rect class="c4" x="520" y="380" width="80" height="10"/><rect class="c5" x="600" y="380" width="180" height="10"/><rect class="c4" x="780" y="380" width="80" height="10"/><rect class="c3" x="860" y="380" width="70" height="10"/><rect class="c2" x="930" y="380" width="90" height="10"/><rect class="c1" x="1020" y="380" width="180" height="10"/><rect class="c1" x="60" y="390" width="270" height="10"/><rect class="c2" x="330" y="390" width="90" height="10"/><rect class="c3" x="420" y="390" width="100" height="10"/><rect class="c4" x="520" y="390" width="80" height="10"/><rect class="c5" x="600" y="390" width="170" height="10"/><rect class="c4" x="770" y="390" width="90" height="10"/><rect class="c3" x="860" y="390" width="70" height="10"/><rect class="c2" x="930" y="390" width="90" height="10"/><rect class="c1" x="1020" y="390" width="180" height="10"/><rect class="c1" x="60" y="400" width="120" height="10"/><rect class="c1" x="200" y="400" width="130" height="10"/><rect class="c2" x="330" y="400" width="110" height="10"/><rect class="c3" x="440" y="400" width="80" height="10"/><rect class="c4" x="520" y="400" width="100" height="10"/><rect class="c5" x="620" y="400" width="140" height="10"/><rect class="c4" x="760" y="400" width="100" height="10"/><rect class="c3" x="860" y="400" width="60" height="10"/><rect class="c2" x="920" y="400" width="100" height="10"/><rect class="c1" x="1020" y="400" width="180" height="10"/><rect class="c1" x="60" y="410" width="120" height="10"/><rect class="c1" x="200" y="410" width="130" height="10"/><rect class="c2" x="330" y="410" width="110" height="10"/><rect class="c3" x="440" y="410" width="80" height="10"/><rect class="c4" x="520" y="410" width="120" height="10"/><rect class="c5" x="640" y="410" width="90" height="10"/><rect class="c4" x="730" y="410" width="130" height="10"/><rect class="c3" x="860" y="410" width="60" height="10"/><rect class="c2" x="920" y="410" width="100" height="10"/><rect class="c1" x="1020" y="410" width="180" height="10"/><rect class="c1" x="0" y="420" width="190" height="10"/><rect class="c1" x="200" y="420" width="160" height="10"/><rect class="c2" x="360" y="420" width="80" height="10"/><rect class="c3" x="440" y="420" width="100" height="10"/><rect class="c4" x="540" y="420" width="300" height="10"/><rect class="c3" x="840" y="420" width="80" height="10"/><rect class="c2" x="920" y="420" width="100" height="10"/><rect class="c1" x="1020" y="420" width="180" height="10"/><rect class="c1" x="0" y="430" width="190" height="10"/><rect class="c1" x="200" y="430" width="160" height="10"/><rect class="c2" x="360" y="430" width="80" height="10"/><rect class="c3" x="440" y="430" width="100" height="10"/><rect class="c4" x="540" y="430" width="300" height="10"/><rect class="c3" x="840" y="430" width="70" height="10"/><rect class="c2" x="910" y="430" width="110" height="10"/><rect class="c1" x="1020" y="430" width="180" height="10"/><rect class="c1" x="0" y="440" width="360" height="10"/><rect class="c2" x="360" y="440" width="100" height="10"/><rect class="c3" x="460" y="440" width="100" height="10"/><rect class="c4" x="560" y="440" width="260" height="10"/><rect class="c3" x="820" y="440" width="80" height="10"/><rect class="c2" x="900" y="440" width="120" height="10"/><rect class="c1" x="1020" y="440" width="180" height="10"/><rect class="c1" x="0" y="450" width="360" height="10"/><rect class="c2" x="360" y="450" width="100" height="10"/><rect class="c3" x="460" y="450" width="100" height="10"/><rect class="c4" x="560" y="450" width="260" height="10"/><rect class="c3" x="820" y="450" width="80" height="10"/><rect class="c2" x="900" y="450" width="90" height="10"/><rect class="c1" x="990" y="450" width="210" height="10"/><rect class="c1" x="0" y="460" width="360" height="10"/><rect class="c2" x="360" y="460" width="120" height="10"/><rect class="c3" x="480" y="460" width="140" height="10"/><rect class="c4" x="620" y="460" width="140" height="10"/><rect class="c3" x="760" y="460" width="120" height="10"/><rect class="c2" x="880" y="460" width="110" height="10"/><rect class="c1" x="990" y="460" width="210" height="10"/><rect class="c1" x="0" y="470" width="360" height="10"/><rect class="c2" x="360" y="470" width="120" height="10"/><rect class="c3" x="480" y="470" width="140" height="10"/><rect class="c4" x="620" y="470" width="140" height="10"/><rect class="c3" x="760" y="470" width="120" height="10"/><rect class="c2" x="880" y="470" width="110" height="10"/><rect class="c1" x="990" y="470" width="210" height="10"/><rect class="c1" x="0" y="480" width="60" height="10"/><rect class="c1" x="110" y="480" width="250" height="10"/><rect class="c2" x="360" y="480" width="140" height="10"/><rect class="c3" x="500" y="480" width="360" height="10"/><rect class="c2" x="860" y="480" width="130" height="10"/><rect class="c1" x="990" y="480" width="210" height="10"/><rect class="c1" x="0" y="490" width="60" height="10"/><rect class="c1" x="110" y="490" width="250" height="10"/><rect class="c2" x="360" y="490" width="160" height="10"/><rect class="c3" x="520" y="490" width="330" height="10"/><rect class="c2" x="850" y="490" width="140" height="10"/><rect class="c1" x="990" y="490" width="210" height="10"/><rect class="c1" x="0" y="500" width="60" height="10"/><rect class="c1" x="150" y="500" width="210" height="10"/><rect class="c2" x="360" y="500" width="200" height="10"/><rect class="c3" x="560" y="500" width="240" height="10"/><rect class="c2" x="800" y="500" width="190" height="10"/><rect class="c1" x="990" y="500" width="210" height="10"/><rect class="c1" x="0" y="510" width="60" height="10"/><rect class="c1" x="120" y="510" width="10" height="10"/><rect class="c1" x="150" y="510" width="240" height="10"/><rect class="c2" x="390" y="510" width="170" height="10"/><rect class="c3" x="560" y="510" width="240" height="10"/><rect class="c2" x="800" y="510" width="160" height="10"/><rect class="c1" x="960" y="510" width="240" height="10"/><rect class="c1" x="0" y="520" width="60" height="10"/><rect class="c1" x="120" y="520" width="10" height="10"/><rect class="c1" x="150" y="520" width="240" height="10"/><rect class="c2" x="390" y="520" width="270" height="10"/><rect class="c3" x="660" y="520" width="60" height="10"/><rect class="c2" x="720" y="520" width="240" height="10"/><rect class="c1" x="960" y="520" width="240" height="10"/><rect class="c1" x="0" y="530" width="60" height="10"/><rect class="c1" x="120" y="530" width="20" height="10"/><rect class="c1" x="150" y="530" width="240" height="10"/><rect class="c2" x="390" y="530" width="570" height="10"/><rect class="c1" x="960" y="530" width="240" height="10"/><rect class="c1" x="0" y="540" width="60" height="10"/><rect class="c1" x="120" y="540" width="330" height="10"/><rect class="c2" x="450" y="540" width="450" height="10"/><rect class="c1" x="900" y="540" width="300" height="10"/><rect class="c1" x="0" y="550" width="60" height="10"/><rect class="c1" x="120" y="550" width="330" height="10"/><rect class="c2" x="450" y="550" width="450" height="10"/><rect class="c1" x="900" y="550" width="250" height="10"/><rect class="c1" x="0" y="560" width="20" height="10"/><rect class="c1" x="40" y="560" width="20" height="10"/><rect class="c1" x="120" y="560" width="330" height="10"/><rect class="c2" x="450" y="560" width="450" height="10"/><rect class="c1" x="900" y="560" width="250" height="10"/><rect class="c1" x="0" y="570" width="30" height="10"/><rect class="c1" x="50" y="570" width="10" height="10"/><rect class="c1" x="120" y="570" width="420" height="10"/><rect class="c2" x="540" y="570" width="210" height="10"/><rect class="c1" x="750" y="570" width="400" height="10"/><rect class="c1" x="0" y="580" width="30" height="10"/><rect class="c1" x="120" y="580" width="420" height="10"/><rect class="c2" x="540" y="580" width="210" height="10"/><rect class="c1" x="750" y="580" width="400" height="10"/><rect class="c1" x="0" y="590" width="40" height="10"/><rect class="c1" x="120" y="590" width="440" height="10"/><rect class="c2" x="560" y="590" width="160" height="10"/><rect class="c1" x="720" y="590" width="430" height="10"/><rect class="c1" x="0" y="600" width="50" height="10"/><rect class="c1" x="120" y="600" width="240" height="10"/><rect class="c1" x="400" y="600" width="600" height="10"/><rect class="c1" x="1050" y="600" width="100" height="10"/><rect class="c1" x="1170" y="600" width="30" height="10"/><rect class="c1" x="0" y="610" width="60" height="10"/><rect class="c1" x="120" y="610" width="240" height="10"/><rect class="c1" x="400" y="610" width="600" height="10"/><rect class="c1" x="1050" y="610" width="100" height="10"/><rect class="c1" x="1160" y="610" width="40" height="10"/><rect class="c1" x="0" y="620" width="70" height="10"/><rect class="c1" x="120" y="620" width="230" height="10"/><rect class="c1" x="400" y="620" width="600" height="10"/><rect class="c1" x="1050" y="620" width="150" height="10"/><rect class="c1" x="0" y="630" width="100" height="10"/><rect class="c1" x="120" y="630" width="230" height="10"/><rect class="c1" x="400" y="630" width="600" height="10"/><rect class="c1" x="1050" y="630" width="150" height="10"/><rect class="c1" x="0" y="640" width="110" height="10"/><rect class="c1" x="120" y="640" width="230" height="10"/><rect class="c1" x="400" y="640" width="10" height="10"/><rect class="c1" x="440" y="640" width="560" height="10"/><rect class="c1" x="1050" y="640" width="150" height="10"/><rect class="c1" x="0" y="650" width="350" height="10"/><rect class="c1" x="440" y="650" width="760" height="10"/><rect class="c1" x="0" y="660" width="350" height="10"/><rect class="c1" x="450" y="660" width="750" height="10"/><rect class="c1" x="0" y="670" width="350" height="10"/><rect class="c1" x="450" y="670" width="750" height="10"/><rect class="c1" x="0" y="680" width="350" height="10"/><rect class="c1" x="450" y="680" width="750" height="10"/><rect class="c1" x="0" y="690" width="350" height="10"/><rect class="c1" x="450" y="690" width="750" height="10"/><rect class="c1" x="0" y="700" width="10" height="10"/><rect class="c2" x="10" y="700" width="20" height="10"/><rect class="c1" x="30" y="700" width="330" height="10"/><rect class="c1" x="370" y="700" width="480" height="10"/><rect class="c1" x="1000" y="700" width="190" height="10"/><rect class="c1" x="0" y="710" width="20" height="10"/><rect class="c2" x="20" y="710" width="20" height="10"/><rect class="c1" x="40" y="710" width="320" height="10"/><rect class="c1" x="400" y="710" width="450" height="10"/><rect class="c1" x="970" y="710" width="220" height="10"/><rect class="c1" x="0" y="720" width="30" height="10"/><rect class="c2" x="30" y="720" width="20" height="10"/><rect class="c1" x="50" y="720" width="800" height="10"/><rect class="c1" x="960" y="720" width="230" height="10"/><rect class="c1" x="0" y="730" width="50" height="10"/><rect class="c2" x="50" y="730" width="20" height="10"/><rect class="c1" x="70" y="730" width="780" height="10"/><rect class="c1" x="960" y="730" width="230" height="10"/><rect class="c1" x="0" y="740" width="60" height="10"/><rect class="c2" x="60" y="740" width="10" height="10"/><rect class="c1" x="70" y="740" width="780" height="10"/><rect class="c1" x="960" y="740" width="230" height="10"/><rect class="c1" x="0" y="750" width="840" height="10"/><rect class="c1" x="960" y="750" width="230" height="10"/><rect class="c1" x="0" y="760" width="840" height="10"/><rect class="c1" x="960" y="760" width="230" height="10"/><rect class="c1" x="0" y="770" width="280" height="10"/><rect class="c2" x="280" y="770" width="20" height="10"/><rect class="c1" x="300" y="770" width="540" height="10"/><rect class="c1" x="960" y="770" width="90" height="10"/><rect class="c1" x="0" y="780" width="280" height="10"/><rect class="c2" x="280" y="780" width="40" height="10"/><rect class="c1" x="320" y="780" width="30" height="10"/><rect class="c1" x="540" y="780" width="510" height="10"/><rect class="c1" x="0" y="790" width="280" height="10"/><rect class="c2" x="280" y="790" width="70" height="10"/><rect class="c1" x="540" y="790" width="510" height="10"/><rect x="0" y="0" width="1200" height="800" filter="url(#g)" opacity="0.04"/></svg>