<?xml version="1.0" encoding="UTF-8"?>
<svg xmlns="http://www.w3.org/2000/svg" viewBox="0 0 480 180" shape-rendering="crispEdges">
  <!-- DRAFT V7 — buildings boil at the edges.
       The user wants the SILHOUETTES THEMSELVES to feel organically
       pixelated and always-somewhat-moving. Solution: every silhouette
       gets a dense band of small pixels distributed along its perimeter,
       each with its own pulse or blink phase. The inner mass stays
       solid, but the edge appears to constantly redraw in pixels.
       Drift pixels are removed (those were the wrong interpretation). -->

  <defs>
    <style>
      .teal { fill: #4f8375; }
      .neg  { fill: #f8f3ee; }

      /* === Pulse: always-visible, breathing brightness ============= */
      @keyframes pulse {
        0%, 100% { opacity: 0.3; }
        50%      { opacity: 1;   }
      }
      .p1 { animation: pulse 2.4s ease-in-out infinite;       }
      .p2 { animation: pulse 2.8s ease-in-out infinite 0.4s;  }
      .p3 { animation: pulse 3.2s ease-in-out infinite 0.8s;  }
      .p4 { animation: pulse 3.6s ease-in-out infinite 1.2s;  }
      .p5 { animation: pulse 2.6s ease-in-out infinite 1.6s;  }
      .p6 { animation: pulse 3.0s ease-in-out infinite 2.0s;  }
      .p7 { animation: pulse 3.4s ease-in-out infinite 2.4s;  }
      .p8 { animation: pulse 2.2s ease-in-out infinite 0.6s;  }
      .p9 { animation: pulse 2.7s ease-in-out infinite 1.4s;  }
      .pA { animation: pulse 3.1s ease-in-out infinite 0.2s;  }
      .pB { animation: pulse 2.9s ease-in-out infinite 1.8s;  }
      .pC { animation: pulse 3.3s ease-in-out infinite 1.0s;  }

      /* === Blink: full on/off — sparser cellular births/deaths ======
         These are the edge "growth/decay" pixels that appear briefly
         beyond the silhouette boundary, then vanish. */
      @keyframes blink {
        0%, 100% { opacity: 0; }
        45%, 55% { opacity: 0.9; }
      }
      .b1 { animation: blink 4.0s ease-in-out infinite;       }
      .b2 { animation: blink 5.0s ease-in-out infinite 1.5s;  }
      .b3 { animation: blink 6.0s ease-in-out infinite 2.5s;  }
      .b4 { animation: blink 4.5s ease-in-out infinite 0.8s;  }
      .b5 { animation: blink 5.5s ease-in-out infinite 3.0s;  }
      .b6 { animation: blink 3.8s ease-in-out infinite 1.2s;  }

      /* === Cloud drift =========================================== */
      @keyframes cloud-drift-a { 0% { transform: translateX(0); } 100% { transform: translateX( 60px); } }
      @keyframes cloud-drift-b { 0% { transform: translateX(0); } 100% { transform: translateX(-44px); } }
      .cloud-a { animation: cloud-drift-a 14s ease-in-out infinite alternate; }
      .cloud-b { animation: cloud-drift-b 18s ease-in-out infinite alternate; }

      /* === Rain falls =========================================== */
      @keyframes rain-fall {
        0%   { transform: translateY(-6px); opacity: 0;   }
        25%  {                              opacity: 0.8; }
        75%  {                              opacity: 0.8; }
        100% { transform: translateY( 8px); opacity: 0;   }
      }
      .rain-drop { animation: rain-fall 1.0s linear infinite; }
      .rain-drop:nth-child(2n)   { animation-delay: 0.25s; }
      .rain-drop:nth-child(3n)   { animation-delay: 0.50s; }
      .rain-drop:nth-child(5n)   { animation-delay: 0.75s; }
      .rain-drop:nth-child(7n+1) { animation-delay: 0.10s; }

      /* === Sun breathes ========================================== */
      @keyframes sun-breath {
        0%, 100% { transform: scale(1);    opacity: 1;   }
        50%      { transform: scale(1.06); opacity: 0.8; }
      }
      .sun { animation: sun-breath 3.5s ease-in-out infinite;
             transform-origin: 80px 40px; transform-box: view-box; }

      /* === Pope's Revenge ======================================== */
      .pope-cross { opacity: 0; transition: opacity 1.5s ease-out 0.3s; }
    </style>
  </defs>

  <!-- ================================================================ -->
  <!-- ATMOSPHERIC SKY LIFE (sparse, just enough to suggest air)         -->
  <!-- ================================================================ -->
  <g class="teal">
    <rect x="32"  y="16" width="2" height="2" class="b3" />
    <rect x="120" y="20" width="2" height="2" class="b1" />
    <rect x="226" y="14" width="2" height="2" class="b2" />
    <rect x="304" y="34" width="2" height="2" class="b4" />
    <rect x="376" y="20" width="2" height="2" class="b5" />
    <rect x="430" y="28" width="2" height="2" class="b6" />
    <rect x="160" y="92" width="2" height="2" class="b3" />
    <rect x="262" y="92" width="2" height="2" class="b4" />
    <rect x="380" y="96" width="2" height="2" class="b2" />
  </g>

  <!-- ================================================================ -->
  <!-- WEATHER: SUN on LEFT                                              -->
  <!-- ================================================================ -->
  <g class="weather-layer weather-sun sun teal">
    <rect x="74" y="30" width="12" height="2" />
    <rect x="70" y="32" width="20" height="2" />
    <rect x="68" y="34" width="24" height="2" />
    <rect x="66" y="36" width="28" height="8" />
    <rect x="68" y="44" width="24" height="2" />
    <rect x="70" y="46" width="20" height="2" />
    <rect x="74" y="48" width="12" height="2" />
    <rect x="79" y="20" width="2" height="6" />
    <rect x="79" y="54" width="2" height="6" />
    <rect x="58" y="39" width="6" height="2" />
    <rect x="96" y="39" width="6" height="2" />
    <rect x="65" y="24" width="2" height="2" /><rect x="67" y="26" width="2" height="2" />
    <rect x="91" y="52" width="2" height="2" /><rect x="93" y="54" width="2" height="2" />
    <rect x="65" y="54" width="2" height="2" /><rect x="67" y="52" width="2" height="2" />
    <rect x="91" y="26" width="2" height="2" /><rect x="93" y="24" width="2" height="2" />
  </g>

  <!-- ================================================================ -->
  <!-- WEATHER: CLOUDS                                                   -->
  <!-- ================================================================ -->
  <g class="weather-layer weather-cloud teal">
    <g class="cloud-a">
      <rect x="184" y="40" width="56" height="8" />
      <rect x="188" y="36" width="48" height="4" />
      <rect x="192" y="32" width="40" height="4" />
      <rect x="184" y="48" width="2" height="2" /><rect x="188" y="48" width="2" height="2" />
      <rect x="192" y="48" width="2" height="2" /><rect x="200" y="48" width="2" height="2" />
      <rect x="208" y="48" width="2" height="2" /><rect x="216" y="48" width="2" height="2" />
      <rect x="224" y="48" width="2" height="2" /><rect x="232" y="48" width="2" height="2" />
      <rect x="236" y="48" width="2" height="2" />
      <rect x="196" y="30" width="2" height="2" /><rect x="204" y="30" width="2" height="2" />
      <rect x="216" y="30" width="2" height="2" /><rect x="224" y="30" width="2" height="2" />
      <rect x="182" y="42" width="2" height="2" /><rect x="182" y="46" width="2" height="2" />
      <rect x="240" y="42" width="2" height="2" /><rect x="240" y="46" width="2" height="2" />
    </g>
    <g class="cloud-b">
      <rect x="300" y="28" width="40" height="6" />
      <rect x="304" y="24" width="32" height="4" />
      <rect x="296" y="32" width="48" height="2" />
      <rect x="296" y="34" width="2" height="2" /><rect x="300" y="34" width="2" height="2" />
      <rect x="308" y="34" width="2" height="2" /><rect x="316" y="34" width="2" height="2" />
      <rect x="324" y="34" width="2" height="2" /><rect x="332" y="34" width="2" height="2" />
      <rect x="340" y="34" width="2" height="2" /><rect x="344" y="34" width="2" height="2" />
      <rect x="308" y="22" width="2" height="2" /><rect x="320" y="22" width="2" height="2" />
      <rect x="328" y="22" width="2" height="2" />
    </g>
  </g>

  <!-- ================================================================ -->
  <!-- WEATHER: RAIN                                                     -->
  <!-- ================================================================ -->
  <g class="weather-layer weather-rain teal">
    <rect class="rain-drop" x="184" y="54" width="1" height="3" />
    <rect class="rain-drop" x="192" y="58" width="1" height="3" />
    <rect class="rain-drop" x="200" y="54" width="1" height="3" />
    <rect class="rain-drop" x="208" y="58" width="1" height="3" />
    <rect class="rain-drop" x="216" y="54" width="1" height="3" />
    <rect class="rain-drop" x="224" y="58" width="1" height="3" />
    <rect class="rain-drop" x="232" y="54" width="1" height="3" />
    <rect class="rain-drop" x="304" y="42" width="1" height="3" />
    <rect class="rain-drop" x="312" y="46" width="1" height="3" />
    <rect class="rain-drop" x="320" y="42" width="1" height="3" />
    <rect class="rain-drop" x="328" y="46" width="1" height="3" />
    <rect class="rain-drop" x="336" y="42" width="1" height="3" />
  </g>

  <!-- ================================================================ -->
  <!-- SKYLINE — solid teal silhouettes                                  -->
  <!-- ================================================================ -->
  <g class="teal">
    <rect x="40" y="128" width="22" height="22" />
    <rect x="66" y="120" width="14" height="30" />
    <rect x="84" y="130" width="12" height="20" />
    <path d="M 100 150 L 100 124 L 110 124 L 110 116 L 120 116 L 120 124 L 130 124 L 130 150 Z" />
    <path d="M 184 150 L 184 130 L 188 124 L 208 124 L 212 130 L 212 150 Z" />
    <rect x="220" y="130" width="64" height="20" />
    <rect x="240" y="118" width="24" height="12" />
    <rect x="220" y="120" width="8" height="10" />
    <rect x="276" y="120" width="8" height="10" />
    <rect x="222" y="116" width="4" height="4" />
    <rect x="278" y="116" width="4" height="4" />
    <rect x="244" y="114" width="16" height="4" />
    <rect x="246" y="110" width="12" height="4" />
    <rect x="248" y="106" width="8"  height="4" />
    <rect x="250" y="102" width="4" height="4" />
    <rect x="251" y="96"  width="2" height="6" />
    <rect x="249" y="98"  width="6" height="2" />
    <path d="M 294 150 L 294 128 L 304 128 L 304 122 L 316 122 L 316 128 L 320 128 L 320 150 Z" />
    <rect x="324" y="134" width="12" height="16" />
    <rect x="342" y="126" width="6"  height="24" />
    <rect x="391" y="14" width="2" height="42" />
    <rect x="389" y="50" width="6" height="6" />
    <rect x="386" y="58" width="12" height="2" />
    <rect x="384" y="60" width="16" height="2" />
    <rect x="382" y="62" width="20" height="6" />
    <rect x="384" y="68" width="16" height="2" />
    <rect x="386" y="70" width="12" height="2" />
    <rect x="389" y="72" width="6" height="6" />
    <rect x="391" y="78" width="2" height="68" />
    <rect x="386" y="146" width="12" height="4" />
  </g>

  <!-- ================================================================ -->
  <!-- POPE'S REVENGE                                                    -->
  <!-- ================================================================ -->
  <g class="weather-layer pope-cross neg">
    <rect x="391" y="60" width="2" height="12" />
    <rect x="384" y="64" width="16" height="2" />
  </g>

  <!-- ================================================================ -->
  <!-- CRANE                                                             -->
  <!-- ================================================================ -->
  <g class="teal">
    <rect x="156" y="78" width="2" height="72" />
    <rect x="132" y="80" width="44" height="2" />
    <rect x="156" y="76" width="14" height="2" />
    <rect x="153" y="84" width="6"  height="4" />
    <rect x="138" y="80" width="1"  height="12" />
    <rect x="136" y="92" width="4"  height="2" />
  </g>

  <!-- ================================================================ -->
  <!-- WINDOWS                                                           -->
  <!-- ================================================================ -->
  <g class="neg">
    <rect x="103" y="130" width="2" height="2" /><rect x="111" y="120" width="2" height="2" />
    <rect x="123" y="130" width="2" height="2" /><rect x="111" y="138" width="2" height="2" />
    <rect x="105" y="142" width="2" height="2" /><rect x="119" y="142" width="2" height="2" />
    <rect x="190" y="134" width="2" height="2" /><rect x="198" y="134" width="2" height="2" />
    <rect x="206" y="134" width="2" height="2" /><rect x="190" y="142" width="2" height="2" />
    <rect x="198" y="142" width="2" height="2" /><rect x="206" y="142" width="2" height="2" />
    <rect x="228" y="134" width="2" height="12" /><rect x="236" y="134" width="2" height="12" />
    <rect x="244" y="134" width="2" height="12" /><rect x="252" y="134" width="2" height="12" />
    <rect x="260" y="134" width="2" height="12" /><rect x="268" y="134" width="2" height="12" />
    <rect x="276" y="134" width="2" height="12" />
    <rect x="298" y="134" width="2" height="2" /><rect x="308" y="128" width="2" height="2" />
    <rect x="298" y="142" width="2" height="2" /><rect x="308" y="138" width="2" height="2" />
    <rect x="328" y="138" width="2" height="2" /><rect x="328" y="144" width="2" height="2" />
    <rect x="48" y="132" width="2" height="2" /><rect x="52" y="138" width="2" height="2" />
    <rect x="70" y="128" width="2" height="2" /><rect x="74" y="136" width="2" height="2" />
  </g>

  <!-- ================================================================ -->
  <!-- EDGE BREATH — perimeter pixels that pulse/blink for every silhouette -->
  <!-- Pulse pixels (always visible, breathing brightness) sit ON the edge -->
  <!-- Blink pixels (full on/off) sit JUST OUTSIDE the edge (growth/decay) -->
  <!-- ================================================================ -->
  <g class="teal">

    <!-- Distant building 1 (x=40-62, y=128-150) -->
    <rect x="40"  y="128" width="2" height="2" class="p1" /><rect x="46" y="128" width="2" height="2" class="p3" />
    <rect x="52"  y="128" width="2" height="2" class="p5" /><rect x="58" y="128" width="2" height="2" class="p7" />
    <rect x="60"  y="132" width="2" height="2" class="p2" /><rect x="60" y="140" width="2" height="2" class="p4" />
    <rect x="40"  y="134" width="2" height="2" class="p6" /><rect x="40" y="142" width="2" height="2" class="p8" />
    <rect x="38"  y="128" width="2" height="2" class="b1" /><rect x="64" y="132" width="2" height="2" class="b2" />
    <rect x="44"  y="126" width="2" height="2" class="b3" /><rect x="56" y="126" width="2" height="2" class="b4" />

    <!-- Distant building 2 (x=66-80, y=120-150) -->
    <rect x="66"  y="120" width="2" height="2" class="p9" /><rect x="72" y="120" width="2" height="2" class="pA" />
    <rect x="78"  y="120" width="2" height="2" class="pB" /><rect x="78" y="128" width="2" height="2" class="pC" />
    <rect x="78"  y="138" width="2" height="2" class="p1" /><rect x="66" y="128" width="2" height="2" class="p3" />
    <rect x="66"  y="138" width="2" height="2" class="p5" />
    <rect x="64"  y="122" width="2" height="2" class="b5" /><rect x="82" y="126" width="2" height="2" class="b6" />
    <rect x="70"  y="118" width="2" height="2" class="b1" />

    <!-- Distant building 3 (x=84-96, y=130-150) -->
    <rect x="84"  y="130" width="2" height="2" class="p7" /><rect x="90" y="130" width="2" height="2" class="p9" />
    <rect x="94"  y="130" width="2" height="2" class="pB" /><rect x="94" y="136" width="2" height="2" class="p2" />
    <rect x="94"  y="144" width="2" height="2" class="p4" /><rect x="84" y="138" width="2" height="2" class="p6" />
    <rect x="82"  y="132" width="2" height="2" class="b2" /><rect x="98" y="138" width="2" height="2" class="b3" />

    <!-- Stepped building (perimeter around the stair shape) -->
    <rect x="100" y="124" width="2" height="2" class="p1" /><rect x="106" y="124" width="2" height="2" class="p3" />
    <rect x="110" y="116" width="2" height="2" class="p5" /><rect x="116" y="116" width="2" height="2" class="p7" />
    <rect x="120" y="120" width="2" height="2" class="p9" /><rect x="126" y="124" width="2" height="2" class="pB" />
    <rect x="128" y="130" width="2" height="2" class="p2" /><rect x="128" y="140" width="2" height="2" class="p4" />
    <rect x="100" y="132" width="2" height="2" class="p6" /><rect x="100" y="142" width="2" height="2" class="p8" />
    <rect x="98"  y="126" width="2" height="2" class="b4" /><rect x="112" y="114" width="2" height="2" class="b5" />
    <rect x="118" y="114" width="2" height="2" class="b6" /><rect x="130" y="128" width="2" height="2" class="b1" />

    <!-- Slanted-roof building (x=184-212, y=124-150) -->
    <rect x="184" y="130" width="2" height="2" class="pA" /><rect x="184" y="138" width="2" height="2" class="pC" />
    <rect x="184" y="146" width="2" height="2" class="p1" /><rect x="210" y="130" width="2" height="2" class="p3" />
    <rect x="210" y="138" width="2" height="2" class="p5" /><rect x="210" y="146" width="2" height="2" class="p7" />
    <rect x="188" y="124" width="2" height="2" class="p9" /><rect x="196" y="124" width="2" height="2" class="pB" />
    <rect x="204" y="124" width="2" height="2" class="p2" />
    <rect x="186" y="126" width="2" height="2" class="b2" /><rect x="208" y="126" width="2" height="2" class="b3" />
    <rect x="182" y="134" width="2" height="2" class="b4" /><rect x="214" y="134" width="2" height="2" class="b5" />

    <!-- Berliner Dom base (x=220-284, y=130-150) -->
    <rect x="220" y="130" width="2" height="2" class="p4" /><rect x="228" y="130" width="2" height="2" class="p6" />
    <rect x="236" y="130" width="2" height="2" class="p8" /><rect x="244" y="130" width="2" height="2" class="pA" />
    <rect x="252" y="130" width="2" height="2" class="pC" /><rect x="260" y="130" width="2" height="2" class="p1" />
    <rect x="268" y="130" width="2" height="2" class="p3" /><rect x="276" y="130" width="2" height="2" class="p5" />
    <rect x="282" y="130" width="2" height="2" class="p7" />
    <rect x="220" y="138" width="2" height="2" class="p9" /><rect x="220" y="146" width="2" height="2" class="pB" />
    <rect x="282" y="138" width="2" height="2" class="p2" /><rect x="282" y="146" width="2" height="2" class="p4" />
    <rect x="218" y="134" width="2" height="2" class="b6" /><rect x="286" y="134" width="2" height="2" class="b1" />

    <!-- Dom dome edges (x=244-260, y=106-118) -->
    <rect x="244" y="116" width="2" height="2" class="p6" /><rect x="258" y="116" width="2" height="2" class="p8" />
    <rect x="246" y="112" width="2" height="2" class="pA" /><rect x="256" y="112" width="2" height="2" class="pC" />
    <rect x="248" y="108" width="2" height="2" class="p1" /><rect x="254" y="108" width="2" height="2" class="p3" />
    <rect x="242" y="118" width="2" height="2" class="b2" /><rect x="260" y="118" width="2" height="2" class="b3" />

    <!-- Dom side towers (x=220-228 and x=276-284) -->
    <rect x="220" y="122" width="2" height="2" class="p5" /><rect x="220" y="128" width="2" height="2" class="p7" />
    <rect x="276" y="122" width="2" height="2" class="p9" /><rect x="276" y="128" width="2" height="2" class="pB" />
    <rect x="218" y="124" width="2" height="2" class="b4" /><rect x="286" y="124" width="2" height="2" class="b5" />

    <!-- Mid building 1 — stepped pyramid silhouette (x=294-320, y=122-150) -->
    <rect x="294" y="128" width="2" height="2" class="p2" /><rect x="294" y="138" width="2" height="2" class="p4" />
    <rect x="294" y="146" width="2" height="2" class="p6" /><rect x="318" y="128" width="2" height="2" class="p8" />
    <rect x="318" y="138" width="2" height="2" class="pA" /><rect x="318" y="146" width="2" height="2" class="pC" />
    <rect x="298" y="128" width="2" height="2" class="p1" /><rect x="310" y="122" width="2" height="2" class="p3" />
    <rect x="314" y="122" width="2" height="2" class="p5" />
    <rect x="292" y="132" width="2" height="2" class="b6" /><rect x="322" y="132" width="2" height="2" class="b1" />

    <!-- Mid building 2 (small, x=324-336, y=134-150) -->
    <rect x="324" y="134" width="2" height="2" class="p7" /><rect x="324" y="142" width="2" height="2" class="p9" />
    <rect x="334" y="134" width="2" height="2" class="pB" /><rect x="334" y="142" width="2" height="2" class="p2" />
    <rect x="328" y="134" width="2" height="2" class="p4" />
    <rect x="322" y="138" width="2" height="2" class="b2" /><rect x="336" y="138" width="2" height="2" class="b3" />

    <!-- Mid building 3 (tall narrow, x=342-348, y=126-150) -->
    <rect x="342" y="126" width="2" height="2" class="p6" /><rect x="342" y="134" width="2" height="2" class="p8" />
    <rect x="342" y="142" width="2" height="2" class="pA" /><rect x="346" y="126" width="2" height="2" class="pC" />
    <rect x="346" y="134" width="2" height="2" class="p1" /><rect x="346" y="142" width="2" height="2" class="p3" />
    <rect x="340" y="130" width="2" height="2" class="b4" /><rect x="348" y="130" width="2" height="2" class="b5" />
    <rect x="344" y="124" width="2" height="2" class="b6" />

    <!-- TV Tower antenna + column edges -->
    <rect x="391" y="20" width="2" height="2" class="p5" /><rect x="391" y="30" width="2" height="2" class="p7" />
    <rect x="391" y="42" width="2" height="2" class="p9" /><rect x="391" y="80" width="2" height="2" class="pB" />
    <rect x="391" y="100" width="2" height="2" class="p2" /><rect x="391" y="120" width="2" height="2" class="p4" />
    <rect x="391" y="140" width="2" height="2" class="p6" />
    <rect x="389" y="14" width="2" height="2" class="b1" /><rect x="393" y="14" width="2" height="2" class="b2" />

    <!-- TV Tower sphere edges (dense, since this is a focal element) -->
    <rect x="386" y="58" width="2" height="2" class="p8" /><rect x="394" y="58" width="2" height="2" class="pA" />
    <rect x="384" y="60" width="2" height="2" class="pC" /><rect x="396" y="60" width="2" height="2" class="p1" />
    <rect x="382" y="62" width="2" height="2" class="p3" /><rect x="398" y="62" width="2" height="2" class="p5" />
    <rect x="382" y="66" width="2" height="2" class="p7" /><rect x="398" y="66" width="2" height="2" class="p9" />
    <rect x="384" y="68" width="2" height="2" class="pB" /><rect x="396" y="68" width="2" height="2" class="p2" />
    <rect x="386" y="70" width="2" height="2" class="p4" /><rect x="394" y="70" width="2" height="2" class="p6" />
    <rect x="380" y="64" width="2" height="2" class="b3" /><rect x="400" y="64" width="2" height="2" class="b4" />
    <rect x="388" y="56" width="2" height="2" class="b5" /><rect x="392" y="56" width="2" height="2" class="b6" />
    <rect x="388" y="72" width="2" height="2" class="b1" /><rect x="392" y="72" width="2" height="2" class="b2" />

    <!-- TV Tower base flare -->
    <rect x="386" y="146" width="2" height="2" class="p8" /><rect x="396" y="146" width="2" height="2" class="pA" />
    <rect x="386" y="148" width="2" height="2" class="pC" /><rect x="396" y="148" width="2" height="2" class="p1" />
    <rect x="384" y="148" width="2" height="2" class="b3" /><rect x="398" y="148" width="2" height="2" class="b4" />

  </g>

  <!-- ================================================================ -->
  <!-- GROUND                                                            -->
  <!-- ================================================================ -->
  <rect x="0" y="150" width="480" height="2" class="teal" />
  <rect x="0" y="154" width="480" height="2" class="teal" opacity="0.4" />

  <!-- ================================================================ -->
  <!-- TREE + foliage edge breath                                        -->
  <!-- ================================================================ -->
  <g class="teal">
    <rect x="446" y="142" width="2" height="10" />
    <rect x="442" y="134" width="10" height="2" />
    <rect x="440" y="136" width="14" height="4" />
    <rect x="438" y="140" width="18" height="2" />
    <rect x="440" y="142" width="14" height="2" />
    <!-- Foliage edge pulses -->
    <rect x="442" y="134" width="2" height="2" class="p3" /><rect x="450" y="134" width="2" height="2" class="p5" />
    <rect x="440" y="136" width="2" height="2" class="p7" /><rect x="452" y="136" width="2" height="2" class="p9" />
    <rect x="438" y="140" width="2" height="2" class="pB" /><rect x="454" y="140" width="2" height="2" class="p2" />
    <rect x="440" y="142" width="2" height="2" class="p4" /><rect x="452" y="142" width="2" height="2" class="p6" />
    <!-- Foliage edge blinks (growth/decay leaves) -->
    <rect x="436" y="138" width="2" height="2" class="b1" /><rect x="456" y="138" width="2" height="2" class="b2" />
    <rect x="444" y="132" width="2" height="2" class="b3" /><rect x="448" y="132" width="2" height="2" class="b4" />
    <rect x="438" y="144" width="2" height="2" class="b5" /><rect x="454" y="144" width="2" height="2" class="b6" />
  </g>

  <!-- ================================================================ -->
  <!-- GRASS                                                             -->
  <!-- ================================================================ -->
  <g class="teal">
    <rect x="20"  y="148" width="2" height="2" />
    <rect x="26"  y="148" width="2" height="2" />
    <rect x="160" y="148" width="2" height="2" />
    <rect x="170" y="148" width="2" height="2" />
    <rect x="350" y="148" width="2" height="2" />
    <rect x="360" y="148" width="2" height="2" />
    <rect x="460" y="148" width="2" height="2" />
    <rect x="32"  y="148" width="2" height="2" class="p6" />
    <rect x="180" y="148" width="2" height="2" class="p8" />
    <rect x="340" y="148" width="2" height="2" class="p2" />
    <rect x="450" y="148" width="2" height="2" class="p4" />
  </g>

</svg>
