<svg xmlns="http://www.w3.org/2000/svg" viewBox="0 0 1200 800" preserveAspectRatio="xMidYMid slice" role="img" aria-label="Abstract teal resolution field"><style>svg{--cv0:#f8f3ee;--cv1:#d6ddd6;--cv2:#a4bbb2;--cv3:#779e93;--cv4:#5e8c7d;--cv5:#4f8375}@media (prefers-color-scheme:dark){svg{--cv0:#1a2520;--cv1:#2c3e38;--cv2:#456057;--cv3:#5e8278;--cv4:#7aa297;--cv5:#a4c6b9}}.c0{fill:var(--cv0)}.c1{fill:var(--cv1)}.c2{fill:var(--cv2)}.c3{fill:var(--cv3)}.c4{fill:var(--cv4)}.c5{fill:var(--cv5)}</style><defs><filter id="g"><feTurbulence type="fractalNoise" baseFrequency="0.9" numOctaves="2" stitchTiles="stitch"/><feColorMatrix type="matrix" values="0 0 0 0 0  0 0 0 0 0  0 0 0 0 0  0 0 0 0.5 0"/></filter></defs><rect class="c0" x="0" y="0" width="1200" height="800"/><rect class="c1" x="0" y="0" width="1140" height="10"/><rect class="c1" x="0" y="10" width="1140" height="10"/><rect class="c1" x="0" y="20" width="1140" height="10"/><rect class="c1" x="0" y="30" width="390" height="10"/><rect class="c1" x="400" y="30" width="740" height="10"/><rect class="c1" x="0" y="40" width="1140" height="10"/><rect class="c1" x="0" y="50" width="1140" height="10"/><rect class="c1" x="0" y="60" width="60" height="10"/><rect class="c1" x="120" y="60" width="1080" height="10"/><rect class="c1" x="0" y="70" width="60" height="10"/><rect class="c1" x="120" y="70" width="1080" height="10"/><rect class="c1" x="0" y="80" width="60" height="10"/><rect class="c1" x="120" y="80" width="1080" height="10"/><rect class="c1" x="0" y="90" width="60" height="10"/><rect class="c1" x="120" y="90" width="450" height="10"/><rect class="c2" x="570" y="90" width="180" height="10"/><rect class="c1" x="750" y="90" width="450" height="10"/><rect class="c1" x="0" y="100" width="60" height="10"/><rect class="c1" x="120" y="100" width="450" height="10"/><rect class="c2" x="570" y="100" width="180" height="10"/><rect class="c1" x="750" y="100" width="350" height="10"/><rect class="c1" x="1170" y="100" width="30" height="10"/><rect class="c1" x="0" y="110" width="60" height="10"/><rect class="c1" x="120" y="110" width="450" height="10"/><rect class="c2" x="570" y="110" width="180" height="10"/><rect class="c1" x="750" y="110" width="350" height="10"/><rect class="c1" x="1180" y="110" width="20" height="10"/><rect class="c1" x="0" y="120" width="190" height="10"/><rect class="c1" x="200" y="120" width="310" height="10"/><rect class="c2" x="510" y="120" width="390" height="10"/><rect class="c1" x="900" y="120" width="200" height="10"/><rect class="c1" x="0" y="130" width="180" height="10"/><rect class="c1" x="200" y="130" width="280" height="10"/><rect class="c2" x="480" y="130" width="420" height="10"/><rect class="c1" x="900" y="130" width="200" height="10"/><rect class="c1" x="0" y="140" width="170" height="10"/><rect class="c1" x="200" y="140" width="280" height="10"/><rect class="c2" x="480" y="140" width="420" height="10"/><rect class="c1" x="900" y="140" width="200" height="10"/><rect class="c1" x="0" y="150" width="420" height="10"/><rect class="c2" x="420" y="150" width="480" height="10"/><rect class="c1" x="900" y="150" width="300" height="10"/><rect class="c1" x="0" y="160" width="420" height="10"/><rect class="c2" x="420" y="160" width="130" height="10"/><rect class="c3" x="550" y="160" width="200" height="10"/><rect class="c2" x="750" y="160" width="150" height="10"/><rect class="c1" x="900" y="160" width="300" height="10"/><rect class="c1" x="0" y="170" width="420" height="10"/><rect class="c2" x="420" y="170" width="120" height="10"/><rect class="c3" x="540" y="170" width="220" height="10"/><rect class="c2" x="760" y="170" width="140" height="10"/><rect class="c1" x="900" y="170" width="300" height="10"/><rect class="c1" x="0" y="180" width="360" height="10"/><rect class="c2" x="360" y="180" width="140" height="10"/><rect class="c3" x="500" y="180" width="300" height="10"/><rect class="c2" x="800" y="180" width="130" height="10"/><rect class="c1" x="930" y="180" width="270" height="10"/><rect class="c1" x="0" y="190" width="360" height="10"/><rect class="c2" x="360" y="190" width="140" height="10"/><rect class="c3" x="500" y="190" width="320" height="10"/><rect class="c2" x="820" y="190" width="110" height="10"/><rect class="c1" x="930" y="190" width="270" height="10"/><rect class="c1" x="0" y="200" width="360" height="10"/><rect class="c2" x="360" y="200" width="100" height="10"/><rect class="c3" x="460" y="200" width="140" height="10"/><rect class="c4" x="600" y="200" width="100" height="10"/><rect class="c3" x="700" y="200" width="140" height="10"/><rect class="c2" x="840" y="200" width="90" height="10"/><rect class="c1" x="930" y="200" width="270" height="10"/><rect class="c1" x="0" y="210" width="350" height="10"/><rect class="c2" x="350" y="210" width="110" height="10"/><rect class="c3" x="460" y="210" width="130" height="10"/><rect class="c4" x="590" y="210" width="110" height="10"/><rect class="c3" x="700" y="210" width="140" height="10"/><rect class="c2" x="840" y="210" width="120" height="10"/><rect class="c1" x="960" y="210" width="240" height="10"/><rect class="c1" x="0" y="220" width="350" height="10"/><rect class="c2" x="350" y="220" width="90" height="10"/><rect class="c3" x="440" y="220" width="100" height="10"/><rect class="c4" x="540" y="220" width="230" height="10"/><rect class="c3" x="770" y="220" width="90" height="10"/><rect class="c2" x="860" y="220" width="110" height="10"/><rect class="c1" x="970" y="220" width="230" height="10"/><rect class="c1" x="0" y="230" width="340" height="10"/><rect class="c2" x="340" y="230" width="100" height="10"/><rect class="c3" x="440" y="230" width="100" height="10"/><rect class="c4" x="540" y="230" width="240" height="10"/><rect class="c3" x="780" y="230" width="80" height="10"/><rect class="c2" x="860" y="230" width="120" height="10"/><rect class="c1" x="980" y="230" width="220" height="10"/><rect class="c1" x="0" y="240" width="330" height="10"/><rect class="c2" x="330" y="240" width="90" height="10"/><rect class="c3" x="420" y="240" width="80" height="10"/><rect class="c4" x="500" y="240" width="300" height="10"/><rect class="c3" x="800" y="240" width="80" height="10"/><rect class="c2" x="880" y="240" width="140" height="10"/><rect class="c1" x="1020" y="240" width="100" height="10"/><rect class="c1" x="1150" y="240" width="50" height="10"/><rect class="c1" x="0" y="250" width="330" height="10"/><rect class="c2" x="330" y="250" width="90" height="10"/><rect class="c3" x="420" y="250" width="80" height="10"/><rect class="c4" x="500" y="250" width="300" height="10"/><rect class="c3" x="800" y="250" width="80" height="10"/><rect class="c2" x="880" y="250" width="140" height="10"/><rect class="c1" x="1020" y="250" width="100" height="10"/><rect class="c1" x="0" y="260" width="330" height="10"/><rect class="c2" x="330" y="260" width="70" height="10"/><rect class="c3" x="400" y="260" width="80" height="10"/><rect class="c4" x="480" y="260" width="130" height="10"/><rect class="c5" x="610" y="260" width="90" height="10"/><rect class="c4" x="700" y="260" width="120" height="10"/><rect class="c3" x="820" y="260" width="80" height="10"/><rect class="c2" x="900" y="260" width="120" height="10"/><rect class="c1" x="1020" y="260" width="100" height="10"/><rect class="c1" x="0" y="270" width="330" height="10"/><rect class="c2" x="330" y="270" width="70" height="10"/><rect class="c3" x="400" y="270" width="80" height="10"/><rect class="c4" x="480" y="270" width="110" height="10"/><rect class="c5" x="590" y="270" width="130" height="10"/><rect class="c4" x="720" y="270" width="100" height="10"/><rect class="c3" x="820" y="270" width="80" height="10"/><rect class="c2" x="900" y="270" width="120" height="10"/><rect class="c1" x="1020" y="270" width="100" height="10"/><rect class="c1" x="0" y="280" width="330" height="10"/><rect class="c2" x="330" y="280" width="70" height="10"/><rect class="c3" x="400" y="280" width="80" height="10"/><rect class="c4" x="480" y="280" width="100" height="10"/><rect class="c5" x="580" y="280" width="160" height="10"/><rect class="c4" x="740" y="280" width="100" height="10"/><rect class="c3" x="840" y="280" width="60" height="10"/><rect class="c2" x="900" y="280" width="120" height="10"/><rect class="c1" x="1020" y="280" width="140" height="10"/><rect class="c1" x="0" y="290" width="330" height="10"/><rect class="c2" x="330" y="290" width="70" height="10"/><rect class="c3" x="400" y="290" width="80" height="10"/><rect class="c4" x="480" y="290" width="90" height="10"/><rect class="c5" x="570" y="290" width="180" height="10"/><rect class="c4" x="750" y="290" width="90" height="10"/><rect class="c3" x="840" y="290" width="60" height="10"/><rect class="c2" x="900" y="290" width="120" height="10"/><rect class="c1" x="1020" y="290" width="140" height="10"/><rect class="c1" x="0" y="300" width="330" height="10"/><rect class="c2" x="330" y="300" width="70" height="10"/><rect class="c3" x="400" y="300" width="80" height="10"/><rect class="c4" x="480" y="300" width="80" height="10"/><rect class="c5" x="560" y="300" width="190" height="10"/><rect class="c4" x="750" y="300" width="90" height="10"/><rect class="c3" x="840" y="300" width="70" height="10"/><rect class="c2" x="910" y="300" width="80" height="10"/><rect class="c1" x="990" y="300" width="210" height="10"/><rect class="c1" x="0" y="310" width="330" height="10"/><rect class="c2" x="330" y="310" width="70" height="10"/><rect class="c3" x="400" y="310" width="80" height="10"/><rect class="c4" x="480" y="310" width="80" height="10"/><rect class="c5" x="560" y="310" width="190" height="10"/><rect class="c4" x="750" y="310" width="90" height="10"/><rect class="c3" x="840" y="310" width="70" height="10"/><rect class="c2" x="910" y="310" width="80" height="10"/><rect class="c1" x="990" y="310" width="210" height="10"/><rect class="c1" x="0" y="320" width="330" height="10"/><rect class="c2" x="330" y="320" width="70" height="10"/><rect class="c3" x="400" y="320" width="80" height="10"/><rect class="c4" x="480" y="320" width="80" height="10"/><rect class="c5" x="560" y="320" width="190" height="10"/><rect class="c4" x="750" y="320" width="90" height="10"/><rect class="c3" x="840" y="320" width="70" height="10"/><rect class="c2" x="910" y="320" width="80" height="10"/><rect class="c1" x="990" y="320" width="210" height="10"/><rect class="c1" x="0" y="330" width="330" height="10"/><rect class="c2" x="330" y="330" width="70" height="10"/><rect class="c3" x="400" y="330" width="80" height="10"/><rect class="c4" x="480" y="330" width="80" height="10"/><rect class="c5" x="560" y="330" width="190" height="10"/><rect class="c4" x="750" y="330" width="90" height="10"/><rect class="c3" x="840" y="330" width="70" height="10"/><rect class="c2" x="910" y="330" width="80" height="10"/><rect class="c1" x="990" y="330" width="210" height="10"/><rect class="c1" x="0" y="340" width="330" height="10"/><rect class="c2" x="330" y="340" width="80" height="10"/><rect class="c3" x="410" y="340" width="70" height="10"/><rect class="c4" x="480" y="340" width="80" height="10"/><rect class="c5" x="560" y="340" width="190" height="10"/><rect class="c4" x="750" y="340" width="90" height="10"/><rect class="c3" x="840" y="340" width="60" height="10"/><rect class="c2" x="900" y="340" width="90" height="10"/><rect class="c1" x="990" y="340" width="210" height="10"/><rect class="c1" x="0" y="350" width="80" height="10"/><rect class="c1" x="100" y="350" width="230" height="10"/><rect class="c2" x="330" y="350" width="80" height="10"/><rect class="c3" x="410" y="350" width="70" height="10"/><rect class="c4" x="480" y="350" width="90" height="10"/><rect class="c5" x="570" y="350" width="170" height="10"/><rect class="c4" x="740" y="350" width="100" height="10"/><rect class="c3" x="840" y="350" width="60" height="10"/><rect class="c2" x="900" y="350" width="90" height="10"/><rect class="c1" x="990" y="350" width="210" height="10"/><rect class="c1" x="50" y="360" width="30" height="10"/><rect class="c1" x="100" y="360" width="230" height="10"/><rect class="c2" x="330" y="360" width="90" height="10"/><rect class="c3" x="420" y="360" width="60" height="10"/><rect class="c4" x="480" y="360" width="100" height="10"/><rect class="c5" x="580" y="360" width="150" height="10"/><rect class="c4" x="730" y="360" width="90" height="10"/><rect class="c3" x="820" y="360" width="80" height="10"/><rect class="c2" x="900" y="360" width="90" height="10"/><rect class="c1" x="990" y="360" width="210" height="10"/><rect class="c1" x="50" y="370" width="30" height="10"/><rect class="c1" x="100" y="370" width="230" height="10"/><rect class="c2" x="330" y="370" width="90" height="10"/><rect class="c3" x="420" y="370" width="70" height="10"/><rect class="c4" x="490" y="370" width="100" height="10"/><rect class="c5" x="590" y="370" width="130" height="10"/><rect class="c4" x="720" y="370" width="100" height="10"/><rect class="c3" x="820" y="370" width="80" height="10"/><rect class="c2" x="900" y="370" width="90" height="10"/><rect class="c1" x="990" y="370" width="210" height="10"/><rect class="c1" x="50" y="380" width="30" height="10"/><rect class="c1" x="100" y="380" width="230" height="10"/><rect class="c2" x="330" y="380" width="90" height="10"/><rect class="c3" x="420" y="380" width="80" height="10"/><rect class="c4" x="500" y="380" width="120" height="10"/><rect class="c5" x="620" y="380" width="70" height="10"/><rect class="c4" x="690" y="380" width="120" height="10"/><rect class="c3" x="810" y="380" width="90" height="10"/><rect class="c2" x="900" y="380" width="90" height="10"/><rect class="c1" x="990" y="380" width="210" height="10"/><rect class="c1" x="60" y="390" width="20" height="10"/><rect class="c1" x="100" y="390" width="240" height="10"/><rect class="c2" x="340" y="390" width="80" height="10"/><rect class="c3" x="420" y="390" width="80" height="10"/><rect class="c4" x="500" y="390" width="300" height="10"/><rect class="c3" x="800" y="390" width="100" height="10"/><rect class="c2" x="900" y="390" width="60" height="10"/><rect class="c1" x="960" y="390" width="240" height="10"/><rect class="c1" x="150" y="400" width="190" height="10"/><rect class="c2" x="340" y="400" width="100" height="10"/><rect class="c3" x="440" y="400" width="80" height="10"/><rect class="c4" x="520" y="400" width="260" height="10"/><rect class="c3" x="780" y="400" width="100" height="10"/><rect class="c2" x="880" y="400" width="80" height="10"/><rect class="c1" x="960" y="400" width="240" height="10"/><rect class="c1" x="150" y="410" width="200" height="10"/><rect class="c2" x="350" y="410" width="90" height="10"/><rect class="c3" x="440" y="410" width="80" height="10"/><rect class="c4" x="520" y="410" width="260" height="10"/><rect class="c3" x="780" y="410" width="100" height="10"/><rect class="c2" x="880" y="410" width="80" height="10"/><rect class="c1" x="960" y="410" width="240" height="10"/><rect class="c1" x="0" y="420" width="60" height="10"/><rect class="c1" x="150" y="420" width="210" height="10"/><rect class="c2" x="360" y="420" width="100" height="10"/><rect class="c3" x="460" y="420" width="100" height="10"/><rect class="c4" x="560" y="420" width="180" height="10"/><rect class="c3" x="740" y="420" width="120" height="10"/><rect class="c2" x="860" y="420" width="100" height="10"/><rect class="c1" x="960" y="420" width="240" height="10"/><rect class="c1" x="0" y="430" width="60" height="10"/><rect class="c1" x="150" y="430" width="210" height="10"/><rect class="c2" x="360" y="430" width="100" height="10"/><rect class="c3" x="460" y="430" width="100" height="10"/><rect class="c4" x="560" y="430" width="180" height="10"/><rect class="c3" x="740" y="430" width="120" height="10"/><rect class="c2" x="860" y="430" width="100" height="10"/><rect class="c1" x="960" y="430" width="240" height="10"/><rect class="c1" x="0" y="440" width="60" height="10"/><rect class="c1" x="150" y="440" width="30" height="10"/><rect class="c1" x="200" y="440" width="160" height="10"/><rect class="c2" x="360" y="440" width="120" height="10"/><rect class="c3" x="480" y="440" width="360" height="10"/><rect class="c2" x="840" y="440" width="120" height="10"/><rect class="c1" x="960" y="440" width="240" height="10"/><rect class="c1" x="0" y="450" width="60" height="10"/><rect class="c1" x="200" y="450" width="190" height="10"/><rect class="c2" x="390" y="450" width="90" height="10"/><rect class="c3" x="480" y="450" width="360" height="10"/><rect class="c2" x="840" y="450" width="90" height="10"/><rect class="c1" x="930" y="450" width="270" height="10"/><rect class="c1" x="0" y="460" width="60" height="10"/><rect class="c1" x="200" y="460" width="190" height="10"/><rect class="c2" x="390" y="460" width="130" height="10"/><rect class="c3" x="520" y="460" width="280" height="10"/><rect class="c2" x="800" y="460" width="130" height="10"/><rect class="c1" x="930" y="460" width="270" height="10"/><rect class="c1" x="0" y="470" width="60" height="10"/><rect class="c1" x="200" y="470" width="200" height="10"/><rect class="c2" x="400" y="470" width="120" height="10"/><rect class="c3" x="520" y="470" width="280" height="10"/><rect class="c2" x="800" y="470" width="130" height="10"/><rect class="c1" x="930" y="470" width="270" height="10"/><rect class="c1" x="0" y="480" width="60" height="10"/><rect class="c1" x="200" y="480" width="220" height="10"/><rect class="c2" x="420" y="480" width="140" height="10"/><rect class="c3" x="560" y="480" width="160" height="10"/><rect class="c2" x="720" y="480" width="180" height="10"/><rect class="c1" x="900" y="480" width="300" height="10"/><rect class="c1" x="0" y="490" width="60" height="10"/><rect class="c1" x="200" y="490" width="220" height="10"/><rect class="c2" x="420" y="490" width="140" height="10"/><rect class="c3" x="560" y="490" width="140" height="10"/><rect class="c2" x="700" y="490" width="200" height="10"/><rect class="c1" x="900" y="490" width="300" height="10"/><rect class="c1" x="0" y="500" width="60" height="10"/><rect class="c1" x="150" y="500" width="270" height="10"/><rect class="c2" x="420" y="500" width="480" height="10"/><rect class="c1" x="900" y="500" width="300" height="10"/><rect class="c1" x="0" y="510" width="60" height="10"/><rect class="c1" x="150" y="510" width="300" height="10"/><rect class="c2" x="450" y="510" width="360" height="10"/><rect class="c1" x="810" y="510" width="390" height="10"/><rect class="c1" x="0" y="520" width="60" height="10"/><rect class="c1" x="120" y="520" width="10" height="10"/><rect class="c1" x="150" y="520" width="300" height="10"/><rect class="c2" x="450" y="520" width="360" height="10"/><rect class="c1" x="810" y="520" width="390" height="10"/><rect class="c1" x="0" y="530" width="60" height="10"/><rect class="c1" x="120" y="530" width="20" height="10"/><rect class="c1" x="150" y="530" width="300" height="10"/><rect class="c2" x="450" y="530" width="360" height="10"/><rect class="c1" x="810" y="530" width="390" height="10"/><rect class="c1" x="0" y="540" width="20" height="10"/><rect class="c1" x="120" y="540" width="420" height="10"/><rect class="c2" x="540" y="540" width="210" height="10"/><rect class="c1" x="750" y="540" width="450" height="10"/><rect class="c1" x="0" y="550" width="30" height="10"/><rect class="c1" x="120" y="550" width="420" height="10"/><rect class="c2" x="540" y="550" width="210" height="10"/><rect class="c1" x="750" y="550" width="450" height="10"/><rect class="c1" x="120" y="560" width="420" height="10"/><rect class="c2" x="540" y="560" width="210" height="10"/><rect class="c1" x="750" y="560" width="450" height="10"/><rect class="c1" x="120" y="570" width="1080" height="10"/><rect class="c1" x="120" y="580" width="1080" height="10"/><rect class="c1" x="120" y="590" width="1080" height="10"/><rect class="c1" x="80" y="600" width="870" height="10"/><rect class="c1" x="1050" y="600" width="150" height="10"/><rect class="c1" x="90" y="610" width="860" height="10"/><rect class="c1" x="1050" y="610" width="150" height="10"/><rect class="c1" x="100" y="620" width="850" height="10"/><rect class="c1" x="1050" y="620" width="150" height="10"/><rect class="c1" x="0" y="630" width="950" height="10"/><rect class="c1" x="1050" y="630" width="150" height="10"/><rect class="c1" x="0" y="640" width="560" height="10"/><rect class="c1" x="640" y="640" width="310" height="10"/><rect class="c1" x="1030" y="640" width="170" height="10"/><rect class="c1" x="0" y="650" width="560" height="10"/><rect class="c1" x="640" y="650" width="310" height="10"/><rect class="c1" x="1020" y="650" width="180" height="10"/><rect class="c1" x="0" y="660" width="140" height="10"/><rect class="c2" x="140" y="660" width="20" height="10"/><rect class="c1" x="160" y="660" width="390" height="10"/><rect class="c1" x="650" y="660" width="300" height="10"/><rect class="c1" x="1140" y="660" width="60" height="10"/><rect class="c1" x="0" y="670" width="140" height="10"/><rect class="c2" x="140" y="670" width="30" height="10"/><rect class="c1" x="170" y="670" width="380" height="10"/><rect class="c1" x="650" y="670" width="300" height="10"/><rect class="c1" x="1140" y="670" width="60" height="10"/><rect class="c1" x="0" y="680" width="140" height="10"/><rect class="c2" x="140" y="680" width="50" height="10"/><rect class="c1" x="190" y="680" width="360" height="10"/><rect class="c1" x="650" y="680" width="310" height="10"/><rect class="c1" x="1120" y="680" width="80" height="10"/><rect class="c1" x="0" y="690" width="140" height="10"/><rect class="c2" x="140" y="690" width="70" height="10"/><rect class="c1" x="210" y="690" width="340" height="10"/><rect class="c1" x="650" y="690" width="310" height="10"/><rect class="c1" x="1120" y="690" width="80" height="10"/><rect class="c1" x="0" y="700" width="70" height="10"/><rect class="c1" x="140" y="700" width="410" height="10"/><rect class="c1" x="870" y="700" width="90" height="10"/><rect class="c1" x="1090" y="700" width="110" height="10"/><rect class="c1" x="0" y="710" width="70" height="10"/><rect class="c1" x="140" y="710" width="410" height="10"/><rect class="c1" x="820" y="710" width="140" height="10"/><rect class="c1" x="1070" y="710" width="130" height="10"/><rect class="c1" x="0" y="720" width="70" height="10"/><rect class="c1" x="140" y="720" width="130" height="10"/><rect class="c1" x="300" y="720" width="240" height="10"/><rect class="c1" x="960" y="720" width="240" height="10"/><rect class="c1" x="0" y="730" width="70" height="10"/><rect class="c1" x="140" y="730" width="150" height="10"/><rect class="c1" x="300" y="730" width="240" height="10"/><rect class="c1" x="920" y="730" width="280" height="10"/><rect class="c1" x="0" y="740" width="80" height="10"/><rect class="c1" x="140" y="740" width="400" height="10"/><rect class="c1" x="900" y="740" width="300" height="10"/><rect class="c1" x="0" y="750" width="100" height="10"/><rect class="c1" x="140" y="750" width="400" height="10"/><rect class="c1" x="900" y="750" width="300" height="10"/><rect class="c1" x="0" y="760" width="120" height="10"/><rect class="c1" x="140" y="760" width="400" height="10"/><rect class="c1" x="900" y="760" width="300" height="10"/><rect class="c1" x="0" y="770" width="280" height="10"/><rect class="c1" x="350" y="770" width="190" height="10"/><rect class="c1" x="980" y="770" width="220" height="10"/><rect class="c1" x="0" y="780" width="280" height="10"/><rect class="c1" x="350" y="780" width="130" height="10"/><rect class="c1" x="660" y="780" width="60" height="10"/><rect class="c1" x="950" y="780" width="250" height="10"/><rect class="c1" x="0" y="790" width="280" height="10"/><rect class="c1" x="350" y="790" width="140" height="10"/><rect class="c1" x="660" y="790" width="60" height="10"/><rect class="c1" x="910" y="790" width="290" height="10"/><rect x="0" y="0" width="1200" height="800" filter="url(#g)" opacity="0.04"/></svg>